<svg width="23" height="26" viewBox="0 0 23 26" fill="none" xmlns="http://www.w3.org/2000/svg">
<path d="M21.57 11.5143L19.5845 8.46124C19.5254 8.3721 19.4363 8.34315 19.3471 8.34315H15.7303L17.5387 3.74912C17.5688 3.69008 17.5688 3.60093 17.5387 3.54188C17.5086 3.48283 17.4496 3.42379 17.3905 3.39369L11.3736 1.02258C11.3145 0.992475 11.2254 0.992475 11.1663 1.02258C11.1073 1.05268 11.0482 1.11172 11.0181 1.17077L8.23254 8.31433L3.28196 8.31318C3.19281 8.31318 3.10366 8.37222 3.04462 8.43127L1.05905 11.5143C1.02895 11.5734 1 11.6035 1 11.6625V14.4782C1 14.6264 1.11809 14.7746 1.29639 14.7746H1.74097V24.7036C1.74097 24.8518 1.85907 25 2.03736 25H20.6509C20.7991 25 20.9473 24.8819 20.9473 24.7036V14.7746H21.3919C21.54 14.7746 21.6882 14.6565 21.6882 14.4782V11.6625C21.6292 11.6035 21.5991 11.5734 21.5701 11.5143L21.57 11.5143ZM8.67712 8.72876L11.4338 1.64566L16.8867 3.80838L15.0494 8.52037L14.5156 9.85412H8.23248L8.67712 8.72876ZM3.43015 8.9059H7.9652L7.57966 9.85411H6.63145C6.48325 9.85411 6.33506 9.9722 6.33506 10.1505C6.33506 10.2987 6.45315 10.4469 6.63145 10.4469H15.9087C16.0569 10.4469 16.2051 10.3288 16.2051 10.1505C16.2051 10.0023 16.087 9.85411 15.9087 9.85411H15.0786L15.4641 8.9059H19.169L20.769 11.3662H1.83036L3.43015 8.9059ZM20.3243 24.4073H2.30476V14.8049H20.3255L20.3243 24.4073ZM21.0363 14.2122H1.59263V11.9591H21.0651V14.2122H21.0363Z" fill="#2B75CC" stroke="#2B75CC" stroke-width="0.72" stroke-linejoin="round"/>
</svg>
