<svg width="16" height="12" viewBox="0 0 16 12" fill="none" xmlns="http://www.w3.org/2000/svg">
<path d="M15.2096 5.99944C15.1994 5.8874 15.1531 5.73835 15.0781 5.65407L11.1309 1.18066C10.9583 0.947328 10.6036 0.947328 10.3857 1.13852C10.1668 1.3297 10.1503 1.6689 10.3415 1.87142L13.524 5.4733H1.52628C1.23538 5.4733 1 5.70869 1 5.99958C1 6.29048 1.23539 6.52586 1.52628 6.52586H13.524L10.3415 10.1277C10.1329 10.3292 10.1915 10.6756 10.4104 10.8668C10.6293 11.058 10.9593 11.0446 11.131 10.8185L15.0781 6.34509C15.1839 6.23099 15.2035 6.10662 15.2096 5.99972L15.2096 5.99944Z" fill="#333333" stroke="#333333"/>
</svg>
