<svg width="14" height="12" viewBox="0 0 14 12" fill="none" xmlns="http://www.w3.org/2000/svg">
<path d="M12.6422 2.89212H11.1444L10.9901 1.39426C10.9622 1.12849 10.8359 0.876375 10.6259 0.708487C10.4159 0.540599 10.1501 0.456375 9.8838 0.484263L1.26008 1.40794C0.700079 1.46372 0.294303 1.96794 0.364303 2.51372L1.05008 9.05158C1.10586 9.56946 1.54008 9.96158 2.05797 9.96158H2.17008L2.98219 9.87736V10.4931C2.98219 11.0531 3.43008 11.501 3.99008 11.501H12.6422C13.2022 11.501 13.6501 11.0531 13.6501 10.4931V3.91313C13.6501 3.35423 13.2022 2.89211 12.6422 2.89211L12.6422 2.89212ZM2.96794 3.91423V9.05209L2.07216 9.14999C1.97427 9.1642 1.86216 9.07999 1.86216 8.9821L1.17584 2.42996C1.17584 2.35996 1.20373 2.31785 1.21795 2.28996C1.23217 2.26207 1.27373 2.23418 1.34373 2.21996L9.95373 1.30996H9.96795C10.0237 1.30996 10.0658 1.33785 10.0937 1.35207C10.1216 1.36629 10.1495 1.40785 10.1637 1.47785L10.318 2.89213H3.97582C3.41582 2.89213 2.96793 3.35424 2.96793 3.91424L2.96794 3.91423ZM12.8242 10.4942C12.8242 10.6063 12.74 10.69 12.6284 10.69H3.97574C3.86363 10.69 3.77997 10.6058 3.77997 10.4942V7.66581L5.43211 6.01367C5.61422 5.83156 5.90788 5.83156 6.08999 6.01367L9.40786 9.33153C9.49207 9.41575 9.58997 9.45732 9.70208 9.45732C9.81419 9.45732 9.91208 9.41521 9.9963 9.33153C10.1505 9.17731 10.1505 8.91153 9.9963 8.75731L9.63208 8.39309L10.4863 7.53886C10.5142 7.51097 10.5705 7.51097 10.5984 7.53886L12.8241 9.77886L12.8242 10.4942ZM12.8242 8.61795L11.1721 6.96581C10.8221 6.61581 10.2479 6.61581 9.89785 6.96581L9.05786 7.82004L6.67785 5.44004C6.43997 5.20215 6.11785 5.06215 5.76785 5.06215C5.41785 5.06215 5.09574 5.20215 4.85785 5.44004L3.77997 6.50426V3.91426C3.77997 3.80215 3.86419 3.71849 3.97574 3.71849H12.6279C12.74 3.71849 12.8237 3.80271 12.8237 3.91426L12.8242 8.61795Z" fill="#2B75CC" stroke="#2B75CC" stroke-width="0.14"/>
</svg>
