<svg width="28" height="28" viewBox="0 0 28 28" fill="none" xmlns="http://www.w3.org/2000/svg">
<path d="M24.3943 3.13H6.30768C5.44676 3.13 4.74126 3.8345 4.74126 4.69643V5.87126H3.56643C2.70551 5.87126 2 6.57576 2 7.43769V19.1818C2 20.0428 2.7045 20.7483 3.56643 20.7483H4.7796V24.4676C4.7796 24.7805 5.13185 24.9763 5.40638 24.7805L10.8091 20.7485H21.6923C22.5532 20.7485 23.2587 20.044 23.2587 19.1821V18.0072H24.4336C25.2945 18.0072 26 17.3027 26 16.4408V4.69667C25.9596 3.83474 25.2551 3.13024 24.3942 3.13024L24.3943 3.13ZM22.4362 19.1808C22.4362 19.6118 22.084 19.964 21.653 19.964H10.6528C10.5741 19.964 10.4963 20.0034 10.4176 20.0427L5.56291 23.6833V20.3556C5.56291 20.1205 5.40647 19.964 5.17131 19.964H3.56654C3.13556 19.964 2.78334 19.6118 2.78334 19.1808V7.4367C2.78334 7.00573 3.13559 6.6535 3.56654 6.6535H21.6924C22.1234 6.6535 22.4756 7.00575 22.4756 7.4367V19.1808L22.4362 19.1808ZM25.1764 16.4407C25.1764 16.8717 24.8241 17.2239 24.3932 17.2239H23.2183V7.43673C23.2183 6.57581 22.5138 5.8703 21.6519 5.8703H5.52435V4.69548C5.52435 4.2645 5.8766 3.91228 6.30755 3.91228H24.4334C24.8644 3.91228 25.2166 4.26453 25.2166 4.69548L25.2156 16.4407L25.1764 16.4407Z" fill="#0E142C" stroke="#0E142C" stroke-width="0.5" stroke-linejoin="round"/>
<path d="M9.63377 13.8567H5.52295C5.28778 13.8567 5.13135 14.0131 5.13135 14.2483V18.2028C5.13135 18.438 5.28779 18.5944 5.52295 18.5944H9.63377C9.86894 18.5944 10.0254 18.438 10.0254 18.2028L10.0244 14.2483C10.0244 14.0525 9.86792 13.8567 9.63377 13.8567H9.63377ZM9.24217 17.8102H5.9145V14.6391H9.24217V17.8102Z" fill="#0E142C" stroke="#0E142C" stroke-width="0.5" stroke-linejoin="round"/>
<path d="M12.1777 15.697H16.758C16.9932 15.697 17.1496 15.5406 17.1496 15.3054C17.1496 15.0703 16.9932 14.9138 16.758 14.9138H12.1777C11.9426 14.9138 11.7861 15.0703 11.7861 15.3054C11.7861 15.5406 11.9819 15.697 12.1777 15.697V15.697Z" fill="#0E142C" stroke="#0E142C" stroke-width="0.5" stroke-linejoin="round"/>
<path d="M19.694 16.7532H12.1777C11.9426 16.7532 11.7861 16.9096 11.7861 17.1448C11.7861 17.3799 11.9426 17.5364 12.1777 17.5364H19.694C19.9292 17.5364 20.0856 17.3799 20.0856 17.1448C20.0856 16.9096 19.9292 16.7532 19.694 16.7532Z" fill="#0E142C" stroke="#0E142C" stroke-width="0.5" stroke-linejoin="round"/>
<path d="M9.63377 8.02295H5.52295C5.28778 8.02295 5.13135 8.17939 5.13135 8.41455V12.3691C5.13135 12.6042 5.28779 12.7607 5.52295 12.7607H9.63377C9.86894 12.7607 10.0254 12.6042 10.0254 12.3691L10.0244 8.41455C10.0244 8.21875 9.86792 8.02295 9.63377 8.02295H9.63377ZM9.24217 11.9775H5.9145V8.80636H9.24217V11.9775Z" fill="#0E142C" stroke="#0E142C" stroke-width="0.5" stroke-linejoin="round"/>
<path d="M12.1777 9.86328H16.758C16.9932 9.86328 17.1496 9.70684 17.1496 9.47168C17.1496 9.23652 16.9932 9.08008 16.758 9.08008L12.1777 9.08109C11.9426 9.08109 11.7861 9.23753 11.7861 9.47269C11.7861 9.70685 11.9819 9.86328 12.1777 9.86328V9.86328Z" fill="#0E142C" stroke="#0E142C" stroke-width="0.5" stroke-linejoin="round"/>
<path d="M19.694 10.9205H12.1777C11.9426 10.9205 11.7861 11.077 11.7861 11.3121C11.7861 11.5473 11.9426 11.7037 12.1777 11.7037H19.694C19.9292 11.7037 20.0856 11.5473 20.0856 11.3121C20.0856 11.077 19.9292 10.9205 19.694 10.9205Z" fill="#0E142C" stroke="#0E142C" stroke-width="0.5" stroke-linejoin="round"/>
</svg>
