<svg width="35" height="32" viewBox="0 0 35 32" fill="none" xmlns="http://www.w3.org/2000/svg">
<path d="M31.8198 0.800049H6.92879C5.74398 0.800049 4.77305 1.76959 4.77305 2.95579V4.57261H3.15623C1.97142 4.57261 1.00049 5.54215 1.00049 6.72835V22.8908C1.00049 24.0756 1.97003 25.0466 3.15623 25.0466H4.82582V30.1652C4.82582 30.5958 5.31059 30.8653 5.6884 30.5958L13.1237 25.0469H28.1014C29.2862 25.0469 30.2571 24.0773 30.2571 22.8911V21.2743H31.8739C33.0587 21.2743 34.0297 20.3048 34.0297 19.1186V2.95611C33.9741 1.76991 33.0046 0.800369 31.8198 0.800369L31.8198 0.800049ZM29.1252 22.8894C29.1252 23.4826 28.6404 23.9673 28.0473 23.9673H12.9086C12.8002 23.9673 12.6933 24.0215 12.5849 24.0756L5.90383 29.0858V24.5063C5.90383 24.1826 5.68853 23.9673 5.3649 23.9673H3.15639C2.56327 23.9673 2.07853 23.4826 2.07853 22.8895V6.727C2.07853 6.13388 2.56331 5.64914 3.15639 5.64914H28.1015C28.6946 5.64914 29.1793 6.13391 29.1793 6.727V22.8895L29.1252 22.8894ZM32.8962 19.1184C32.8962 19.7116 32.4114 20.1963 31.8183 20.1963H30.2015V6.72704C30.2015 5.54222 29.232 4.57129 28.0458 4.57129H5.85076V2.95448C5.85076 2.36136 6.33553 1.87662 6.92861 1.87662H31.8737C32.4668 1.87662 32.9516 2.36139 32.9516 2.95448L32.9502 19.1184L32.8962 19.1184Z" fill="#2B75CC" stroke="#2B75CC" stroke-width="0.635176" stroke-linejoin="round"/>
</svg>
