<svg width="59" height="45" viewBox="0 0 59 45" fill="none" xmlns="http://www.w3.org/2000/svg">
<path d="M10.4865 43.0016C10.4579 43.0016 10.3672 42.9969 10.3385 42.9945C10.0019 42.9658 9.67008 42.7701 9.50538 42.4741C9.34069 42.1781 9.30009 41.82 9.45287 41.5168C10.5438 39.3517 11.0976 37.0433 11.0976 34.6492V34.6468C5.30874 31.1042 2 26.0533 2 20.7226C2 10.4003 14.3371 2 29.5 2C44.6629 2 57 10.3979 57 20.7226C57 31.0449 44.6629 39.4428 29.5 39.4428C26.9123 39.4428 24.3461 39.1969 21.8636 38.7147C18.7006 41.4838 14.6806 43.002 10.4865 43.002L10.4865 43.0016ZM29.5 4.03597C15.4585 4.03597 4.03624 11.5196 4.03624 20.7199C4.03624 25.4513 7.15627 29.9917 12.5991 33.1713C12.8975 33.3456 13.0861 33.6607 13.1028 34.0044L13.1148 34.2026C13.1267 34.3506 13.1339 34.4986 13.1339 34.6466C13.1339 36.7998 12.74 38.8933 11.9594 40.8915C15.2727 40.5716 18.3901 39.1704 20.8681 36.8668C21.1116 36.6424 21.4458 36.5493 21.7705 36.6161C24.2746 37.1389 26.8743 37.4063 29.4998 37.4063C43.5413 37.4063 54.9636 29.9226 54.9636 20.7224C54.9636 11.5221 43.5413 4.03598 29.4998 4.03598L29.5 4.03597Z" fill="#B8C8D9" stroke="#B8C8D9" stroke-width="2.35043" stroke-linejoin="round"/>
</svg>
