<svg width="25" height="19" viewBox="0 0 25 19" fill="none" xmlns="http://www.w3.org/2000/svg">
<path d="M4.61063 18.4443C4.59844 18.4443 4.55985 18.4423 4.54766 18.4413C4.40446 18.4291 4.26327 18.3458 4.1932 18.2199C4.12313 18.0939 4.10586 17.9416 4.17086 17.8126C4.63501 16.8914 4.87062 15.9093 4.87062 14.8907V14.8897C2.40772 13.3825 1 11.2336 1 8.96562C1 4.57396 6.24888 1 12.7 1C19.1511 1 24.4 4.57292 24.4 8.96562C24.4 13.3573 19.1511 16.9302 12.7 16.9302C11.5991 16.9302 10.5073 16.8256 9.45104 16.6204C8.10533 17.7985 6.395 18.4445 4.61062 18.4445L4.61063 18.4443ZM12.7 1.86621C6.72599 1.86621 1.86633 5.05017 1.86633 8.96447C1.86633 10.9774 3.19376 12.9092 5.50945 14.262C5.6364 14.3361 5.71664 14.4702 5.72375 14.6164L5.72882 14.7007C5.7339 14.7637 5.73695 14.8267 5.73695 14.8896C5.73695 15.8057 5.56937 16.6964 5.23725 17.5466C6.64695 17.4105 7.97323 16.8143 9.02753 15.8342C9.13113 15.7388 9.27331 15.6992 9.41145 15.7276C10.4769 15.95 11.5829 16.0638 12.6999 16.0638C18.674 16.0638 23.5336 12.8798 23.5336 8.96552C23.5336 5.05122 18.674 1.86622 12.6999 1.86622L12.7 1.86621Z" fill="#2B75CC" stroke="#2B75CC" stroke-linejoin="round"/>
</svg>
