<svg width="566" height="173" viewBox="0 0 566 173" fill="none" xmlns="http://www.w3.org/2000/svg">
<mask id="mask0" mask-type="alpha" maskUnits="userSpaceOnUse" x="0" y="0" width="566" height="173">
<path d="M562 0H4C1.79086 0 0 1.79087 0 4.00001V169C0 171.209 1.79086 173 4 173H562C564.209 173 566 171.209 566 169V4C566 1.79086 564.209 0 562 0Z" fill="url(#paint0_radial)"/>
</mask>
<g mask="url(#mask0)">
<path d="M566 -0.00439453H0V172.996H566V-0.00439453Z" fill="url(#paint1_radial)"/>
<path d="M565.71 0H-0.290039V173H565.71V0Z" fill="url(#paint2_radial)"/>
<path d="M426.761 123.629L427.481 126.307L400.611 141.831C398.422 143.094 395.939 143.76 393.411 143.76H380.35C379.704 143.754 379.142 143.318 378.974 142.694C378.806 142.07 379.075 141.411 379.63 141.082L406.5 125.559C408.689 124.295 411.173 123.629 413.7 123.629H426.761Z" fill="url(#paint3_linear)"/>
<path d="M413.556 34.3634L413.773 119.323C413.796 123.311 411.68 127.004 408.228 129L381.171 144.581C379.265 145.681 376.918 145.682 375.012 144.583C373.106 143.485 371.929 141.453 371.926 139.253C371.926 113.823 371.782 79.7378 371.71 54.293C371.697 50.3162 373.812 46.636 377.254 44.645L404.297 29.0354C406.205 27.9375 408.552 27.9374 410.46 29.0351C412.368 30.1328 413.547 32.1625 413.556 34.3634Z" fill="url(#paint4_linear)"/>
<path d="M408.344 32.261C409.491 31.4762 410.964 31.3453 412.232 31.9154C413.257 32.6536 413.806 33.8851 413.672 35.141L413.888 120.245C413.692 123.76 411.83 126.97 408.877 128.885L381.79 144.595C380.752 145.352 379.383 145.485 378.219 144.941C377.694 144.633 377.277 144.17 377.024 143.616C376.711 142.94 376.558 142.201 376.577 141.456L376.333 56.3666C376.384 54.6652 376.881 53.007 377.773 51.557C378.601 50.0758 379.789 48.8276 381.229 47.9282L408.344 32.261Z" fill="url(#paint5_linear)"/>
<path d="M382.409 50.3619L385.131 48.7923C385.606 48.5187 385.981 48.7923 385.981 49.2819V49.7139C385.981 50.9523 386.873 51.4563 387.968 50.8227L402.728 42.2979C403.883 41.5468 404.61 40.2897 404.686 38.9139V38.4819C404.727 37.8951 405.042 37.3617 405.536 37.0419L408.257 35.4003C410.158 34.3059 411.699 35.1699 411.699 37.3587L411.915 119.439C411.788 121.851 410.514 124.056 408.488 125.371L382.568 140.304C380.667 141.399 379.141 140.52 379.126 138.331L378.925 56.2515C379.052 53.8393 380.326 51.6337 382.352 50.3187" fill="url(#paint6_linear)"/>
<path d="M389.58 132.773C389.707 132.774 389.832 132.739 389.94 132.672L401.95 125.775C402.174 125.646 402.312 125.408 402.312 125.15C402.313 124.892 402.176 124.653 401.952 124.523C401.729 124.394 401.454 124.393 401.23 124.522L389.278 131.434C389 131.599 388.866 131.928 388.95 132.24C389.034 132.552 389.315 132.77 389.638 132.773H389.58Z" fill="url(#paint7_linear)"/>
<path d="M505.806 153.256L496.806 158.458C492.908 160.709 488.104 160.709 484.206 158.458L444.462 135.49C443.907 135.168 443.565 134.575 443.565 133.933C443.565 133.291 443.907 132.698 444.462 132.376L453.462 127.192C457.36 124.941 462.164 124.941 466.062 127.192L505.806 150.142C506.361 150.464 506.703 151.057 506.703 151.699C506.703 152.341 506.361 152.934 505.806 153.256Z" fill="url(#paint8_linear)"/>
<path d="M440.16 20.7041L439.89 126.904C439.883 131.906 442.564 136.525 446.91 139L480.642 158.476C483.026 159.848 485.961 159.849 488.345 158.476C490.73 157.104 492.204 154.567 492.216 151.816C492.216 120.028 492.378 77.4221 492.468 45.6161C492.485 40.645 489.841 36.0448 485.538 33.5561L451.734 14.0441C449.35 12.6717 446.415 12.6715 444.031 14.0436C441.646 15.4158 440.172 17.9529 440.16 20.7041Z" fill="url(#paint9_linear)"/>
<path d="M446.694 18.076C445.253 17.0953 443.407 16.9318 441.816 17.644C440.535 18.5668 439.848 20.1062 440.016 21.676L439.71 128.056C439.956 132.454 442.291 136.468 445.992 138.856L479.904 158.494C481.209 159.44 482.924 159.605 484.386 158.926C485.04 158.543 485.557 157.964 485.862 157.27C486.262 156.428 486.454 155.502 486.42 154.57L486.69 48.208C486.63 46.0804 486.009 44.0064 484.89 42.196C483.85 40.3423 482.357 38.7819 480.552 37.66L446.694 18.076Z" fill="url(#paint10_linear)"/>
<path d="M479.112 40.7021L475.71 38.7401C475.116 38.3981 474.63 38.7401 474.63 39.3521V39.8921C474.63 41.4401 473.514 42.0701 472.164 41.2781L453.714 30.6221C452.263 29.6872 451.347 28.1152 451.248 26.3921V25.8521C451.19 25.1161 450.79 24.45 450.168 24.0521L446.784 22.0001C444.408 20.6321 442.482 21.7121 442.482 24.4481L442.23 127.048C442.382 130.061 443.968 132.818 446.496 134.464L478.896 153.13C481.272 154.498 483.198 153.4 483.198 150.664L483.45 48.0641C483.307 45.0488 481.719 42.2876 479.184 40.6481" fill="url(#paint11_linear)"/>
<path d="M470.148 143.716C469.989 143.719 469.832 143.676 469.698 143.59L454.74 134.968C454.312 134.711 454.168 134.159 454.416 133.726C454.533 133.518 454.729 133.366 454.959 133.305C455.19 133.244 455.436 133.279 455.64 133.402L470.598 142.042C470.945 142.248 471.113 142.66 471.008 143.05C470.903 143.44 470.552 143.712 470.148 143.716Z" fill="url(#paint12_linear)"/>
<path d="M479.112 40.7021L475.71 38.7401C475.116 38.3981 474.63 38.7401 474.63 39.3521V39.8921C474.63 41.4401 473.514 42.0701 472.164 41.2781L453.714 30.6221C452.263 29.6872 451.347 28.1152 451.248 26.3921V25.8521C451.19 25.1161 450.79 24.45 450.168 24.0521L446.784 22.0001C444.408 20.6321 442.482 21.7121 442.482 24.4481L442.32 91.4801L483.306 82.0301V48.1181C483.179 45.1163 481.619 42.3577 479.112 40.7021Z" fill="url(#paint13_linear)"/>
<path d="M288.27 65.3698C280.63 60.9998 268.27 60.9998 260.71 65.3698C253.15 69.7398 253.16 76.9398 260.8 81.3698C268.44 85.7998 280.8 85.7798 288.39 81.3698C295.98 76.9598 295.95 69.7998 288.3 65.3698" fill="url(#paint14_linear)"/>
<path d="M266.58 44.5598C261.991 44.4713 257.453 45.5336 253.38 47.6498C251.005 48.8236 249.118 50.7953 248.05 53.2198C250.22 59.0898 259.98 61.8098 266.71 61.8098C273.44 61.8098 283.15 59.1298 285.26 53.2198C283.15 47.2998 273.34 44.5598 266.58 44.5598Z" fill="url(#paint15_linear)"/>
<path d="M266.58 44.5598C273.31 44.5598 283.07 47.2698 285.24 53.1498C285.533 52.4069 285.692 51.6181 285.71 50.8198C285.71 43.2298 274.22 39.7598 266.61 39.7598C259 39.7598 247.61 43.1598 247.61 50.7598C247.609 51.5782 247.751 52.3905 248.03 53.1598C250.14 47.2398 259.87 44.5598 266.58 44.5598Z" fill="url(#paint16_linear)"/>
<path d="M243.71 50.7202C243.71 59.8502 257.53 64.0302 266.71 64.0302C275.89 64.0302 289.52 59.8602 289.55 50.8202V57.3202C289.55 66.3202 286.55 86.5102 266.72 86.5102C246.89 86.5102 243.71 66.3802 243.71 57.2402V50.7202Z" fill="url(#paint17_linear)"/>
<path d="M243.71 50.75C243.71 41.61 257.47 37.52 266.57 37.52C275.67 37.52 289.57 41.69 289.57 50.83C289.57 59.97 275.82 64.06 266.71 64.06C257.6 64.06 243.71 59.89 243.71 50.75ZM253.38 42.86C249.54 45 247.61 47.88 247.61 50.75C247.61 58.34 259.1 61.81 266.71 61.81C274.32 61.81 285.71 58.41 285.71 50.81C285.71 43.21 274.19 39.76 266.58 39.76C261.99 39.675 257.452 40.7407 253.38 42.86Z" fill="url(#paint18_linear)"/>
<path d="M266.59 46.6398C266.59 46.6398 269.71 36.9998 260.93 33.0898C259.089 34.9724 258.164 37.567 258.4 40.1898C258.71 45.7398 266.59 46.6398 266.59 46.6398Z" fill="url(#paint19_linear)"/>
<path d="M258.82 52.9998C255.512 51.8494 253.286 48.742 253.26 45.2398C253.36 42.8701 254.239 40.5995 255.76 38.7798C255.76 38.7798 264 42.8598 264 46.3898C264.158 49.5749 261.951 52.3918 258.82 52.9998Z" fill="url(#paint20_linear)"/>
<path d="M267.06 45.56C265.88 42.88 266.06 36.81 273.43 33C273.43 33 276.1 35.43 275.68 40.65C275.26 45.87 267.06 45.56 267.06 45.56Z" fill="url(#paint21_linear)"/>
<path d="M261.29 58.4598C261.29 58.4598 259.89 55.0698 257.19 55.0698C254.51 56.7598 256.41 58.8298 261.29 58.4598Z" fill="url(#paint22_linear)"/>
<path d="M259.71 54.3702C259.71 54.3702 256.26 46.6202 250.87 46.8702C250.437 48.226 250.251 49.6486 250.32 51.0702C250.47 53.0602 253.64 54.9202 259.71 54.3702Z" fill="url(#paint23_linear)"/>
<path d="M273.35 52.3198C273.35 52.3198 275.78 44.1998 281.17 43.7598C281.769 45.0519 282.135 46.44 282.25 47.8598C282.32 49.8498 279.41 52.0998 273.35 52.3198Z" fill="url(#paint24_linear)"/>
<path d="M279.35 55.6098C279.35 55.6098 279.03 52.9198 282.35 50.7598C282.35 50.7598 284.16 53.5098 279.35 55.6098Z" fill="url(#paint25_linear)"/>
<path d="M274.53 58.1998C274.53 58.1998 275.53 56.1998 278.81 56.3498C278.81 56.3498 278.71 58.9998 274.53 58.1998Z" fill="url(#paint26_linear)"/>
<path d="M271.47 46.37C271.47 46.37 271.36 38.77 279.81 38.77C279.81 38.77 281.87 49.34 271.47 46.37Z" fill="url(#paint27_linear)"/>
<path d="M263.71 53.4698C263.17 51.7623 262.834 49.9966 262.71 48.2098C262.71 44.4098 270.9 39.8198 270.9 39.8198C270.9 39.8198 275.71 41.9998 275.71 46.8998C275.71 51.7998 267.81 53.4698 263.71 53.4698Z" fill="url(#paint28_linear)"/>
<path d="M265.71 58.2798C265.71 58.2798 269.4 57.5798 269.4 54.1898C269.4 50.7998 263.4 49.0898 263.4 49.0898C261.676 49.6251 260.475 51.1864 260.4 52.9898C260.42 57.0798 265.71 58.2798 265.71 58.2798Z" fill="url(#paint29_linear)"/>
<path d="M266.96 56.7902C266.96 56.7902 264.88 48.7902 277.8 44.2402C277.8 44.2402 279.98 47.6702 279.98 49.9202C279.98 52.1702 278.33 56.7902 266.96 56.7902Z" fill="url(#paint30_linear)"/>
<path d="M264 59.0001C264 59.0001 264.18 55.5401 271.64 53.0801C271.64 53.0801 274.37 54.5401 274.37 56.6101C274.37 58.6801 271.44 60.0401 267.25 60.0401C266.096 59.9723 264.979 59.6146 264 59.0001Z" fill="url(#paint31_linear)"/>
<path d="M55.71 97.2998L126.19 56.3398L165.6 76.5498L95.12 117.51L55.71 97.2998Z" fill="url(#paint32_linear)"/>
<path d="M99.9399 120.29L170.42 79.29L209.82 104.58L142.51 143.74C140.565 144.868 138.152 144.814 136.26 143.6L99.9399 120.29Z" fill="url(#paint33_linear)"/>
<path d="M47.71 96.2998L118.19 55.3398L157.6 75.5498L87.12 116.51L47.71 96.2998Z" fill="url(#paint34_linear)"/>
<path d="M87.1199 116.51L157.6 75.5498L157.72 78.1598L87.2399 119.12L87.1199 116.51Z" fill="url(#paint35_linear)"/>
<path d="M87.24 119.12L157.72 78.1597L162.29 80.7997L91.81 121.76L87.24 119.12Z" fill="url(#paint36_linear)"/>
<path d="M94.61 124.28L165.09 83.3198L164.97 85.6098L94.49 126.57L94.61 124.28Z" fill="url(#paint37_linear)"/>
<path d="M91.94 119.29L131.34 144.58L131.17 147.75L94.61 124.28L94.49 126.57L84.55 120.83L84.44 118.41L47.86 99.6498L47.71 96.2998L87.12 116.51L87.24 119.12L91.81 121.76L91.94 119.29Z" fill="url(#paint38_linear)"/>
<path d="M131.34 144.58L201.82 103.62L201.65 106.79L131.17 147.75L131.34 144.58Z" fill="url(#paint39_linear)"/>
<path d="M91.9399 119.29L162.42 78.3301L201.82 103.62L131.34 144.58L91.9399 119.29Z" fill="url(#paint40_linear)"/>
<path d="M158.88 79.0601L158.75 81.5201L97.3899 117.17L96.5299 116.62L95.3799 117.29L95.4499 115.92L158.88 79.0601Z" fill="white"/>
<path d="M54.47 90.86L117.9 54C127.504 55.128 136.793 58.1315 145.24 62.84C154.24 68.02 156.13 74.9 156.47 78.62L93.04 115.49C92.71 111.76 90.78 104.88 81.81 99.71C73.3625 95.0018 64.074 91.9952 54.47 90.86Z" fill="url(#paint41_linear)"/>
<path d="M131.63 135.41L131.37 139L96.53 116.62L95.45 115.92L95.38 117.29L94.38 117.85L90.71 115.75L90.59 113.14L54.71 94.7099L54.48 90.8599C64.0839 91.9896 73.3727 94.993 81.82 99.6999C90.82 104.88 92.7 111.76 93.04 115.48C93.4 112.16 95.35 107.48 104.31 112.69C117.22 120.15 130.91 134.64 131.63 135.41Z" fill="url(#paint42_linear)"/>
<path d="M167.71 75.8302C163.19 73.2202 160.45 73.1102 158.8 74.0702L95.3999 110.93C97.0499 109.93 99.7899 110.08 104.31 112.7C117.22 120.15 130.9 134.7 131.62 135.41L195.06 98.5502C194.34 97.7802 180.65 83.2902 167.71 75.8302Z" fill="url(#paint43_linear)"/>
<path d="M131.62 135.41L195.06 98.5498L194.8 102.12L131.37 138.98L131.62 135.41Z" fill="url(#paint44_linear)"/>
<path opacity="0.08" d="M123.98 84.3199L98.51 99.1199C96.6046 96.9458 94.3421 95.1129 91.82 93.6999C85.411 90.1055 78.4916 87.509 71.3 85.9999L96.83 71.1499C103.984 72.6619 110.867 75.255 117.24 78.8399C119.786 80.2648 122.066 82.1188 123.98 84.3199Z" fill="#4E7FFF"/>
<path opacity="0.08" d="M150.6 117.06L137.14 124.88C131.92 119.81 122.95 111.68 114.32 106.69C113.69 106.33 113.1 106.01 112.54 105.75L126.02 97.9102C126.56 98.1802 127.13 98.4802 127.74 98.8302C136.39 103.83 145.38 112 150.6 117.06Z" fill="#4E7FFF"/>
<path opacity="0.08" d="M183.49 97.9401L154.4 114.85C149.16 109.77 140.28 101.76 131.74 96.8501C131.02 96.4301 130.35 96.0801 129.74 95.7801L158.88 78.8501C159.47 79.1301 160.1 79.4601 160.77 79.8501C169.34 84.7901 178.26 92.8601 183.49 97.9401Z" fill="#4E7FFF"/>
<path d="M34.41 57.5102L33.15 56.7802C31.8185 56.1 30.2415 56.1 28.91 56.7802L26.58 58.1402L25.3 57.3902L1.2 71.3902L0.709999 71.1202L-20.78 83.6102L-20.22 83.9302L-25 90.3202L-23.29 91.3202L-12.29 88.5302L-11.73 88.8602L9.77 76.3602L9.29 76.0902L33.39 62.0902L32.1 61.3502L34.43 60.0002C34.9559 59.8203 35.3092 59.326 35.3092 58.7702C35.3092 58.2144 34.9559 57.7201 34.43 57.5402" fill="url(#paint45_linear)"/>
<path d="M19.49 55.4002L16.71 57.0002C16.9307 56.8698 17.1836 56.804 17.44 56.8102C19.26 56.8102 21.44 59.5702 21.44 61.9602C21.5018 62.6575 21.1946 63.3364 20.63 63.7502L23.43 62.1202C24.4054 61.5265 24.9832 60.4513 24.94 59.3102C24.94 57.1802 23.13 54.9702 20.94 54.9702C20.4237 54.9748 19.9174 55.1126 19.47 55.3702" fill="url(#paint46_linear)"/>
<path d="M18.5999 55.88C17.804 55.3207 16.7688 55.2329 15.8899 55.65L-8.81006 70C-7.93011 69.5892 -6.89819 69.6768 -6.10006 70.23C-3.76712 71.6904 -2.27872 74.1835 -2.10006 76.93C-1.99188 77.9434 -2.44896 78.9344 -3.29006 79.51L21.4099 65.16C22.2284 64.57 22.6612 63.5816 22.5399 62.58C22.3715 59.8457 20.9076 57.3563 18.5999 55.88Z" fill="url(#paint47_linear)"/>
<path d="M14.6001 58.3801L1.78009 65.8301L-2.15991 63.5501L10.6601 56.1001L14.6001 58.3801Z" fill="url(#paint48_linear)"/>
<path d="M14.6 58.3799V60.3299L1.78003 67.7799V65.8299L14.6 58.3799Z" fill="url(#paint49_linear)"/>
<path d="M1.78008 65.8303V67.7803L-2.16992 65.5003L-2.15992 63.5503L1.78008 65.8303Z" fill="url(#paint50_linear)"/>
</g>
<defs>
<radialGradient id="paint0_radial" cx="0" cy="0" r="1" gradientUnits="userSpaceOnUse" gradientTransform="rotate(45) scale(800.445 437.613)">
<stop stop-color="#2B75CC"/>
<stop offset="1" stop-color="#3692FF"/>
</radialGradient>
<radialGradient id="paint1_radial" cx="0" cy="0" r="1" gradientUnits="userSpaceOnUse" gradientTransform="translate(0 -0.00439453) rotate(45) scale(800.445 437.613)">
<stop stop-color="#2B75CC"/>
<stop offset="1" stop-color="#3692FF"/>
</radialGradient>
<radialGradient id="paint2_radial" cx="0" cy="0" r="1" gradientUnits="userSpaceOnUse" gradientTransform="translate(-0.290039) rotate(45) scale(800.445 437.613)">
<stop stop-color="#2B75CC"/>
<stop offset="1" stop-color="#3692FF"/>
</radialGradient>
<linearGradient id="paint3_linear" x1="378.91" y1="133.695" x2="427.481" y2="133.695" gradientUnits="userSpaceOnUse">
<stop stop-color="#292376"/>
<stop offset="1" stop-color="#5D278F" stop-opacity="0"/>
</linearGradient>
<linearGradient id="paint4_linear" x1="388.388" y1="145.125" x2="434.55" y2="64.8025" gradientUnits="userSpaceOnUse">
<stop stop-color="#DBF9EA"/>
<stop offset="1" stop-color="#C0DDE2"/>
</linearGradient>
<linearGradient id="paint5_linear" x1="397.119" y1="34.7835" x2="355.733" y2="145.098" gradientUnits="userSpaceOnUse">
<stop stop-color="#DBF9EA"/>
<stop offset="0.97" stop-color="white"/>
</linearGradient>
<linearGradient id="paint6_linear" x1="399.484" y1="109.431" x2="368.493" y2="93.4797" gradientUnits="userSpaceOnUse">
<stop stop-color="#2A1079"/>
<stop offset="1" stop-color="#385BE1"/>
</linearGradient>
<linearGradient id="paint7_linear" x1="399.531" y1="129.394" x2="392.609" y2="125.838" gradientUnits="userSpaceOnUse">
<stop stop-color="#DBF9EA"/>
<stop offset="0.97" stop-color="white"/>
</linearGradient>
<linearGradient id="paint8_linear" x1="468.492" y1="144.107" x2="490.963" y2="129.679" gradientUnits="userSpaceOnUse">
<stop stop-color="#2A6EE4"/>
<stop offset="1" stop-color="#2A6EE4" stop-opacity="0"/>
</linearGradient>
<linearGradient id="paint9_linear" x1="471.582" y1="159.597" x2="413.88" y2="59.1941" gradientUnits="userSpaceOnUse">
<stop stop-color="#DBF9EA"/>
<stop offset="1" stop-color="#C0DDE2"/>
</linearGradient>
<linearGradient id="paint10_linear" x1="460.654" y1="21.6703" x2="512.397" y2="159.549" gradientUnits="userSpaceOnUse">
<stop stop-color="#DBF9EA"/>
<stop offset="0.97" stop-color="white"/>
</linearGradient>
<linearGradient id="paint11_linear" x1="457.765" y1="114.538" x2="484.585" y2="100.737" gradientUnits="userSpaceOnUse">
<stop stop-color="#255CE5"/>
<stop offset="1" stop-color="#389FE1"/>
</linearGradient>
<linearGradient id="paint12_linear" x1="457.71" y1="139.49" x2="466.363" y2="135.046" gradientUnits="userSpaceOnUse">
<stop stop-color="#DBF9EA"/>
<stop offset="0.97" stop-color="white"/>
</linearGradient>
<linearGradient id="paint13_linear" x1="446.768" y1="76.3781" x2="481.332" y2="58.5951" gradientUnits="userSpaceOnUse">
<stop stop-color="white" stop-opacity="0.25"/>
<stop offset="1" stop-color="#DBF9EA" stop-opacity="0"/>
</linearGradient>
<linearGradient id="paint14_linear" x1="258.47" y1="75.2543" x2="291.657" y2="63.6907" gradientUnits="userSpaceOnUse">
<stop stop-color="#292376"/>
<stop offset="1" stop-color="#5D278F" stop-opacity="0"/>
</linearGradient>
<linearGradient id="paint15_linear" x1="248.05" y1="53.1798" x2="285.26" y2="53.1798" gradientUnits="userSpaceOnUse">
<stop stop-color="#534741"/>
<stop offset="1" stop-color="#D1985C"/>
</linearGradient>
<linearGradient id="paint16_linear" x1="285.68" y1="46.4498" x2="247.62" y2="46.4498" gradientUnits="userSpaceOnUse">
<stop stop-color="#DBF9EA"/>
<stop offset="0.97" stop-color="white"/>
</linearGradient>
<linearGradient id="paint17_linear" x1="243.71" y1="68.6302" x2="289.56" y2="68.6302" gradientUnits="userSpaceOnUse">
<stop stop-color="#1FEAEC"/>
<stop offset="1" stop-color="#00A8FF"/>
</linearGradient>
<linearGradient id="paint18_linear" x1="243.74" y1="50.79" x2="289.56" y2="50.79" gradientUnits="userSpaceOnUse">
<stop stop-color="#DBF9EA"/>
<stop offset="0.97" stop-color="white"/>
</linearGradient>
<linearGradient id="paint19_linear" x1="264.895" y1="39.3156" x2="261.291" y2="39.5319" gradientUnits="userSpaceOnUse">
<stop stop-color="#25CE81"/>
<stop offset="1" stop-color="#C3E421"/>
</linearGradient>
<linearGradient id="paint20_linear" x1="263.99" y1="45.8798" x2="253.26" y2="45.8798" gradientUnits="userSpaceOnUse">
<stop stop-color="#25CE81"/>
<stop offset="1" stop-color="#C3E421"/>
</linearGradient>
<linearGradient id="paint21_linear" x1="274.632" y1="39.1476" x2="269.776" y2="38.7591" gradientUnits="userSpaceOnUse">
<stop stop-color="#25CE81"/>
<stop offset="1" stop-color="#C3E421"/>
</linearGradient>
<linearGradient id="paint22_linear" x1="261.28" y1="56.7898" x2="255.97" y2="56.7898" gradientUnits="userSpaceOnUse">
<stop stop-color="#25CE81"/>
<stop offset="1" stop-color="#C3E421"/>
</linearGradient>
<linearGradient id="paint23_linear" x1="261.29" y1="50.9727" x2="252.265" y2="51.7849" gradientUnits="userSpaceOnUse">
<stop stop-color="#25CE81"/>
<stop offset="1" stop-color="#C3E421"/>
</linearGradient>
<linearGradient id="paint24_linear" x1="273.198" y1="48.1831" x2="282.241" y2="47.8547" gradientUnits="userSpaceOnUse">
<stop stop-color="#25CE81"/>
<stop offset="1" stop-color="#C3E421"/>
</linearGradient>
<linearGradient id="paint25_linear" x1="281.531" y1="53.7312" x2="279.59" y2="54.1075" gradientUnits="userSpaceOnUse">
<stop stop-color="#25CE81"/>
<stop offset="1" stop-color="#C3E421"/>
</linearGradient>
<linearGradient id="paint26_linear" x1="281.228" y1="56.8792" x2="278.585" y2="55.7299" gradientUnits="userSpaceOnUse">
<stop stop-color="#25CE81"/>
<stop offset="1" stop-color="#C3E421"/>
</linearGradient>
<linearGradient id="paint27_linear" x1="279.97" y1="42.84" x2="271.46" y2="42.84" gradientUnits="userSpaceOnUse">
<stop stop-color="#25CE81"/>
<stop offset="1" stop-color="#C3E421"/>
</linearGradient>
<linearGradient id="paint28_linear" x1="275.72" y1="46.6398" x2="262.74" y2="46.6398" gradientUnits="userSpaceOnUse">
<stop stop-color="#25CE81"/>
<stop offset="1" stop-color="#C3E421"/>
</linearGradient>
<linearGradient id="paint29_linear" x1="269.41" y1="53.6898" x2="260.42" y2="53.6898" gradientUnits="userSpaceOnUse">
<stop stop-color="#25CE81"/>
<stop offset="1" stop-color="#C3E421"/>
</linearGradient>
<linearGradient id="paint30_linear" x1="279.97" y1="50.5102" x2="266.84" y2="50.5102" gradientUnits="userSpaceOnUse">
<stop stop-color="#25CE81"/>
<stop offset="1" stop-color="#C3E421"/>
</linearGradient>
<linearGradient id="paint31_linear" x1="274.37" y1="56.5801" x2="263.99" y2="56.5801" gradientUnits="userSpaceOnUse">
<stop stop-color="#25CE81"/>
<stop offset="1" stop-color="#C3E421"/>
</linearGradient>
<linearGradient id="paint32_linear" x1="88.25" y1="89.8669" x2="184.009" y2="49.2901" gradientUnits="userSpaceOnUse">
<stop stop-color="#292376"/>
<stop offset="1" stop-color="#5D278F" stop-opacity="0"/>
</linearGradient>
<linearGradient id="paint33_linear" x1="104.07" y1="119.624" x2="200.528" y2="78.751" gradientUnits="userSpaceOnUse">
<stop stop-color="#292376"/>
<stop offset="1" stop-color="#5D278F" stop-opacity="0"/>
</linearGradient>
<linearGradient id="paint34_linear" x1="77.96" y1="91.5999" x2="159.267" y2="31.3086" gradientUnits="userSpaceOnUse">
<stop stop-color="#B05E79"/>
<stop offset="1" stop-color="#FB5A3B"/>
</linearGradient>
<linearGradient id="paint35_linear" x1="87.1199" y1="97.3298" x2="157.72" y2="97.3298" gradientUnits="userSpaceOnUse">
<stop stop-color="#B05E79"/>
<stop offset="1" stop-color="#FB5A3B"/>
</linearGradient>
<linearGradient id="paint36_linear" x1="87.24" y1="99.9597" x2="162.29" y2="99.9597" gradientUnits="userSpaceOnUse">
<stop stop-color="#B05E79"/>
<stop offset="1" stop-color="#FB5A3B"/>
</linearGradient>
<linearGradient id="paint37_linear" x1="94.49" y1="104.94" x2="165.09" y2="104.94" gradientUnits="userSpaceOnUse">
<stop stop-color="#B05E79"/>
<stop offset="1" stop-color="#FB5A3B"/>
</linearGradient>
<linearGradient id="paint38_linear" x1="47.71" y1="122.02" x2="131.34" y2="122.02" gradientUnits="userSpaceOnUse">
<stop stop-color="#B05E79"/>
<stop offset="1" stop-color="#FB5A3B"/>
</linearGradient>
<linearGradient id="paint39_linear" x1="131.17" y1="125.68" x2="201.82" y2="125.68" gradientUnits="userSpaceOnUse">
<stop stop-color="#B05E79"/>
<stop offset="1" stop-color="#FB5A3B"/>
</linearGradient>
<linearGradient id="paint40_linear" x1="105.86" y1="122.512" x2="189.221" y2="60.7051" gradientUnits="userSpaceOnUse">
<stop stop-color="#B05E79"/>
<stop offset="1" stop-color="#FB5A3B"/>
</linearGradient>
<linearGradient id="paint41_linear" x1="117.65" y1="90.7869" x2="108.393" y2="76.7124" gradientUnits="userSpaceOnUse">
<stop stop-color="#DBF9EA"/>
<stop offset="0.97" stop-color="white"/>
</linearGradient>
<linearGradient id="paint42_linear" x1="63.85" y1="108.646" x2="132.973" y2="141.728" gradientUnits="userSpaceOnUse">
<stop stop-color="#DBF9EA"/>
<stop offset="0.97" stop-color="white"/>
</linearGradient>
<linearGradient id="paint43_linear" x1="162.62" y1="115.173" x2="146.405" y2="89.5399" gradientUnits="userSpaceOnUse">
<stop stop-color="#DBF9EA"/>
<stop offset="0.97" stop-color="white"/>
</linearGradient>
<linearGradient id="paint44_linear" x1="194.73" y1="114.552" x2="126.63" y2="137.132" gradientUnits="userSpaceOnUse">
<stop stop-color="#DBF9EA"/>
<stop offset="0.97" stop-color="white"/>
</linearGradient>
<linearGradient id="paint45_linear" x1="-25" y1="73.7902" x2="35.3" y2="73.7902" gradientUnits="userSpaceOnUse">
<stop stop-color="#292376"/>
<stop offset="1" stop-color="#5D278F" stop-opacity="0"/>
</linearGradient>
<linearGradient id="paint46_linear" x1="16.69" y1="59.3902" x2="24.92" y2="59.3902" gradientUnits="userSpaceOnUse">
<stop stop-color="#FBB78E"/>
<stop offset="1" stop-color="#E76384"/>
</linearGradient>
<linearGradient id="paint47_linear" x1="-8.81006" y1="67.45" x2="22.5499" y2="67.45" gradientUnits="userSpaceOnUse">
<stop stop-color="#C0DDE2"/>
<stop offset="1" stop-color="#DBF9EA"/>
</linearGradient>
<linearGradient id="paint48_linear" x1="-2.15991" y1="60.9701" x2="14.6001" y2="60.9701" gradientUnits="userSpaceOnUse">
<stop stop-color="#FBB78E"/>
<stop offset="1" stop-color="#E76384"/>
</linearGradient>
<linearGradient id="paint49_linear" x1="1.78003" y1="63.0799" x2="14.6" y2="63.0799" gradientUnits="userSpaceOnUse">
<stop stop-color="#FBB78E"/>
<stop offset="1" stop-color="#E76384"/>
</linearGradient>
<linearGradient id="paint50_linear" x1="-2.16992" y1="65.6603" x2="1.78008" y2="65.6603" gradientUnits="userSpaceOnUse">
<stop stop-color="#FBB78E"/>
<stop offset="1" stop-color="#E76384"/>
</linearGradient>
</defs>
</svg>
