<svg width="566" height="173" viewBox="0 0 566 173" fill="none" xmlns="http://www.w3.org/2000/svg">
<mask id="mask0" mask-type="alpha" maskUnits="userSpaceOnUse" x="0" y="0" width="566" height="173">
<path d="M562 0H4C1.79086 0 0 1.79087 0 4.00001V169C0 171.209 1.79086 173 4 173H562C564.209 173 566 171.209 566 169V4C566 1.79086 564.209 0 562 0Z" fill="url(#paint0_radial)"/>
</mask>
<g mask="url(#mask0)">
<path d="M566 0H0V173H566V0Z" fill="url(#paint1_radial)"/>
<path d="M11.5399 116.536L-82.1101 62.4757C-83.8836 61.566 -85.9866 61.566 -87.7601 62.4757L-113.14 77.2157C-114.69 78.1257 -114.68 79.5857 -113.14 80.4957L-19.4901 134.556C-17.7166 135.465 -15.6136 135.465 -13.8401 134.556L11.5299 119.816C13.0899 118.906 13.0799 117.436 11.5299 116.536" fill="url(#paint2_linear)"/>
<path d="M3.24023 109.266C4.82023 110.186 4.88023 111.906 3.36023 113.116L-21.3798 132.886C-23.0041 134.104 -25.1732 134.313 -26.9998 133.426L-121.78 78.7056C-123.36 77.7956 -123.41 76.0656 -121.89 74.8556L-97.1498 55.0856C-95.5264 53.8649 -93.3559 53.6563 -91.5298 54.5456L3.24023 109.266Z" fill="url(#paint3_linear)"/>
<path d="M4.44 110.866C4.51762 111.757 4.10366 112.619 3.36 113.116L-21.38 132.886C-23.0043 134.104 -25.1734 134.313 -27 133.426L-121.78 78.7057C-122.41 78.3924 -122.861 77.8056 -123 77.1157L-122.55 80.1157C-122.419 80.8036 -121.976 81.3913 -121.35 81.7057L-26.56 136.386C-24.7293 137.276 -22.5537 137.064 -20.93 135.836L3.81 116.076C4.55528 115.576 4.96919 114.71 4.89 113.816L4.44 110.866Z" fill="url(#paint4_linear)"/>
<path d="M-10.0703 43.7556L-41.1903 58.4856C-42.1736 58.9524 -42.8185 59.9241 -42.8667 61.0114C-42.9149 62.0988 -42.3585 63.1237 -41.4203 63.6756L-8.79035 82.7556C-4.75775 85.1141 0.289907 84.8549 4.05965 82.0956L28.2496 64.3656C28.7936 63.9678 29.1005 63.3228 29.0663 62.6497C29.032 61.9767 28.6611 61.3662 28.0797 61.0256L-0.740345 44.1656C-3.59162 42.496 -7.0836 42.3425 -10.0703 43.7556Z" fill="url(#paint5_linear)"/>
<path d="M13.3796 21.0561L17.5097 23.4561C16.6724 23.0982 15.7089 23.2044 14.9697 23.7361L12.8997 24.9261L-16.6003 7.78606L-17.6804 3.78606C-17.7048 3.69302 -17.7383 3.60259 -17.7803 3.51605C-17.92 3.07412 -18.2148 2.69763 -18.6104 2.45605L13.3796 21.0561Z" fill="url(#paint6_linear)"/>
<path d="M13.3796 21.0561L17.5097 23.4561C16.6724 23.0982 15.7089 23.2044 14.9697 23.7361L12.8997 24.9261L-16.6003 7.78606L-17.6804 3.78606C-17.7048 3.69302 -17.7383 3.60259 -17.7803 3.51605C-17.92 3.07412 -18.2148 2.69763 -18.6104 2.45605L13.3796 21.0561Z" fill="url(#paint7_linear)"/>
<path d="M-16.41 -1.34428C-17.65 -2.06428 -19.41 -1.94429 -21.22 -0.874289L-23.29 0.315714L12.88 21.3157L14.95 20.1157C16.8 19.0457 18.52 18.9257 19.77 19.6457L-16.41 -1.34428Z" fill="url(#paint8_linear)"/>
<path d="M12.8997 24.9259L-16.6003 7.78592L-23.2703 3.90592L-23.2803 0.315918L-17.7803 3.51591L12.8897 21.3359L12.8997 24.9259Z" fill="#E6E6E6"/>
<path d="M28.0697 57.9958C26.921 60.5163 25.0617 62.6467 22.7197 64.1258L-3.93028 83.6758C-7.69947 86.4471 -12.7572 86.7067 -16.7903 84.3358L-49.4103 65.2558C-50.3235 64.7287 -50.8815 63.7502 -50.8704 62.6958V59.1358C-50.8764 60.1836 -50.3187 61.1537 -49.4103 61.6758L-16.7903 80.7558C-12.7546 83.1161 -7.70314 82.8568 -3.93028 80.0958L19.9997 62.5558L22.7197 60.5558C23.9838 59.7606 24.9882 58.6137 25.6097 57.2558C26.2701 56.0333 26.4857 54.6196 26.2197 53.2558L18.4997 24.8058C18.4602 24.6577 18.4066 24.5137 18.3397 24.3758C18.2918 24.2628 18.2314 24.1555 18.1597 24.0558C18.1389 24.0152 18.1119 23.9781 18.0797 23.9458C18.0411 23.8859 17.994 23.832 17.9397 23.7858C17.909 23.75 17.8755 23.7166 17.8397 23.6858C17.7556 23.6071 17.6614 23.5399 17.5597 23.4858C16.7224 23.1279 15.7589 23.2342 15.0197 23.7658L12.9497 24.9558V21.3658L13.4397 21.0858L15.0197 20.1758C15.9245 19.6174 16.9575 19.3006 18.0197 19.2558C18.1595 19.2455 18.2999 19.2455 18.4397 19.2558C18.5261 19.2455 18.6134 19.2455 18.6997 19.2558C18.8697 19.2804 19.0371 19.3206 19.1997 19.3758L19.4697 19.4758L19.7297 19.6058C20.6474 20.1568 21.2982 21.0608 21.5297 22.1058L29.2497 50.5658C29.7273 53.1044 29.3103 55.7301 28.0697 57.9958Z" fill="url(#paint9_linear)"/>
<path d="M26.2096 53.2758L18.4896 24.8058C18.3669 24.2599 18.0324 23.7851 17.5596 23.4858L-18.6104 2.48584C-18.1361 2.78349 -17.801 3.25902 -17.6804 3.80584L-10.0004 32.2558C-9.73748 33.6207 -9.95663 35.0346 -10.6204 36.2558C-11.1814 37.5896 -12.1287 38.725 -13.3404 39.5158L-49.2304 56.5158C-50.2136 56.9826 -50.8586 57.9543 -50.9068 59.0416C-50.955 60.129 -50.3985 61.154 -49.4604 61.7058L-16.8304 80.7858C-12.7978 83.1443 -7.75013 82.8851 -3.98039 80.1258L22.6696 60.5958C23.933 59.8028 24.9348 58.655 25.5496 57.2958C26.2317 56.0738 26.4652 54.6518 26.2096 53.2758Z" fill="url(#paint10_linear)"/>
<path d="M50.4599 -32.8142L-69.4301 -102.004C-71.4001 -103.164 -73.1901 -103.274 -74.4801 -102.524L-77.6401 -100.684C-76.3501 -101.434 -74.5701 -101.334 -72.5901 -100.194L47.2999 -31.0042C51.4798 -28.2863 54.1076 -23.7331 54.3699 -18.7542L54.0799 79.1358C54.0799 81.3758 53.2799 82.9458 52.0099 83.6858L55.1699 81.8458C56.4499 81.1058 57.2399 79.5358 57.2399 77.3058L57.5299 -20.5942C57.2582 -25.5623 54.6315 -30.1024 50.4599 -32.8142Z" fill="url(#paint11_linear)"/>
<path d="M54.1298 64.4156L-79.9502 -13.0044V1.75561C-79.6929 6.72073 -77.0859 11.2664 -72.9302 13.9956L46.9998 83.2256C50.9198 85.4856 54.1098 83.6656 54.1198 79.2256V64.4656" fill="url(#paint12_linear)"/>
<path d="M47.2998 -31.0041L-72.5902 -100.194C-76.5102 -102.454 -79.7002 -100.634 -79.7102 -96.1341L-79.9502 -13.0041L54.1298 64.4059L54.3698 -18.7341C54.109 -23.7188 51.4816 -28.2786 47.2998 -31.0041Z" fill="url(#paint13_linear)"/>
<path d="M-73.3301 -17.7843L-73.1201 -91.8843L47.7699 -22.0843L47.5599 52.0057L-73.3301 -17.7843Z" fill="url(#paint14_linear)"/>
<path d="M54.46 132.406L38.66 141.586C34.6378 143.908 29.6822 143.908 25.66 141.586L24.19 140.736C23.2648 140.199 22.6953 139.21 22.6953 138.141C22.6953 137.071 23.2648 136.082 24.19 135.546L40 126.386C44.0222 124.063 48.9778 124.063 53 126.386L54.47 127.236C55.3845 127.777 55.9446 128.761 55.9426 129.824C55.9405 130.886 55.3766 131.868 54.46 132.406Z" fill="url(#paint15_linear)"/>
<path d="M14.0002 138.226C13.9202 139.866 14.0002 141.306 17.5002 143.356C25.3202 147.876 31.9102 144.046 40.0302 139.356C49.8602 133.646 50.4302 132.466 50.4302 129.426C50.4181 127.739 49.772 126.118 48.6202 124.886C43.6902 119.886 38.0702 120.296 32.1402 123.176C29.0002 124.686 20.4802 129.476 17.5502 131.916C15.4202 133.686 14.1402 135.506 14.0002 138.226Z" fill="url(#paint16_linear)"/>
<path d="M49.4102 125.866C48.0002 123.676 45.1201 122.106 42.8001 121.406C37.1602 119.706 30.9202 123.496 22.3802 128.626C19.2302 130.516 16.8002 132.216 15.3802 134.156C15.3297 134.487 15.3297 134.824 15.3802 135.156C15.3659 135 15.3659 134.842 15.3802 134.686C15.3802 135.916 15.0302 137.386 18.6602 139.486C25.9802 143.706 32.1402 140.126 39.7402 135.716C49.2201 130.196 49.6902 128.996 49.4102 125.866Z" fill="url(#paint17_linear)"/>
<path d="M313 50.5857L369.38 17.8257L401.7 33.9457L345.32 66.7057L313 50.5857Z" fill="url(#paint18_linear)"/>
<path d="M350.13 69.4858L406.52 36.7158L438.83 57.9158L385.65 88.8258C383.685 89.9624 381.247 89.8927 379.35 88.6458L350.13 69.4858Z" fill="url(#paint19_linear)"/>
<path d="M305 49.5857L361.38 16.8257L393.7 32.9457L337.32 65.7057L305 49.5857Z" fill="url(#paint20_linear)"/>
<path d="M337.32 65.7058L393.7 32.9458L393.82 35.5458L337.43 68.3158L337.32 65.7058Z" fill="url(#paint21_linear)"/>
<path d="M337.43 68.3159L393.82 35.5459L398.39 38.1859L342.01 70.9559L337.43 68.3159Z" fill="url(#paint22_linear)"/>
<path d="M400.56 41.9956L344.18 74.7356C344.592 74.4514 344.83 73.9758 344.81 73.4756L401.19 40.7056C401.227 41.2175 400.986 41.7098 400.56 41.9956Z" fill="url(#paint23_linear)"/>
<path d="M342.13 68.4855L374.45 89.6855L374.28 92.8454L344.81 73.4754C344.74 74.7654 343.81 75.2454 342.64 74.5854L336.78 71.1954C335.557 70.4001 334.764 69.0885 334.63 67.6354L305.15 52.9354L305 49.5854L337.32 65.7054L337.43 68.3154L342 70.9954L342.13 68.4855Z" fill="url(#paint24_linear)"/>
<path d="M374.45 89.6855L430.83 56.9155L430.66 60.0855L374.28 92.8455L374.45 89.6855Z" fill="url(#paint25_linear)"/>
<path d="M342.13 68.4858L398.52 35.7158L430.83 56.9158L374.45 89.6858L342.13 68.4858Z" fill="url(#paint26_linear)"/>
<path d="M394.95 36.4961L394.82 38.9661L347.54 66.4361L346.66 65.8561L345.54 66.5061L345.61 65.1661L394.95 36.4961Z" fill="white"/>
<path d="M381.32 20.2859C368.41 12.8259 361.43 15.3959 361.06 15.5259L311.72 44.2059C312.09 44.0659 319.07 41.4959 332 48.9959C341.1 54.2459 342.94 61.2459 343.24 64.9259L392.55 36.2159C392.26 32.5359 390.41 25.5359 381.32 20.2859Z" fill="url(#paint27_linear)"/>
<path d="M374.54 82.7759L374.44 84.0859L346.66 65.8559L345.66 65.1659L345.59 66.5059L344.59 67.0859L340.92 64.9959L340.8 62.3959L312 48.0559L311.72 44.1959C312.09 44.0659 319.07 41.4959 332 48.9959C341.09 54.2459 342.94 61.2459 343.24 64.9259C343.67 62.3159 345.76 59.2459 354.34 64.2059C362.34 68.8583 369.232 75.1947 374.54 82.7759Z" fill="url(#paint28_linear)"/>
<path d="M345 61.996L394.29 33.336C395.83 32.436 398.63 32.596 403.65 35.496C411.664 40.1543 418.564 46.5054 423.87 54.106L374.54 82.776C369.231 75.1782 362.331 68.8277 354.32 64.166C349.29 61.266 346.5 61.106 345 61.996Z" fill="url(#paint29_linear)"/>
<path d="M374.54 82.776L423.87 54.106L423.78 55.466L374.44 84.136L374.54 82.776Z" fill="white"/>
<g opacity="0.15">
<path opacity="0.15" d="M384.78 33.196C384.56 32.766 384.62 32.126 384.35 31.686C384.08 31.246 383.46 31.056 383.16 30.636C382.86 30.216 382.07 30.236 381.74 29.846C381.41 29.456 381.24 29.006 380.88 28.626C380.52 28.246 380.16 27.986 379.78 27.626C379.4 27.266 378.89 27.196 378.49 26.866C378.09 26.536 378.03 25.866 377.61 25.576C377.19 25.286 377.22 24.366 376.79 24.086C376.36 23.806 375.79 23.806 375.33 23.546C374.87 23.286 374.54 22.956 374.13 22.736C373.72 22.516 373.13 22.496 372.73 22.286C372.33 22.076 371.61 22.366 371.19 22.166C370.77 21.966 370.64 21.016 370.19 20.826C369.74 20.636 368.94 21.306 368.51 21.136C368.08 20.966 367.92 19.996 367.48 19.876C367.04 19.756 366.64 19.256 366.2 19.126C365.76 18.996 365.15 19.126 364.7 19.056C364.25 18.986 363.7 19.056 363.24 18.986C362.78 18.916 362.36 18.206 361.92 18.136C361.48 18.066 360.85 18.676 360.4 18.636V19.276" stroke="#4E7FFF" stroke-linecap="round"/>
<path opacity="0.15" d="M354.24 22.1058C354.69 22.1058 355.14 22.3858 355.64 22.4658C356.14 22.5458 356.71 21.8458 357.2 21.9958C357.69 22.1458 358.13 22.3058 358.61 22.4258C359.09 22.5458 359.48 22.8658 359.96 23.0158C360.44 23.1658 360.5 24.3458 360.96 24.5058C361.42 24.6658 362.29 23.6058 362.75 23.7858C363.21 23.9658 363.51 24.4758 363.96 24.6658C364.41 24.8558 364.73 25.2658 365.17 25.4758C365.61 25.6858 365.92 26.0858 366.36 26.3058C366.8 26.5258 367.04 27.0158 367.48 27.2458C367.92 27.4758 368.64 27.1058 369.06 27.3558C369.48 27.6058 369.96 27.8558 370.37 28.1258C370.78 28.3958 371.37 28.4458 371.8 28.7258C372.23 29.0058 372.09 30.0258 372.47 30.3258C372.85 30.6258 373.3 30.8858 373.66 31.2158C374.02 31.5458 374.11 32.1658 374.45 32.5158C374.79 32.8658 375.37 33.0158 375.68 33.3858C375.99 33.7558 376.53 34.0058 376.81 34.3858C377.09 34.7658 377.66 35.0558 377.91 35.4658C378.16 35.8758 378.2 36.4658 378.42 36.9158" stroke="#4E7FFF" stroke-linecap="round"/>
<path opacity="0.15" d="M348.08 25.5659C348.53 25.5659 348.93 26.2559 349.43 26.3259C349.93 26.3959 350.43 25.9159 350.94 26.0159C351.45 26.1159 351.63 27.1159 352.12 27.2359C352.61 27.3559 353.12 27.0559 353.59 27.2359C354.06 27.4159 354.59 27.2359 355.03 27.4159C355.47 27.5959 355.87 27.8459 356.33 28.0259C356.79 28.2059 357.08 28.6659 357.53 28.8659C357.98 29.0659 358.29 29.4259 358.73 29.6359C359.17 29.8459 359.73 29.6859 360.18 29.9059C360.63 30.1259 360.91 30.5459 361.34 30.7859C361.77 31.0259 362.34 30.8659 362.8 31.1159C363.26 31.3659 363.53 31.8459 363.94 32.1159C364.35 32.3859 365.07 32.2659 365.47 32.5459C365.87 32.8259 365.71 33.8859 366.08 34.1859C366.45 34.4859 367.08 34.5259 367.45 34.8559C367.82 35.1859 368.82 34.9259 369.15 35.2759C369.48 35.6259 369.94 35.9959 370.25 36.3659C370.56 36.7359 370.59 37.4259 370.87 37.8259C371.15 38.2259 371.13 38.8259 371.38 39.2859C371.63 39.7459 372.57 39.8159 372.78 40.2859" stroke="#4E7FFF" stroke-linecap="round"/>
<path opacity="0.15" d="M365.64 44.2758C365.43 43.8458 365.02 43.5458 364.75 43.0958C364.48 42.6458 364.75 41.9358 364.48 41.5158C364.21 41.0958 363.99 40.6458 363.66 40.2458C363.33 39.8458 362.49 39.9958 362.13 39.6158C361.77 39.2358 361.91 38.4558 361.54 38.1158C361.17 37.7758 360.54 37.7658 360.15 37.4358C359.76 37.1058 359.96 36.0458 359.54 35.7358C359.12 35.4258 358.45 35.5558 358.02 35.2758C357.59 34.9958 356.95 35.1358 356.5 34.8758C356.05 34.6158 356.14 33.5258 355.73 33.2958C355.32 33.0658 354.84 32.8658 354.43 32.6558C354.02 32.4458 353.13 33.0858 352.71 32.8858C352.29 32.6858 352.11 31.8858 351.71 31.6558C351.31 31.4258 350.85 31.1658 350.41 30.9958C349.97 30.8258 349.25 31.3158 348.82 31.1658C348.39 31.0158 347.99 30.5458 347.55 30.4058C347.11 30.2658 346.55 30.4558 346.08 30.3458C345.61 30.2358 345.32 29.2558 344.88 29.1658C344.44 29.0758 343.75 29.8758 343.3 29.8058C342.85 29.7358 342.37 29.4358 341.92 29.3958C341.925 29.4623 341.925 29.5292 341.92 29.5958" stroke="#4E7FFF" stroke-linecap="round"/>
<path opacity="0.15" d="M335.74 32.876C336.19 32.876 336.74 32.446 337.24 32.516C337.74 32.586 338 33.856 338.45 33.996C338.9 34.136 339.36 34.076 339.84 34.196C340.32 34.316 341.03 33.426 341.51 33.576C341.99 33.726 342.36 34.046 342.83 34.206C343.3 34.366 343.83 34.396 344.24 34.576C344.65 34.756 345.17 34.826 345.63 35.016C346.09 35.206 346.22 36.016 346.63 36.226L347.92 36.846C348.34 37.056 348.54 37.696 348.92 37.926C349.3 38.156 349.99 37.926 350.42 38.186C350.85 38.446 350.88 39.356 351.29 39.626C351.7 39.896 352.87 39.106 353.29 39.396C353.71 39.686 354.16 39.986 354.54 40.286C354.92 40.586 355.29 41.036 355.65 41.366C356.01 41.696 356.01 42.466 356.35 42.826C356.69 43.186 357.57 43.126 357.88 43.496C358.19 43.866 357.49 45.086 357.77 45.496C358.05 45.906 358.71 46.056 358.96 46.496C359.21 46.936 359.7 47.236 359.96 47.676" stroke="#4E7FFF" stroke-linecap="round"/>
<path opacity="0.15" d="M329.59 36.1558C330.04 36.1558 330.59 36.1558 331.06 36.1558C331.53 36.1558 331.89 36.8858 332.39 36.9858C332.89 37.0858 333.14 37.7958 333.62 37.9258C334.1 38.0558 334.76 37.2758 335.24 37.4258C335.72 37.5758 336.24 37.4758 336.69 37.6458C337.14 37.8158 337.28 38.7458 337.74 38.9258C338.2 39.1058 338.67 39.1158 339.12 39.3158C339.57 39.5158 340.3 39.0058 340.75 39.2158C341.2 39.4258 341.4 40.0558 341.84 40.2758C342.28 40.4958 342.93 40.2758 343.36 40.4958C343.79 40.7158 343.73 41.7958 344.15 42.0358C344.57 42.2758 344.95 42.6458 345.36 42.9058C345.77 43.1658 346.55 42.9558 346.95 43.2458C347.35 43.5358 347.63 44.0258 348.01 44.3358C348.39 44.6458 349.01 44.7358 349.37 45.0658C349.73 45.3958 349.47 46.4058 349.8 46.7558C350.13 47.1058 350.67 47.3058 350.98 47.6758C351.29 48.0458 351.83 48.2858 352.11 48.6758C352.39 49.0658 352.52 49.6058 352.77 50.0258C353.02 50.4458 353.88 50.5858 354.09 51.0258" stroke="#4E7FFF" stroke-linecap="round"/>
</g>
<g opacity="0.15">
<path opacity="0.15" d="M367.34 51.7057C367.77 51.8257 368.34 51.4357 368.85 51.6157C369.36 51.7957 369.85 51.6157 370.33 51.8557C370.81 52.0957 370.86 52.8557 371.33 53.1257C371.8 53.3957 372.1 53.6557 372.54 53.9057C372.98 54.1557 373.9 53.6057 374.32 53.9057C374.74 54.2057 375.19 54.4357 375.61 54.7157C376.03 54.9957 376.52 55.1957 376.93 55.4757C377.34 55.7557 377.59 56.3157 377.99 56.6157C378.39 56.9157 378.73 57.3357 379.12 57.6157C379.51 57.8957 379.56 58.6957 379.95 59.0057C380.34 59.3157 380.95 59.3557 381.35 59.6657C381.75 59.9757 382.35 60.1057 382.69 60.4257C383.03 60.7457 383.85 60.6657 384.22 60.9957C384.59 61.3257 384.92 61.7657 385.28 62.1057C385.64 62.4457 385.39 63.4557 385.73 63.8057C386.07 64.1557 386.58 64.3957 386.92 64.8057C387.26 65.2157 387.77 65.4157 388.09 65.8057C388.41 66.1957 389.09 66.3157 389.38 66.6857C389.67 67.0557 389.23 68.1657 389.53 68.5357" stroke="#4E7FFF" stroke-linecap="round"/>
<path opacity="0.15" d="M373.7 47.376C374.13 47.486 374.39 48.196 374.88 48.376C375.37 48.556 375.88 48.376 376.33 48.616C376.78 48.856 377.18 48.986 377.64 49.226C378.1 49.466 378.39 49.816 378.83 50.076C379.27 50.336 379.63 50.696 380.06 50.956C380.49 51.216 381.06 51.186 381.52 51.466C381.98 51.746 382.06 52.466 382.52 52.756C382.98 53.046 383.96 52.466 384.37 52.756C384.78 53.046 385.02 53.596 385.42 53.896C385.82 54.196 385.95 54.896 386.34 55.166C386.73 55.436 387.44 55.436 387.82 55.746C388.2 56.056 388.33 56.746 388.7 57.046C389.07 57.346 389.63 57.536 390 57.866C390.37 58.196 390.81 58.486 391.17 58.866C391.53 59.246 391.51 59.976 391.86 60.326C392.21 60.676 392.43 61.176 392.77 61.526C393.11 61.876 394.06 61.716 394.39 62.076C394.72 62.436 395.25 62.686 395.57 63.076C395.89 63.466 396.35 63.776 396.66 64.146" stroke="#4E7FFF" stroke-linecap="round"/>
<path opacity="0.15" d="M379.83 43.3057C379.83 43.3057 379.83 43.7757 379.83 43.7857C380.311 43.8836 380.785 44.0105 381.25 44.1657C381.67 44.3157 381.82 45.1657 382.25 45.3957C382.68 45.6257 383.38 45.2057 383.83 45.4457C384.28 45.6857 384.59 46.0357 385.04 46.2857C385.49 46.5357 386.28 46.1957 386.71 46.4557C387.14 46.7157 387.24 47.5257 387.71 47.7957C388.18 48.0657 388.89 47.8757 389.3 48.1557C389.71 48.4357 389.88 49.1557 390.3 49.4057C390.72 49.6557 390.64 50.6357 391.04 50.9357C391.44 51.2357 392.36 50.9357 392.75 51.1957C393.14 51.4557 393.27 52.1957 393.65 52.4857C394.03 52.7757 394.59 52.9457 394.97 53.2757C395.35 53.6057 395.73 53.9457 396.09 54.2757C396.45 54.6057 396.48 55.3457 396.84 55.6857C397.2 56.0257 398.3 55.6857 398.64 56.0057C398.98 56.3257 399.3 56.8157 399.64 57.1657C399.98 57.5157 400.14 58.1657 400.47 58.4757C400.8 58.7857 400.54 59.7757 400.86 60.1457C401.18 60.5157 401.71 60.7557 402.01 61.1457" stroke="#4E7FFF" stroke-linecap="round"/>
<path opacity="0.15" d="M386 40.4258C386.43 40.5358 386.69 41.1858 387.18 41.3658C387.67 41.5458 388.55 40.4958 389.03 40.7158C389.51 40.9358 389.3 42.3058 389.75 42.5358C390.2 42.7658 391.09 42.0758 391.53 42.3258C391.97 42.5758 392.02 43.4858 392.45 43.7458C392.88 44.0058 393.54 43.9058 393.96 44.1758C394.38 44.4458 394.63 45.0058 395.04 45.2858C395.45 45.5658 396.18 45.4258 396.59 45.7158C397 46.0058 397.1 46.7158 397.5 47.0358C397.9 47.3558 398.43 47.4858 398.82 47.7958C399.21 48.1058 399.48 48.5958 399.82 48.9158C400.16 49.2358 401.02 49.0758 401.4 49.4058C401.78 49.7358 401.97 50.2958 402.33 50.6358C402.69 50.9758 402.6 51.8358 402.95 52.1858C403.3 52.5358 403.68 52.8758 404.03 53.1858C404.38 53.4958 404.82 53.8358 405.15 54.1858C405.48 54.5358 406.15 54.6858 406.44 55.0458C406.73 55.4058 407.1 55.8358 407.44 56.1958C407.78 56.5558 408.44 56.6958 408.75 57.0658" stroke="#4E7FFF" stroke-linecap="round"/>
<path opacity="0.15" d="M392.31 36.1758C392.74 36.2858 393.19 36.6358 393.68 36.8158C394.17 36.9958 394.2 38.0058 394.68 38.2258C395.16 38.4458 395.47 38.6958 395.93 38.9358C396.39 39.1758 396.93 39.0858 397.35 39.3358C397.77 39.5858 398.09 40.0558 398.52 40.3358C398.95 40.6158 399.67 40.4058 400.08 40.6758C400.49 40.9458 401.01 41.1158 401.42 41.3958C401.83 41.6758 402.25 41.9858 402.65 42.2758C403.05 42.5658 403.25 43.1758 403.65 43.4758C404.05 43.7758 404.9 43.5258 405.29 43.8358C405.68 44.1458 405.95 44.6458 406.29 44.9658C406.63 45.2858 406.84 45.8858 407.21 46.2158C407.58 46.5458 407.65 47.2158 408.01 47.5758C408.37 47.9358 408.72 48.2958 409.08 48.6358C409.44 48.9758 410.67 48.4758 411.01 48.8158C411.35 49.1558 411.43 49.8158 411.77 50.2058C412.11 50.5958 412.63 50.8058 412.96 51.2058C413.29 51.6058 413.57 52.0558 413.89 52.4158C414.21 52.7758 414.41 53.3258 414.71 53.6958" stroke="#4E7FFF" stroke-linecap="round"/>
</g>
<path d="M118.89 140.519C118.339 140.68 117.959 141.183 117.954 141.756C117.949 142.33 118.322 142.839 118.87 143.009L167.71 171.359C169.041 172.039 170.618 172.039 171.95 171.359L210.06 149.359C210.586 149.179 210.939 148.685 210.939 148.129C210.939 147.573 210.586 147.079 210.06 146.899L161.23 118.519C159.902 117.839 158.328 117.839 157 118.519L118.89 140.519Z" fill="url(#paint30_linear)"/>
<path d="M118.87 143.009L167.71 171.359C169.041 172.039 170.619 172.039 171.95 171.359L210.06 149.359C210.579 149.151 210.94 148.674 211 148.119V148.939C210.95 149.481 210.609 149.952 210.11 150.169L172 172.179C170.67 172.849 169.1 172.849 167.77 172.179L118.87 143.789C118.382 143.568 118.05 143.102 118 142.569V141.759C118.039 142.303 118.373 142.783 118.87 143.009Z" fill="url(#paint31_linear)"/>
<path d="M154.66 45.2361C146.26 40.3861 132.66 40.3861 124.33 45.2361C116 50.0861 116 57.9961 124.43 62.8061C132.86 67.6161 146.43 67.6561 154.76 62.8061C163.09 57.9561 163.07 50.0861 154.66 45.2361Z" fill="url(#paint32_linear)"/>
<path d="M159.61 22.1157C157.61 20.9357 154.79 21.0557 151.71 22.7457C151.751 22.4374 151.771 22.1267 151.77 21.8157C151.771 20.8489 151.584 19.8912 151.22 18.9957C152.645 18.7368 154.115 18.9807 155.38 19.6857L159.61 22.1157Z" fill="url(#paint33_linear)"/>
<path d="M163 29.5162C163 36.7462 158 45.5762 151.71 49.3362V45.2362C156.01 42.6062 159.46 36.5462 159.44 31.5662C159.42 26.5862 156.02 24.5662 151.77 26.7962V22.7162C158 19.3562 163 22.3362 163 29.5162Z" fill="url(#paint34_linear)"/>
<path d="M159.43 31.5658C159.43 36.5658 156 42.5658 151.7 45.2358V38.7458C153.818 35.9635 155.032 32.5992 155.18 29.1058C155.209 28.0089 154.994 26.9192 154.55 25.9158C155.427 25.8218 156.311 26.0035 157.08 26.4358C158.53 27.2758 159.43 29.0458 159.43 31.5658Z" fill="url(#paint35_linear)"/>
<path d="M148.17 21.8056C148.17 28.5456 138.01 31.5656 131.3 31.5656C127.12 31.6492 122.989 30.6612 119.3 28.6956C115.98 26.7756 114.3 24.2456 114.3 21.6956C114.33 14.9956 124.44 11.9956 131.2 11.9956C137.96 11.9956 148.17 15.0456 148.17 21.8056Z" fill="url(#paint36_linear)"/>
<path d="M151.77 21.8358L151.67 56.3358C151.67 64.4758 139.42 68.1658 131.21 68.1658C123 68.1658 110.61 64.4358 110.61 56.2358L110.71 21.7358C110.71 29.9358 123.05 33.6658 131.31 33.6658C139.57 33.6658 151.75 29.9958 151.77 21.8358Z" fill="url(#paint37_linear)"/>
<path d="M131.17 9.88574C139.45 9.88574 151.77 13.6257 151.77 21.8157C151.77 30.0057 139.46 33.6657 131.31 33.6657C123.16 33.6657 110.71 29.9957 110.71 21.7357C110.71 13.4757 123 9.88574 131.17 9.88574ZM119.3 28.7157C122.991 30.6767 127.121 31.6645 131.3 31.5857C138.02 31.5857 148.17 28.5857 148.17 21.8057C148.17 15.0257 138 11.9957 131.19 11.9957C124.38 11.9957 114.31 14.9957 114.31 21.7457C114.31 24.2757 115.98 26.7457 119.31 28.7457L119.3 28.7157Z" fill="url(#paint38_linear)"/>
<path d="M148.17 21.8061C148.17 28.5461 138.01 31.5661 131.3 31.5661C127.12 31.6497 122.989 30.6616 119.3 28.6961C115.98 26.7761 114.3 24.2461 114.3 21.6961C114.33 14.9961 124.44 11.9961 131.2 11.9961C137.96 11.9961 148.17 15.0461 148.17 21.8061Z" fill="url(#paint39_linear)"/>
<path d="M116.65 26.7062C117.441 27.4867 118.332 28.1592 119.3 28.7062C122.989 30.6717 127.121 31.6598 131.3 31.5762C136.05 31.5762 142.51 30.0662 145.89 26.7962C146.09 26.5962 142.15 24.3062 141.8 24.1562C141.14 23.8562 140.39 23.7162 139.8 23.4162C139.006 22.8714 138.154 22.4153 137.26 22.0562C136.269 21.8687 135.251 21.8687 134.26 22.0562C132.71 22.2462 131.41 21.9762 129.9 22.0562C128.274 22.1253 126.66 22.3564 125.08 22.7462C123.459 23.1065 121.88 23.6361 120.37 24.3262C120 24.4262 116.48 26.5362 116.65 26.7062Z" fill="url(#paint40_linear)"/>
<path d="M122.46 17.2059C120.3 11.7459 124.46 4.52592 120.57 0.115925C118.99 -1.67408 116.57 -2.34407 114.5 -3.59407C111.285 -5.60022 109.251 -9.04924 109.052 -12.8337C108.853 -16.6181 110.513 -20.2615 113.5 -22.5941C116.14 -24.6441 119.6 -25.4941 122.06 -27.7541C124.28 -29.7541 125.43 -32.7541 126.81 -35.3941C128.19 -38.0341 130.11 -40.8341 133 -41.7041C135.038 -42.1919 137.178 -42.0311 139.12 -41.2441C141.002 -40.6524 142.73 -39.6518 144.18 -38.3141C149.09 -33.4841 148.09 -24.3841 153.64 -20.3141C156.36 -18.3141 160.01 -18.1041 162.96 -16.4541C167.428 -13.7969 169.425 -8.37486 167.75 -3.45407C166.27 0.545925 162.54 3.29593 158.63 4.96593C154.72 6.63593 150.49 7.45593 146.5 8.96593C145.579 9.24464 144.727 9.71491 144 10.3459C142.46 11.8859 142.56 14.3459 141.81 16.4359C140.81 19.1859 138.3 21.0659 135.92 22.7759C134.92 23.4959 132.58 25.9559 131.38 25.9863C130.18 26.0159 129.12 24.4159 128.26 23.6559C126.08 21.7359 123.57 19.9959 122.46 17.2059Z" fill="url(#paint41_linear)"/>
<path d="M151.77 21.8359V22.7159C151.751 22.7091 151.729 22.7091 151.71 22.7159C151.749 22.4242 151.769 22.1303 151.77 21.8359Z" fill="url(#paint42_linear)"/>
<path d="M241.76 102.266C230.76 108.636 230.67 118.966 241.63 125.336C252.59 131.706 270.42 131.706 281.45 125.336C292.48 118.966 292.55 108.636 281.59 102.266C270.63 95.8958 252.8 95.8958 241.76 102.266Z" fill="url(#paint43_linear)"/>
<path d="M227.09 107.526V115.116C227.09 119.266 229.82 123.406 235.27 126.566C246.27 132.936 264.06 132.936 275.09 126.566C280.64 123.366 283.42 119.156 283.41 114.946V107.366C283.41 111.566 280.64 115.776 275.09 118.986C264.09 125.346 246.23 125.346 235.27 118.986C229.83 115.816 227.11 111.676 227.09 107.526Z" fill="url(#paint44_linear)"/>
<path d="M235.41 95.9154C224.41 102.285 224.32 112.615 235.28 118.975C246.24 125.335 264.07 125.345 275.1 118.975C286.13 112.605 286.19 102.265 275.23 95.8954C264.27 89.5254 246.44 89.5454 235.41 95.9154Z" fill="url(#paint45_linear)"/>
<path d="M255.15 102.586C254.625 102.557 254.115 102.395 253.67 102.116C253.119 101.784 252.623 101.369 252.2 100.886V107.516L255.2 109.216L255.15 102.586Z" fill="url(#paint46_linear)"/>
<path d="M255.13 109.216L258.06 107.516L258.08 100.886L255.15 102.586L255.13 109.216Z" fill="url(#paint47_linear)"/>
<path d="M256.48 90.9258C257.279 90.549 258.22 90.6411 258.93 91.1658C260.96 92.4823 262.238 94.6898 262.37 97.1058C262.457 97.9684 262.075 98.8114 261.37 99.3158L253.3 103.996C254.007 103.493 254.389 102.649 254.3 101.786C254.191 99.3496 252.914 97.1155 250.87 95.7858C250.156 95.2695 249.22 95.1778 248.42 95.5458L256.48 90.9258Z" fill="url(#paint48_linear)"/>
<path d="M250.87 95.8458C248.97 94.7558 247.42 95.6358 247.42 97.8458C247.525 100.281 248.798 102.515 250.84 103.846C252.75 104.946 254.3 104.066 254.3 101.846C254.191 99.4096 252.914 97.1755 250.87 95.8458Z" fill="url(#paint49_linear)"/>
<path d="M227.2 33.0654C226.581 33.7796 225.547 33.9631 224.72 33.5054L250.72 94.4054C251.338 93.6964 252.366 93.5132 253.19 93.9654L227.2 33.0654Z" fill="url(#paint50_linear)"/>
<path d="M253.22 93.9657L256.15 92.2657L230.13 31.3657L227.2 33.0757L253.22 93.9657Z" fill="url(#paint51_linear)"/>
<path d="M276.78 50.6956C273.33 50.6956 271.32 48.6456 271.32 44.8456C271.32 31.7156 292.7 8.99561 304.57 8.99561C308 8.99561 310 11.0856 310 14.8756C310 27.9956 288.68 50.6956 276.78 50.6956ZM307.5 20.3856C307.906 19.0658 308.128 17.6962 308.16 16.3156C308.16 12.8856 306.34 11.0256 303.23 11.0256C292.45 11.0256 273.23 31.5756 273.23 43.4056C273.23 46.8356 275.04 48.6956 278.15 48.6956C287.37 48.6956 303.82 32.9956 307.5 20.3856Z" fill="url(#paint52_linear)"/>
<path d="M227.07 22.0755C227.869 21.7031 228.808 21.795 229.52 22.3155C231.565 23.644 232.843 25.8788 232.95 28.3155C233.039 29.1757 232.657 30.0171 231.95 30.5155L223.88 35.1555C224.585 34.6511 224.967 33.8081 224.88 32.9455C224.763 30.5094 223.483 28.2776 221.44 26.9455C220.72 26.4473 219.788 26.3747 219 26.7555L227.07 22.0755Z" fill="url(#paint53_linear)"/>
<path d="M221.45 26.9957C219.55 25.9057 218 26.7857 218 28.9957C218.128 31.4103 219.403 33.6181 221.43 34.9357C223.33 36.0257 224.88 35.1557 224.89 32.9357C224.754 30.5211 223.476 28.3156 221.45 26.9957Z" fill="url(#paint54_linear)"/>
<path d="M226.22 27.1655C227.053 28.2837 227.564 29.6079 227.7 30.9955L265.32 27.5055V23.8055L262.37 22.1055V23.8155L226.22 27.1655Z" fill="url(#paint55_linear)"/>
<path d="M262.38 23.8155L265.31 22.1055L229.15 25.4655L226.22 27.1655L262.38 23.8155Z" fill="url(#paint56_linear)"/>
<path d="M304.57 8.99552C305.94 8.92791 307.286 9.37763 308.34 10.2555C301.63 4.49552 294 0.855496 285.09 0.855496C282.546 0.851865 280.014 1.20875 277.57 1.91552C271.24 3.76552 262.73 13.1455 261.57 19.7055C261.274 21.2744 261.136 22.8691 261.16 24.4655C261.16 34.1655 266.05 43.1055 273.06 49.4655C271.861 48.2506 271.245 46.5776 271.37 44.8755C271.32 31.7555 292.64 8.99552 304.57 8.99552Z" fill="url(#paint57_linear)"/>
<path d="M249.13 5.25563C249.148 -0.384246 252.479 -5.48676 257.635 -7.77213C262.791 -10.0575 268.809 -9.0988 273 -5.32437L280.32 1.27563C279.38 1.44563 278.47 1.66563 277.55 1.91563C271.23 3.76563 262.72 13.1456 261.55 19.7056C261.35 21.0256 261.25 21.8056 261.2 22.5056L253.88 15.9056C253.78 15.8224 253.69 15.7285 253.61 15.6256C253.69 15.7285 253.78 15.8224 253.88 15.9056C250.847 13.1979 249.118 9.32145 249.13 5.25563Z" fill="url(#paint58_linear)"/>
<path d="M307.5 20.3854C303.82 32.9954 287.37 48.6954 278.11 48.6954C275 48.6954 273.19 46.8354 273.19 43.4054C273.19 31.5754 292.45 11.0254 303.19 11.0254C306.3 11.0254 308.12 12.8854 308.12 16.3154C308.088 17.696 307.866 19.0656 307.46 20.3854" fill="white"/>
<path d="M291.32 16.2856C297.817 17.1069 302.674 22.656 302.628 29.2046C302.582 35.7533 297.647 41.2334 291.139 41.9631C284.631 42.6927 278.605 38.4415 277.11 32.0656C280.839 25.9784 285.655 20.6294 291.32 16.2856Z" fill="url(#paint59_linear)"/>
<path d="M443 95.9961L487.34 121.576H399L443 95.9961ZM443 104.996L425.53 115.206H460.75L443.08 104.996H443Z" fill="url(#paint60_linear)"/>
<path d="M452.75 113.206H447.09L435.07 106.266L435.08 103.006L452.75 113.206Z" fill="url(#paint61_linear)"/>
<path d="M435.08 103.006L435.07 106.266L423.13 113.206H417.53L435.08 103.006Z" fill="url(#paint62_linear)"/>
<path d="M435 93.9961L479.34 119.576H391L435 93.9961ZM435 102.996L417.53 113.206H452.75L435.08 102.996H435Z" fill="url(#paint63_linear)"/>
<path d="M479.34 119.576L479.33 122.836H391L391.01 119.576H479.34Z" fill="url(#paint64_linear)"/>
<path d="M470.84 116.296L469.42 115.486L467.31 116.706L468.73 117.526L470.84 116.296Z" fill="url(#paint65_linear)"/>
<path d="M462.78 111.646L461.36 110.826L459.25 112.056L460.67 112.876L462.78 111.646Z" fill="url(#paint66_linear)"/>
<path d="M454.72 106.996L453.3 106.176L451.19 107.406L452.6 108.216L454.72 106.996Z" fill="url(#paint67_linear)"/>
<path d="M446.65 102.336L445.24 101.516L443.12 102.746L444.54 103.566L446.65 102.336Z" fill="url(#paint68_linear)"/>
<path d="M438.59 97.6862L437.17 96.8662L435.06 98.0862L436.48 98.9062L438.59 97.6862Z" fill="url(#paint69_linear)"/>
<path d="M564.7 37.5058L563.44 36.7758C562.109 36.0956 560.532 36.0956 559.2 36.7758L556.87 38.1358L555.59 37.3858L531.49 51.3858L531 51.1158L509.51 63.6058L510.07 63.9258L505.29 70.3158L507 71.3158L518 68.5258L518.56 68.8558L540.06 56.3558L539.58 56.0858L563.68 42.0858L562.39 41.3458L564.72 39.9958C565.246 39.8159 565.599 39.3216 565.599 38.7658C565.599 38.21 565.246 37.7157 564.72 37.5358" fill="url(#paint70_linear)"/>
<path d="M548.89 35.8756C548.094 35.3163 547.059 35.2285 546.18 35.6456L521.48 49.9956C522.36 49.5848 523.392 49.6724 524.19 50.2256C526.523 51.686 528.011 54.1791 528.19 56.9256C528.298 57.939 527.841 58.93 527 59.5056L551.7 45.1556C552.518 44.5656 552.951 43.5772 552.83 42.5756C552.662 39.8413 551.198 37.3519 548.89 35.8756Z" fill="url(#paint71_linear)"/>
<path d="M508.31 71.2858C510.053 70.2731 510.051 67.0171 508.306 64.0135C506.561 61.0099 503.733 59.3961 501.99 60.4089C500.247 61.4216 500.249 64.6776 501.994 67.6812C503.74 70.6848 506.567 72.2986 508.31 71.2858Z" fill="url(#paint72_linear)"/>
<path d="M524.18 49.5756C523.27 48.9359 522.087 48.8329 521.08 49.3056L502 60.4056C503.007 59.9329 504.19 60.0359 505.1 60.6756C507.746 62.3576 509.427 65.2057 509.62 68.3356C509.761 69.4829 509.262 70.6153 508.32 71.2856L527.41 60.1956C528.364 59.512 528.863 58.3588 528.71 57.1956C528.506 54.0773 526.822 51.2449 524.18 49.5756Z" fill="url(#paint73_linear)"/>
<path d="M505.09 61.3256C503.71 60.5556 502.5 60.7156 501.83 61.5856L495.51 69.7356C495.745 69.4787 496.138 69.448 496.41 69.6656C497.053 70.0694 497.462 70.7579 497.51 71.5156C497.51 71.9756 497.31 72.2556 497 72.2956L507.21 70.8456C508.33 70.6856 509.07 69.6656 509.05 68.0256C508.88 65.2866 507.408 62.795 505.09 61.3256Z" fill="url(#paint74_linear)"/>
<path d="M497.192 72.2261C497.669 71.9487 497.714 71.1353 497.292 70.4095C496.871 69.6837 496.142 69.3202 495.664 69.5977C495.187 69.8752 495.141 70.6885 495.563 71.4143C495.985 72.1402 496.714 72.5036 497.192 72.2261Z" fill="url(#paint75_linear)"/>
<path d="M494.56 70.6957C494.322 70.8326 494.143 71.0538 494.06 71.3157C493.914 71.761 494.058 72.2503 494.422 72.5455C494.786 72.8407 495.294 72.8805 495.7 72.6457L497 71.8957C497.162 71.77 497.249 71.5701 497.23 71.3657C497.191 70.807 496.89 70.2995 496.42 69.9957C496.254 69.8836 496.043 69.8647 495.86 69.9457L494.56 70.7057" fill="url(#paint76_linear)"/>
<path d="M544.89 38.3757L532.07 45.8257L528.13 43.5457L540.95 36.0957L544.89 38.3757Z" fill="url(#paint77_linear)"/>
<path d="M544.89 38.3755V40.3255L532.07 47.7755V45.8255L544.89 38.3755Z" fill="url(#paint78_linear)"/>
<path d="M532.07 45.8259V47.7759L528.12 45.4959L528.13 43.5459L532.07 45.8259Z" fill="url(#paint79_linear)"/>
</g>
<defs>
<radialGradient id="paint0_radial" cx="0" cy="0" r="1" gradientUnits="userSpaceOnUse" gradientTransform="rotate(45) scale(800.445 437.613)">
<stop stop-color="#2B75CC"/>
<stop offset="1" stop-color="#3692FF"/>
</radialGradient>
<radialGradient id="paint1_radial" cx="0" cy="0" r="1" gradientUnits="userSpaceOnUse" gradientTransform="rotate(45) scale(800.445 437.613)">
<stop stop-color="#2B75CC"/>
<stop offset="1" stop-color="#3692FF"/>
</radialGradient>
<linearGradient id="paint2_linear" x1="-59.5501" y1="100.145" x2="-13.0594" y2="74.2948" gradientUnits="userSpaceOnUse">
<stop stop-color="#292376"/>
<stop offset="1" stop-color="#5D278F" stop-opacity="0"/>
</linearGradient>
<linearGradient id="paint3_linear" x1="-123" y1="93.9856" x2="4.47022" y2="93.9856" gradientUnits="userSpaceOnUse">
<stop stop-color="#DBF9EA"/>
<stop offset="1" stop-color="#C0DDE2"/>
</linearGradient>
<linearGradient id="paint4_linear" x1="9.52" y1="107.026" x2="-125.82" y2="107.026" gradientUnits="userSpaceOnUse">
<stop stop-color="#DBF9EA"/>
<stop offset="1" stop-color="#C0DDE2"/>
</linearGradient>
<linearGradient id="paint5_linear" x1="37.1196" y1="61.5238" x2="-45.1459" y2="73.7646" gradientUnits="userSpaceOnUse">
<stop stop-color="#5D278F" stop-opacity="0"/>
<stop offset="1" stop-color="#292376"/>
</linearGradient>
<linearGradient id="paint6_linear" x1="-15.6804" y1="14.5096" x2="3.04047" y2="11.4206" gradientUnits="userSpaceOnUse">
<stop stop-color="#DBF9EA"/>
<stop offset="1" stop-color="#C0DDE2"/>
</linearGradient>
<linearGradient id="paint7_linear" x1="-15.6804" y1="14.5096" x2="3.04047" y2="11.4206" gradientUnits="userSpaceOnUse">
<stop stop-color="#DBF9EA"/>
<stop offset="1" stop-color="#C0DDE2"/>
</linearGradient>
<linearGradient id="paint8_linear" x1="-23.29" y1="9.77571" x2="19.77" y2="9.77571" gradientUnits="userSpaceOnUse">
<stop stop-color="#DBF9EA"/>
<stop offset="1" stop-color="#C0DDE2"/>
</linearGradient>
<linearGradient id="paint9_linear" x1="29.3697" y1="51.3759" x2="-68.9876" y2="58.1161" gradientUnits="userSpaceOnUse">
<stop stop-color="#DBF9EA"/>
<stop offset="1" stop-color="#C0DDE2"/>
</linearGradient>
<linearGradient id="paint10_linear" x1="-48.369" y1="48.4558" x2="-5.79533" y2="41.4382" gradientUnits="userSpaceOnUse">
<stop stop-color="#DBF9EA"/>
<stop offset="1" stop-color="#C0DDE2"/>
</linearGradient>
<linearGradient id="paint11_linear" x1="53.5899" y1="-9.64417" x2="-104.21" y2="-9.64417" gradientUnits="userSpaceOnUse">
<stop stop-color="#DBF9EA"/>
<stop offset="1" stop-color="#C0DDE2"/>
</linearGradient>
<linearGradient id="paint12_linear" x1="-80.0002" y1="35.6056" x2="54.1298" y2="35.6056" gradientUnits="userSpaceOnUse">
<stop stop-color="#DBF9EA"/>
<stop offset="1" stop-color="#C0DDE2"/>
</linearGradient>
<linearGradient id="paint13_linear" x1="-68.0733" y1="-68.4441" x2="58.875" y2="4.85309" gradientUnits="userSpaceOnUse">
<stop stop-color="#5D278F"/>
<stop offset="1" stop-color="#292376"/>
</linearGradient>
<linearGradient id="paint14_linear" x1="-66.9025" y1="-64.0543" x2="52.486" y2="4.87419" gradientUnits="userSpaceOnUse">
<stop stop-color="#25E581"/>
<stop offset="1" stop-color="#C4E138"/>
</linearGradient>
<linearGradient id="paint15_linear" x1="22.49" y1="135.59" x2="64.2072" y2="122.985" gradientUnits="userSpaceOnUse">
<stop stop-color="#292376"/>
<stop offset="1" stop-color="#5D278F" stop-opacity="0"/>
</linearGradient>
<linearGradient id="paint16_linear" x1="55.6302" y1="130.811" x2="12.5267" y2="140.81" gradientUnits="userSpaceOnUse">
<stop stop-color="#DBF9EA"/>
<stop offset="0.97" stop-color="white"/>
</linearGradient>
<linearGradient id="paint17_linear" x1="19.0802" y1="131.925" x2="52.8141" y2="126.753" gradientUnits="userSpaceOnUse">
<stop stop-color="#DBF9EA"/>
<stop offset="0.97" stop-color="white"/>
</linearGradient>
<linearGradient id="paint18_linear" x1="313" y1="42.2657" x2="401.7" y2="42.2657" gradientUnits="userSpaceOnUse">
<stop stop-color="#292376"/>
<stop offset="1" stop-color="#5D278F" stop-opacity="0"/>
</linearGradient>
<linearGradient id="paint19_linear" x1="350.13" y1="63.1758" x2="438.83" y2="63.1758" gradientUnits="userSpaceOnUse">
<stop stop-color="#292376"/>
<stop offset="1" stop-color="#5D278F" stop-opacity="0"/>
</linearGradient>
<linearGradient id="paint20_linear" x1="305" y1="41.2657" x2="393.7" y2="41.2657" gradientUnits="userSpaceOnUse">
<stop stop-color="#5DDF8F"/>
<stop offset="1" stop-color="#63B7C9"/>
</linearGradient>
<linearGradient id="paint21_linear" x1="337.32" y1="50.6258" x2="393.82" y2="50.6258" gradientUnits="userSpaceOnUse">
<stop stop-color="#5DDF8F"/>
<stop offset="1" stop-color="#63B7C9"/>
</linearGradient>
<linearGradient id="paint22_linear" x1="337.43" y1="53.2559" x2="398.39" y2="53.2559" gradientUnits="userSpaceOnUse">
<stop stop-color="#5DDF8F"/>
<stop offset="1" stop-color="#63B7C9"/>
</linearGradient>
<linearGradient id="paint23_linear" x1="344.18" y1="57.7256" x2="401.19" y2="57.7256" gradientUnits="userSpaceOnUse">
<stop stop-color="#5DDF8F"/>
<stop offset="1" stop-color="#63B7C9"/>
</linearGradient>
<linearGradient id="paint24_linear" x1="305" y1="71.2154" x2="374.45" y2="71.2154" gradientUnits="userSpaceOnUse">
<stop stop-color="#5DDF8F"/>
<stop offset="1" stop-color="#63B7C9"/>
</linearGradient>
<linearGradient id="paint25_linear" x1="374.28" y1="74.8855" x2="430.83" y2="74.8855" gradientUnits="userSpaceOnUse">
<stop stop-color="#5DDF8F"/>
<stop offset="1" stop-color="#63B7C9"/>
</linearGradient>
<linearGradient id="paint26_linear" x1="342.13" y1="62.7058" x2="430.83" y2="62.7058" gradientUnits="userSpaceOnUse">
<stop stop-color="#5DDF8F"/>
<stop offset="1" stop-color="#63B7C9"/>
</linearGradient>
<linearGradient id="paint27_linear" x1="416.17" y1="46.0297" x2="341.756" y2="26.5092" gradientUnits="userSpaceOnUse">
<stop stop-color="#FFEDE0"/>
<stop offset="0.97" stop-color="white"/>
</linearGradient>
<linearGradient id="paint28_linear" x1="313.98" y1="58.1305" x2="383.185" y2="86.909" gradientUnits="userSpaceOnUse">
<stop stop-color="#FFEDE0"/>
<stop offset="0.97" stop-color="white"/>
</linearGradient>
<linearGradient id="paint29_linear" x1="427.15" y1="64.0493" x2="372.763" y2="43.3967" gradientUnits="userSpaceOnUse">
<stop stop-color="#FFEDE0"/>
<stop offset="0.97" stop-color="white"/>
</linearGradient>
<linearGradient id="paint30_linear" x1="210.95" y1="144.939" x2="118" y2="144.939" gradientUnits="userSpaceOnUse">
<stop stop-color="#00A8FF"/>
<stop offset="1" stop-color="#1FEAEC"/>
</linearGradient>
<linearGradient id="paint31_linear" x1="210.95" y1="157.219" x2="118" y2="157.219" gradientUnits="userSpaceOnUse">
<stop stop-color="#DBF9EA"/>
<stop offset="1" stop-color="#C0DDE2"/>
</linearGradient>
<linearGradient id="paint32_linear" x1="121.89" y1="56.0754" x2="158.38" y2="43.3615" gradientUnits="userSpaceOnUse">
<stop stop-color="#292376"/>
<stop offset="1" stop-color="#5D278F" stop-opacity="0"/>
</linearGradient>
<linearGradient id="paint33_linear" x1="151.22" y1="20.8057" x2="159.61" y2="20.8057" gradientUnits="userSpaceOnUse">
<stop stop-color="#292376"/>
<stop offset="1" stop-color="#5D278F"/>
</linearGradient>
<linearGradient id="paint34_linear" x1="156.624" y1="35.5162" x2="160.037" y2="34.0872" gradientUnits="userSpaceOnUse">
<stop stop-color="#5D278F"/>
<stop offset="1" stop-color="#292376"/>
</linearGradient>
<linearGradient id="paint35_linear" x1="154.764" y1="42.2458" x2="160.34" y2="32.1544" gradientUnits="userSpaceOnUse">
<stop stop-color="#292376"/>
<stop offset="1" stop-color="#5D278F"/>
</linearGradient>
<linearGradient id="paint36_linear" x1="131.24" y1="32.7956" x2="131.24" y2="11.9156" gradientUnits="userSpaceOnUse">
<stop stop-color="#DBF9EA"/>
<stop offset="0.97" stop-color="white"/>
</linearGradient>
<linearGradient id="paint37_linear" x1="110.61" y1="44.9458" x2="151.77" y2="44.9458" gradientUnits="userSpaceOnUse">
<stop stop-color="#5D278F"/>
<stop offset="1" stop-color="#292376"/>
</linearGradient>
<linearGradient id="paint38_linear" x1="110.71" y1="21.7757" x2="151.77" y2="21.7757" gradientUnits="userSpaceOnUse">
<stop stop-color="#DBF9EA"/>
<stop offset="0.97" stop-color="white"/>
</linearGradient>
<linearGradient id="paint39_linear" x1="145.47" y1="21.7861" x2="105.29" y2="21.7861" gradientUnits="userSpaceOnUse">
<stop stop-color="#DBF9EA" stop-opacity="0"/>
<stop offset="1" stop-color="#8CCACE"/>
</linearGradient>
<linearGradient id="paint40_linear" x1="143.57" y1="26.7562" x2="108.84" y2="26.7562" gradientUnits="userSpaceOnUse">
<stop stop-color="#D1985C"/>
<stop offset="1" stop-color="#534741"/>
</linearGradient>
<linearGradient id="paint41_linear" x1="138.67" y1="-40.0141" x2="138.67" y2="26.1263" gradientUnits="userSpaceOnUse">
<stop stop-color="white" stop-opacity="0.25"/>
<stop offset="1" stop-color="#DBF9EA" stop-opacity="0"/>
</linearGradient>
<linearGradient id="paint42_linear" x1="151.738" y1="22.2847" x2="151.742" y2="22.2847" gradientUnits="userSpaceOnUse">
<stop stop-color="#5D278F"/>
<stop offset="1" stop-color="#292376"/>
</linearGradient>
<linearGradient id="paint43_linear" x1="236.74" y1="112.866" x2="294.442" y2="119.322" gradientUnits="userSpaceOnUse">
<stop stop-color="#292376"/>
<stop offset="1" stop-color="#5D278F" stop-opacity="0"/>
</linearGradient>
<linearGradient id="paint44_linear" x1="294.12" y1="120.223" x2="224.579" y2="107.861" gradientUnits="userSpaceOnUse">
<stop stop-color="#FBB03B"/>
<stop offset="1" stop-color="#F15A24"/>
</linearGradient>
<linearGradient id="paint45_linear" x1="66.0001" y1="106.504" x2="8.29944" y2="112.971" gradientUnits="userSpaceOnUse">
<stop stop-color="#FBB03B"/>
<stop offset="1" stop-color="#F15A24"/>
</linearGradient>
<linearGradient id="paint46_linear" x1="254.071" y1="98.2357" x2="249.423" y2="109.188" gradientUnits="userSpaceOnUse">
<stop stop-color="#FEF100"/>
<stop offset="1" stop-color="#B0E021"/>
</linearGradient>
<linearGradient id="paint47_linear" x1="229.072" y1="107.706" x2="233.096" y2="103.764" gradientUnits="userSpaceOnUse">
<stop stop-color="#FEF100"/>
<stop offset="1" stop-color="#B0E021"/>
</linearGradient>
<linearGradient id="paint48_linear" x1="34.0099" y1="97.3458" x2="47.9599" y2="97.3458" gradientUnits="userSpaceOnUse">
<stop stop-color="#FBB03B"/>
<stop offset="1" stop-color="#F15A24"/>
</linearGradient>
<linearGradient id="paint49_linear" x1="42.0799" y1="99.8058" x2="48.9699" y2="99.8058" gradientUnits="userSpaceOnUse">
<stop stop-color="#FBB03B"/>
<stop offset="1" stop-color="#F15A24"/>
</linearGradient>
<linearGradient id="paint50_linear" x1="236.005" y1="36.1154" x2="261.84" y2="88.1489" gradientUnits="userSpaceOnUse">
<stop stop-color="#B0E021"/>
<stop offset="1" stop-color="#FEF100"/>
</linearGradient>
<linearGradient id="paint51_linear" x1="198.913" y1="71.7857" x2="216.959" y2="59.1024" gradientUnits="userSpaceOnUse">
<stop stop-color="#B0E021"/>
<stop offset="1" stop-color="#FEF100"/>
</linearGradient>
<linearGradient id="paint52_linear" x1="274.158" y1="42.6256" x2="313.962" y2="16.1524" gradientUnits="userSpaceOnUse">
<stop stop-color="#F3D7C3"/>
<stop offset="0.97" stop-color="white"/>
</linearGradient>
<linearGradient id="paint53_linear" x1="63.43" y1="28.4955" x2="77.38" y2="28.4955" gradientUnits="userSpaceOnUse">
<stop stop-color="#FBB03B"/>
<stop offset="1" stop-color="#F15A24"/>
</linearGradient>
<linearGradient id="paint54_linear" x1="71.49" y1="30.9557" x2="78.38" y2="30.9557" gradientUnits="userSpaceOnUse">
<stop stop-color="#FBB03B"/>
<stop offset="1" stop-color="#F15A24"/>
</linearGradient>
<linearGradient id="paint55_linear" x1="31.05" y1="26.5355" x2="70.16" y2="26.5355" gradientUnits="userSpaceOnUse">
<stop stop-color="#B0E021"/>
<stop offset="1" stop-color="#FEF100"/>
</linearGradient>
<linearGradient id="paint56_linear" x1="65.41" y1="24.6703" x2="30.7337" y2="19.795" gradientUnits="userSpaceOnUse">
<stop stop-color="#B0E021"/>
<stop offset="1" stop-color="#FEF100"/>
</linearGradient>
<linearGradient id="paint57_linear" x1="256.646" y1="37.5755" x2="303.878" y2="9.45063" gradientUnits="userSpaceOnUse">
<stop stop-color="#FBB03B"/>
<stop offset="1" stop-color="#F15A24"/>
</linearGradient>
<linearGradient id="paint58_linear" x1="251.635" y1="13.9156" x2="276.382" y2="-7.60813" gradientUnits="userSpaceOnUse">
<stop stop-color="#FEF100"/>
<stop offset="1" stop-color="#B0E021"/>
</linearGradient>
<linearGradient id="paint59_linear" x1="308.4" y1="22.5156" x2="270.923" y2="37.156" gradientUnits="userSpaceOnUse">
<stop stop-color="#F1FFFF"/>
<stop offset="0.97" stop-color="#F1EC83"/>
</linearGradient>
<linearGradient id="paint60_linear" x1="423.2" y1="110.626" x2="468.785" y2="86.8088" gradientUnits="userSpaceOnUse">
<stop stop-color="#292376"/>
<stop offset="1" stop-color="#5D278F" stop-opacity="0"/>
</linearGradient>
<linearGradient id="paint61_linear" x1="435.07" y1="108.106" x2="452.75" y2="108.106" gradientUnits="userSpaceOnUse">
<stop stop-color="#E76384"/>
<stop offset="1" stop-color="#FBB78E"/>
</linearGradient>
<linearGradient id="paint62_linear" x1="419.78" y1="109.812" x2="439.404" y2="99.1878" gradientUnits="userSpaceOnUse">
<stop stop-color="#E76384"/>
<stop offset="1" stop-color="#FBB78E"/>
</linearGradient>
<linearGradient id="paint63_linear" x1="391.01" y1="106.786" x2="479.34" y2="106.786" gradientUnits="userSpaceOnUse">
<stop stop-color="#D9E021"/>
<stop offset="1" stop-color="#F7931E"/>
</linearGradient>
<linearGradient id="paint64_linear" x1="391" y1="121.206" x2="479.34" y2="121.206" gradientUnits="userSpaceOnUse">
<stop stop-color="#E76384"/>
<stop offset="1" stop-color="#FBB78E"/>
</linearGradient>
<linearGradient id="paint65_linear" x1="478.24" y1="118.029" x2="437.664" y2="97.8498" gradientUnits="userSpaceOnUse">
<stop stop-color="#534741"/>
<stop offset="1" stop-color="#D1985C"/>
</linearGradient>
<linearGradient id="paint66_linear" x1="478.5" y1="114.784" x2="437.894" y2="94.589" gradientUnits="userSpaceOnUse">
<stop stop-color="#534741"/>
<stop offset="1" stop-color="#D1985C"/>
</linearGradient>
<linearGradient id="paint67_linear" x1="478.76" y1="111.481" x2="438.184" y2="91.3017" gradientUnits="userSpaceOnUse">
<stop stop-color="#534741"/>
<stop offset="1" stop-color="#D1985C"/>
</linearGradient>
<linearGradient id="paint68_linear" x1="479.01" y1="108.266" x2="438.404" y2="88.0714" gradientUnits="userSpaceOnUse">
<stop stop-color="#534741"/>
<stop offset="1" stop-color="#D1985C"/>
</linearGradient>
<linearGradient id="paint69_linear" x1="479.27" y1="104.936" x2="438.694" y2="84.7569" gradientUnits="userSpaceOnUse">
<stop stop-color="#534741"/>
<stop offset="1" stop-color="#D1985C"/>
</linearGradient>
<linearGradient id="paint70_linear" x1="505.29" y1="53.7858" x2="565.59" y2="53.7858" gradientUnits="userSpaceOnUse">
<stop stop-color="#292376"/>
<stop offset="1" stop-color="#5D278F" stop-opacity="0"/>
</linearGradient>
<linearGradient id="paint71_linear" x1="521.48" y1="47.4456" x2="552.84" y2="47.4456" gradientUnits="userSpaceOnUse">
<stop stop-color="#C0DDE2"/>
<stop offset="1" stop-color="#DBF9EA"/>
</linearGradient>
<linearGradient id="paint72_linear" x1="502.895" y1="64.5555" x2="507.402" y2="64.5555" gradientUnits="userSpaceOnUse">
<stop stop-color="#FBB78E"/>
<stop offset="1" stop-color="#E76384"/>
</linearGradient>
<linearGradient id="paint73_linear" x1="501.99" y1="60.1456" x2="528.71" y2="60.1456" gradientUnits="userSpaceOnUse">
<stop stop-color="#FBB78E"/>
<stop offset="1" stop-color="#E76384"/>
</linearGradient>
<linearGradient id="paint74_linear" x1="495.51" y1="66.5656" x2="509.05" y2="66.5656" gradientUnits="userSpaceOnUse">
<stop stop-color="white"/>
<stop offset="1" stop-color="#DBF9EA"/>
</linearGradient>
<linearGradient id="paint75_linear" x1="495.848" y1="70.6191" x2="497.038" y2="70.6872" gradientUnits="userSpaceOnUse">
<stop stop-color="white"/>
<stop offset="1" stop-color="#DBF9EA"/>
</linearGradient>
<linearGradient id="paint76_linear" x1="494" y1="71.3457" x2="497.23" y2="71.3457" gradientUnits="userSpaceOnUse">
<stop stop-color="#5D278F"/>
<stop offset="1" stop-color="#292376"/>
</linearGradient>
<linearGradient id="paint77_linear" x1="528.13" y1="40.9657" x2="544.89" y2="40.9657" gradientUnits="userSpaceOnUse">
<stop stop-color="#FBB78E"/>
<stop offset="1" stop-color="#E76384"/>
</linearGradient>
<linearGradient id="paint78_linear" x1="532.07" y1="43.0755" x2="544.89" y2="43.0755" gradientUnits="userSpaceOnUse">
<stop stop-color="#FBB78E"/>
<stop offset="1" stop-color="#E76384"/>
</linearGradient>
<linearGradient id="paint79_linear" x1="528.12" y1="45.6559" x2="532.07" y2="45.6559" gradientUnits="userSpaceOnUse">
<stop stop-color="#FBB78E"/>
<stop offset="1" stop-color="#E76384"/>
</linearGradient>
</defs>
</svg>
