<svg width="566" height="173" viewBox="0 0 566 173" fill="none" xmlns="http://www.w3.org/2000/svg">
<mask id="mask0" mask-type="alpha" maskUnits="userSpaceOnUse" x="0" y="0" width="566" height="173">
<path d="M562 0H4C1.79086 0 0 1.79087 0 4.00001V169C0 171.209 1.79086 173 4 173H562C564.209 173 566 171.209 566 169V4C566 1.79086 564.209 0 562 0Z" fill="url(#paint0_radial)"/>
</mask>
<g mask="url(#mask0)">
<path d="M566 0H0V173H566V0Z" fill="url(#paint1_radial)"/>
<path d="M532.54 118.54L438.89 64.4801C437.116 63.5704 435.013 63.5704 433.24 64.4801L407.86 79.2201C406.31 80.1301 406.32 81.5901 407.86 82.5001L501.51 136.56C503.283 137.47 505.386 137.47 507.16 136.56L532.53 121.82C534.09 120.91 534.08 119.44 532.53 118.54" fill="url(#paint2_linear)"/>
<path d="M524.24 111.27C525.82 112.19 525.88 113.91 524.36 115.12L499.62 134.89C497.996 136.109 495.827 136.317 494 135.43L399.22 80.71C397.64 79.8 397.59 78.07 399.11 76.86L423.85 57.09C425.474 55.8693 427.644 55.6607 429.47 56.55L524.24 111.27Z" fill="url(#paint3_linear)"/>
<path d="M525.44 112.87C525.518 113.761 525.104 114.623 524.36 115.12L499.62 134.89C497.996 136.109 495.827 136.317 494 135.43L399.22 80.7101C398.59 80.3968 398.139 79.81 398 79.1201L398.45 82.1201C398.581 82.808 399.024 83.3957 399.65 83.7101L494.44 138.39C496.271 139.281 498.446 139.068 500.07 137.84L524.81 118.08C525.555 117.58 525.969 116.714 525.89 115.82L525.44 112.87Z" fill="url(#paint4_linear)"/>
<path d="M482.33 90.47C482.526 90.5596 482.651 90.7549 482.651 90.97C482.651 91.185 482.526 91.3804 482.33 91.47L460.36 109C459.954 109.302 459.414 109.352 458.96 109.13L403.88 77.34C403.677 77.2571 403.544 77.0594 403.544 76.84C403.544 76.6205 403.677 76.4229 403.88 76.34L425.88 58.77C426.289 58.4693 426.83 58.4156 427.29 58.63L482.33 90.47Z" fill="url(#paint5_linear)"/>
<path d="M482.63 90.8699C482.649 91.0946 482.546 91.3119 482.36 91.4399L460.36 109C459.955 109.302 459.414 109.352 458.96 109.13L403.88 77.3399C403.721 77.2637 403.609 77.1143 403.58 76.9399L403.8 78.3999C403.832 78.5706 403.943 78.7157 404.1 78.7899L459.18 110.59C459.634 110.812 460.175 110.762 460.58 110.46L482.58 92.8899C482.766 92.7619 482.869 92.5446 482.85 92.3199L482.63 90.8699Z" fill="url(#paint6_linear)"/>
<path d="M500.76 101.11C500.955 101.2 501.081 101.395 501.081 101.61C501.081 101.825 500.955 102.02 500.76 102.11L490.56 110.24C490.155 110.552 489.608 110.606 489.15 110.38L475.74 102.64C475.537 102.557 475.404 102.359 475.404 102.14C475.404 101.921 475.537 101.723 475.74 101.64L486 93.51C486.405 93.209 486.943 93.1552 487.4 93.37L500.76 101.11Z" fill="url(#paint7_linear)"/>
<path d="M485.72 113.13C485.923 113.212 486.056 113.41 486.056 113.63C486.056 113.849 485.923 114.047 485.72 114.13L478.72 119.69C478.315 119.992 477.774 120.042 477.32 119.82L464 112C463.797 111.917 463.664 111.719 463.664 111.5C463.664 111.28 463.797 111.082 464 111L471 105.44C471.405 105.135 471.946 105.085 472.4 105.31L485.72 113.13Z" fill="url(#paint8_linear)"/>
<path d="M501.06 101.51C501.079 101.734 500.976 101.952 500.79 102.08L490.56 110.24C490.155 110.551 489.608 110.606 489.15 110.38L475.74 102.64C475.588 102.562 475.481 102.418 475.45 102.25L475.66 103.7C475.699 103.867 475.808 104.01 475.96 104.09L489.37 111.84C489.83 112.054 490.371 112 490.78 111.7L501 103.53C501.186 103.402 501.289 103.184 501.27 102.96L501.06 101.51Z" fill="url(#paint9_linear)"/>
<path d="M485.75 114.09L478.75 119.65C478.345 119.952 477.804 120.002 477.35 119.78L464 112C463.841 111.923 463.729 111.774 463.7 111.6L463.92 113.05C463.949 113.224 464.061 113.373 464.22 113.45L477.63 121.19C478.069 121.411 478.594 121.377 479 121.1L486 115.54C486.186 115.416 486.289 115.202 486.27 114.98L486 113.52C486.023 113.74 485.928 113.957 485.75 114.09Z" fill="url(#paint10_linear)"/>
<path d="M519.15 111.73C519.345 111.82 519.471 112.015 519.471 112.23C519.471 112.445 519.345 112.64 519.15 112.73L497.15 130.3C496.741 130.604 496.197 130.654 495.74 130.43L482.41 122.68C482.207 122.597 482.074 122.399 482.074 122.18C482.074 121.961 482.207 121.763 482.41 121.68L504.41 104.11C504.817 103.802 505.363 103.751 505.82 103.98L519.15 111.73Z" fill="url(#paint11_linear)"/>
<path d="M519.45 112.13C519.47 112.355 519.367 112.573 519.18 112.7L497.18 130.27C496.771 130.574 496.227 130.624 495.77 130.4L482.41 122.68C482.25 122.604 482.138 122.454 482.11 122.28L482.33 123.73C482.36 123.906 482.471 124.058 482.63 124.14L496 131.85C496.457 132.074 497.001 132.024 497.41 131.72L519.41 114.15C519.595 114.027 519.699 113.812 519.68 113.59L519.45 112.13Z" fill="url(#paint12_linear)"/>
<path d="M411.39 124.75L359.21 155.08L284 111.66L336.18 81.3398L411.39 124.75Z" fill="url(#paint13_linear)"/>
<path d="M296.65 100.3H295.15V98.9999C295.148 98.3848 295.471 97.8146 296 97.4999C296.54 97.181 297.21 97.181 297.75 97.4999L297 98.7999C296.921 98.7588 296.826 98.7609 296.749 98.8055C296.672 98.8501 296.624 98.931 296.62 99.0199L296.65 100.3Z" fill="url(#paint14_linear)"/>
<path d="M314.64 89.84H313.14V88.56C313.147 87.9368 313.483 87.3638 314.024 87.0535C314.564 86.7432 315.228 86.7419 315.77 87.05L315 88.34C314.922 88.299 314.828 88.299 314.75 88.34C314.671 88.3855 314.622 88.4689 314.62 88.56L314.64 89.84Z" fill="url(#paint15_linear)"/>
<path d="M406.39 122.75L354.21 153.08L279 109.66L331.18 79.3398L406.39 122.75Z" fill="url(#paint16_linear)"/>
<path d="M354.21 153.08L279 109.66V112.61L354.21 156.02L406.38 125.7L406.39 122.75L354.21 153.08Z" fill="url(#paint17_linear)"/>
<path d="M403.17 120.73L352.39 150.23L280.13 108.5L330.9 79L403.17 120.73Z" fill="url(#paint18_linear)"/>
<path d="M352.39 150.23L280.13 108.5L280.12 109.43L352.39 151.15L403.16 121.65L403.17 120.73L352.39 150.23Z" fill="url(#paint19_linear)"/>
<path d="M300 99.7802C299.25 99.7915 298.509 99.6089 297.85 99.2502L297 98.8002C296.641 98.5931 296.518 98.1342 296.725 97.7752C296.932 97.4162 297.391 97.2931 297.75 97.5002L298.54 97.9602C299.427 98.3904 300.463 98.3904 301.35 97.9602L306.35 94.9602C306.764 94.6896 307.291 94.6628 307.73 94.8902L307.97 95.0302C308.04 95.0302 308.24 95.0302 308.49 94.9002C308.901 94.6551 309.245 94.3114 309.49 93.9002L309.73 93.4802C309.944 93.0968 310.254 92.7762 310.63 92.5502L315.76 89.5502C316 89.4102 316.11 89.2602 316.11 89.1802C316.11 89.1002 316 88.9302 315.75 88.7902L315 88.3402C314.739 88.2223 314.568 87.9662 314.559 87.68C314.55 87.3939 314.705 87.1276 314.958 86.9938C315.211 86.8599 315.519 86.8818 315.75 87.0502L316.54 87.5002C317.186 87.8195 317.609 88.4612 317.65 89.1802C317.611 89.897 317.192 90.5382 316.55 90.8602L311.42 93.8602C311.275 93.9612 311.155 94.0948 311.07 94.2502L310.82 94.6702C310.459 95.3282 309.931 95.8799 309.29 96.2702C308.695 96.6685 307.932 96.7181 307.29 96.4002L307.16 96.3302L302.16 99.3302C301.49 99.6625 300.747 99.8174 300 99.7802Z" fill="url(#paint20_linear)"/>
<g opacity="0.15">
<path opacity="0.15" d="M334.96 92.46L335.25 93.42" stroke="#4E7FFF" stroke-linecap="round"/>
<path opacity="0.15" d="M335.8 95.2598L347.77 134.89" stroke="#4E7FFF" stroke-linecap="round" stroke-dasharray="1.93 1.93"/>
<path opacity="0.15" d="M348.04 135.81L348.33 136.77" stroke="#4E7FFF" stroke-linecap="round"/>
<path opacity="0.15" d="M303.38 110.81L304.37 110.91" stroke="#4E7FFF" stroke-linecap="round"/>
<path opacity="0.15" d="M306.39 111.11L377.91 118.22" stroke="#4E7FFF" stroke-linecap="round" stroke-dasharray="2.02 2.02"/>
<path opacity="0.15" d="M378.92 118.32L379.91 118.42" stroke="#4E7FFF" stroke-linecap="round"/>
<path opacity="0.15" d="M366.58 129.01L365.71 128.51" stroke="#4E7FFF" stroke-linecap="round"/>
<path opacity="0.15" d="M364.01 127.53L320.57 102.44" stroke="#4E7FFF" stroke-linecap="round" stroke-dasharray="1.97 1.97"/>
<path opacity="0.15" d="M319.71 101.95L318.85 101.45" stroke="#4E7FFF" stroke-linecap="round"/>
<path opacity="0.15" d="M361.92 102.65L361.06 103.15" stroke="#4E7FFF" stroke-linecap="round"/>
<path opacity="0.15" d="M359.28 104.19L324.55 124.37" stroke="#4E7FFF" stroke-linecap="round" stroke-dasharray="2.06 2.06"/>
<path opacity="0.15" d="M323.66 124.88L322.79 125.39" stroke="#4E7FFF" stroke-linecap="round"/>
<path opacity="0.15" fill-rule="evenodd" clip-rule="evenodd" d="M356.76 105.83C348.36 100.98 334.76 100.98 326.43 105.83C318.1 110.68 318.13 118.55 326.53 123.4C334.93 128.25 348.53 128.25 356.86 123.4C365.19 118.55 365.17 110.68 356.76 105.83Z" stroke="#4E7FFF" stroke-linecap="round"/>
</g>
<path d="M244.17 51.6199L227.17 61.4999C225.004 62.7503 222.336 62.7503 220.17 61.4999L213.26 57.4999L233.75 45.6099L244.17 51.6199Z" fill="url(#paint21_linear)"/>
<path d="M237 47.9998C237 48.9998 235.73 51.2198 234.61 53.7798C234.03 55.0998 233.61 55.1298 228.86 57.8598V51.8598C229.13 51.7098 236.23 47.5098 236.68 47.5098C236.88 47.5798 237 47.7498 237 47.9998Z" fill="url(#paint22_linear)"/>
<path d="M236.74 47.55H236.66C236.21 47.55 229.11 51.75 228.84 51.9L221.09 47.4L228.47 43.1C228.569 43.0376 228.683 43.003 228.8 43C229 43 236.62 47.47 236.74 47.55Z" fill="url(#paint23_linear)"/>
<path d="M228.83 51.8701V57.8701L215.55 65.5401C215.447 65.6026 215.33 65.6403 215.21 65.6501C214.94 65.6501 214.79 65.4201 214.79 65.1001C214.792 64.9094 214.837 64.7216 214.92 64.5501L217.19 59.3601C217.78 58.0001 217.51 58.4101 228.83 51.8701Z" fill="url(#paint24_linear)"/>
<path d="M236.74 47.55C236.714 47.54 236.686 47.54 236.66 47.55H236.73H236.74Z" fill="white"/>
<path d="M221.08 47.3701L228.83 51.8701C217.51 58.4101 217.83 58.0001 217.19 59.3601L214.92 64.5501C214.839 64.7297 214.795 64.9234 214.79 65.1201C214.774 65.2998 214.854 65.4747 215 65.5801C208.29 61.6901 207 61.1701 207 60.5801C207.016 60.3771 207.074 60.1797 207.17 60.0001C210.58 52.2401 207.9 55.0001 221.08 47.3701Z" fill="url(#paint25_linear)"/>
<path d="M236.74 47.55C236.714 47.54 236.686 47.54 236.66 47.55H236.73H236.74Z" fill="white"/>
<path d="M58.77 76.62L55.75 79L56.86 80.74L75.86 91.74L85.65 93.35L81.89 86.98L62.89 76L58.77 76.64" fill="url(#paint26_linear)"/>
<path d="M69.4302 94.1199C68.7839 93.6974 68.1839 93.208 67.6402 92.6599C67.4602 92.3047 67.4602 91.885 67.6402 91.5299C67.6402 91.5299 67.1102 89.5299 67.5002 88.7199C68.0513 87.9638 68.7277 87.3077 69.5002 86.7799C69.579 86.0943 69.8454 85.4437 70.2702 84.8999C70.8402 84.4099 73.1902 84.6399 73.2002 84.6399L79.7102 94.2999L69.5202 94.1399L69.4302 94.1199Z" fill="#E5C59A"/>
<path d="M67.6 91.5301L51 81.8901L52.86 84.5001L69.46 94.1401C68.8005 93.7155 68.1902 93.2192 67.64 92.6601C67.4473 92.3114 67.4325 91.8917 67.6 91.5301Z" fill="url(#paint27_linear)"/>
<path d="M69.44 86.7801L52.84 77.1401L51 81.8901L67.6 91.5301C67.6 91.5301 67.07 89.5301 67.46 88.7201C68.0051 87.9658 68.6747 87.3098 69.44 86.7801Z" fill="url(#paint28_linear)"/>
<path d="M73.1398 84.64L56.5398 75L52.8398 77.14L69.4398 86.78C69.5186 86.0944 69.7851 85.4439 70.2098 84.9C70.7798 84.41 73.1398 84.64 73.1398 84.64Z" fill="url(#paint29_linear)"/>
<path d="M75.26 94.2299C74.9536 94.0165 74.7916 93.6502 74.84 93.2799C74.9041 92.2785 75.4429 91.368 76.29 90.8299C76.565 90.6379 76.918 90.5966 77.23 90.7199L79.65 94.2999L75.26 94.2299Z" fill="url(#paint30_linear)"/>
<path d="M46.1101 88.68L43.1001 91L44.2101 92.77L92.1301 119.7L101.92 121.31L98.1701 114.94L50.2501 88L46.1201 88.64" fill="url(#paint31_linear)"/>
<path d="M85.7102 122.13C85.06 121.713 84.4595 121.223 83.9202 120.67C83.7193 120.324 83.7007 119.902 83.8702 119.54C83.8702 119.54 83.3402 117.54 83.7302 116.73C84.2813 115.974 84.9577 115.318 85.7302 114.79C85.8139 114.106 86.0798 113.457 86.5002 112.91C87.0702 112.42 89.4202 112.65 89.4302 112.65L95.9402 122.31L85.7502 122.15L85.7102 122.13Z" fill="#E5C59A"/>
<path d="M83.87 119.54L38 92.8901L39.86 95.5001L85.73 122.15C85.0723 121.727 84.465 121.231 83.92 120.67C83.7192 120.324 83.7005 119.902 83.87 119.54Z" fill="url(#paint32_linear)"/>
<path d="M85.71 114.79L39.84 88.1401L38 92.8901L83.87 119.54C83.87 119.54 83.34 117.54 83.73 116.73C84.2751 115.976 84.9447 115.32 85.71 114.79Z" fill="url(#paint33_linear)"/>
<path d="M89.4098 112.65L43.5398 86L39.8398 88.14L85.7098 114.79C85.7936 114.106 86.0595 113.456 86.4798 112.91C87.0498 112.42 89.4098 112.65 89.4098 112.65Z" fill="url(#paint34_linear)"/>
<path d="M91.5301 122.24C91.2058 122.018 91.0415 121.627 91.1101 121.24C91.1759 120.236 91.7139 119.323 92.5601 118.78C92.8394 118.588 93.197 118.55 93.5101 118.68L95.9201 122.26L91.5301 122.24Z" fill="url(#paint35_linear)"/>
<path d="M134 94.9998L108.11 79.9998L107.63 80.2798L84.8002 67.1198L83.5302 67.8598L81.1902 66.5098C79.8552 65.8294 78.2752 65.8294 76.9402 66.5098L75.6902 67.2398C75.1643 67.4197 74.811 67.914 74.811 68.4698C74.811 69.0255 75.1643 69.5199 75.6902 69.6998L78.0002 71.0498L76.7302 71.7898L99.5902 84.9998L99.1202 85.2798L125 100.19L125.56 99.8598L136.56 102.66L138.26 101.66L133.4 95.2798L134 94.9998Z" fill="url(#paint36_linear)"/>
<path d="M74.4302 66.7398L77.2302 68.3698C77.0088 68.2409 76.7563 68.1752 76.5002 68.1798C74.6802 68.1798 72.5002 70.9398 72.5002 73.3298C72.436 74.0253 72.7393 74.7038 73.3002 75.1198L70.5002 73.4898C69.5317 72.8954 68.9585 71.8254 69.0002 70.6898C69.0002 68.5498 70.8002 66.3398 73.0002 66.3398C73.5156 66.3505 74.0204 66.4879 74.4702 66.7398" fill="url(#paint37_linear)"/>
<path d="M75.3202 67.2201C76.1108 66.6755 77.1313 66.5917 78.0002 67.0001L102.72 81.3401C101.844 80.929 100.814 81.0167 100.02 81.5701C97.6872 83.0305 96.1988 85.5236 96.0202 88.2701C95.8966 89.2743 96.3345 90.2653 97.1602 90.8501L72.5002 76.5001C71.678 75.9124 71.2411 74.9236 71.3602 73.9201C71.5299 71.1811 73.0025 68.6895 75.3202 67.2201Z" fill="url(#paint38_linear)"/>
<path d="M122.215 99.0206C123.96 96.017 123.962 92.7611 122.219 91.7483C120.476 90.7355 117.648 92.3494 115.903 95.353C114.158 98.3566 114.156 101.613 115.899 102.625C117.642 103.638 120.469 102.024 122.215 99.0206Z" fill="url(#paint39_linear)"/>
<path d="M100 80.9198C100.91 80.2801 102.093 80.1771 103.1 80.6498L122.2 91.7498C121.193 91.2771 120.01 91.3801 119.1 92.0198C116.451 93.7008 114.767 96.5485 114.57 99.6798C114.41 100.844 114.911 102.001 115.87 102.68L96.8001 91.5398C95.8445 90.8572 95.3413 89.7047 95.4901 88.5398C95.698 85.4277 97.372 82.5994 100 80.9198Z" fill="url(#paint40_linear)"/>
<path d="M119.11 92.6698C120.49 91.8998 121.7 92.0598 122.38 92.9298L128.7 101.08C128.462 100.822 128.065 100.791 127.79 101.01C127.15 101.415 126.744 102.104 126.7 102.86C126.7 103.32 126.9 103.6 127.21 103.64L117 102.19C115.87 102 115.13 101 115.15 99.3698C115.325 96.6323 116.796 94.1428 119.11 92.6698Z" fill="url(#paint41_linear)"/>
<path d="M128.638 102.757C129.06 102.031 129.015 101.218 128.537 100.94C128.059 100.663 127.33 101.026 126.909 101.752C126.487 102.478 126.532 103.291 127.01 103.569C127.487 103.846 128.216 103.483 128.638 102.757Z" fill="url(#paint42_linear)"/>
<path d="M129.65 102C130.203 102.315 130.395 103.017 130.08 103.57C129.765 104.122 129.063 104.315 128.51 104L127.21 103.25C127.04 103.131 126.951 102.926 126.98 102.72C127.012 102.156 127.313 101.642 127.79 101.34C127.961 101.244 128.17 101.244 128.34 101.34L129.65 102.1" fill="url(#paint43_linear)"/>
<path d="M79.3101 69.7199L92.1301 77.1699L96.0801 74.8899L83.2601 67.4399L79.3101 69.7199Z" fill="url(#paint44_linear)"/>
<path d="M79.3101 69.7197L79.3201 71.6697L92.1401 79.1197L92.1301 77.1697L79.3101 69.7197Z" fill="url(#paint45_linear)"/>
<path d="M92.1299 77.1701L92.1399 79.1201L96.0899 76.8401L96.0799 74.8901L92.1299 77.1701Z" fill="url(#paint46_linear)"/>
<path d="M151.56 63.16L148.56 65.54L149.66 67.28L168.66 78.28L178.45 79.9L174.69 73.52L155.69 62.52L151.56 63.16Z" fill="url(#paint47_linear)"/>
<path d="M143.64 60.87C146.17 58.87 148.41 60.77 149.77 61.59H149.84H149.75C147.1 61.95 144.33 65.59 144.33 68.92C144.329 69.3248 144.38 69.728 144.48 70.12C144.565 70.2135 144.662 70.2943 144.77 70.36C142.85 69.24 142.26 69.01 141.77 68.36C140.15 66.33 141.21 62.78 143.64 60.87Z" fill="#ED5145"/>
<path d="M147.14 72.2301C150.14 72.2301 153.01 68.1501 153.01 64.9201C153.01 63.0501 152.01 61.5801 150.21 61.5801C147.44 61.5801 144.36 65.4101 144.36 68.9401C144.36 71.2101 145.74 72.2301 147.14 72.2301Z" fill="#E6E6E6"/>
<path d="M160.39 78.0701L145.39 69.3301L147.25 71.9401L162.3 80.6901C161.06 79.7801 160.27 79.1501 160.39 78.0701Z" fill="url(#paint48_linear)"/>
<path d="M162.24 73.3201L147.24 64.5801L145.35 69.3301L160.35 78.0701C160.35 78.0701 158.35 75.3901 158.7 74.5901C159.05 73.7901 162.24 73.3201 162.24 73.3201Z" fill="url(#paint49_linear)"/>
<path d="M165.93 71.1899L150.93 62.4399L147.19 64.5799L162.19 73.3199C162.388 72.5937 162.728 71.9139 163.19 71.3199C163.85 70.8299 165.93 71.1899 165.93 71.1899Z" fill="url(#paint50_linear)"/>
<path d="M160.39 78.0703C160.39 78.0703 158.39 75.3903 158.74 74.5903C159.09 73.7903 162.24 73.3203 162.24 73.3203C162.438 72.594 162.778 71.9142 163.24 71.3203C163.81 70.8303 165.88 71.1703 165.9 71.1803L172.42 80.8403L162.23 80.6803C160.92 79.6903 160.28 79.0703 160.39 78.0703Z" fill="#E5C59A"/>
<path d="M168.05 80.7802C167.73 80.5558 167.569 80.165 167.64 79.7802C167.701 78.7751 168.24 77.8602 169.09 77.3202C169.365 77.1282 169.718 77.0869 170.03 77.2102L172.45 80.8002L168.05 80.7802Z" fill="#333333"/>
<path d="M105.46 58.1302L102.46 60.5102L103.57 62.2502L151.49 89.1402L161.28 90.7502L157.52 84.3802L109.6 57.4502L105.47 58.0902" fill="url(#paint51_linear)"/>
<path d="M95.64 53.87C98.17 51.87 100.41 53.77 101.77 54.59H101.84H101.75C99.1 54.95 96.33 58.59 96.33 61.92C96.3292 62.3248 96.3796 62.728 96.48 63.12C96.5647 63.2135 96.6623 63.2943 96.77 63.36C94.85 62.24 94.26 62.01 93.77 61.36C92.15 59.33 93.21 55.78 95.64 53.87Z" fill="#ED5145"/>
<path d="M99.1399 65.2301C102.14 65.2301 105.01 61.1501 105.01 57.9201C105.01 56.0501 104.01 54.5801 102.21 54.5801C99.4399 54.5801 96.3599 58.4101 96.3599 61.9401C96.3599 64.2101 97.7399 65.2301 99.1399 65.2301Z" fill="#E6E6E6"/>
<path d="M142.59 86.0001C143.19 85.2875 143.946 84.7229 144.8 84.3501L145.06 84.2201C145.434 83.6499 145.866 83.1203 146.35 82.6401C147.102 82.2789 147.925 82.0877 148.76 82.0801L155.28 91.7401L145.09 91.5801C144.512 91.1628 143.982 90.6833 143.51 90.1501C143.299 89.8049 143.198 89.4039 143.22 89.0001C143.22 89.0001 143.06 88.6501 142.89 88.1801C142.559 87.5044 142.454 86.7401 142.59 86.0001Z" fill="#E5C59A"/>
<path d="M143.22 89.0001L97.3501 62.3301L99.2201 64.9401L145.09 91.5901C144.508 91.1673 143.972 90.6847 143.49 90.1501C143.286 89.8027 143.192 89.4019 143.22 89.0001Z" fill="url(#paint52_linear)"/>
<path d="M145.07 84.2301L99.2001 57.5801L97.3501 62.3301L143.22 89.0001C143.22 89.0001 142.22 86.8401 142.59 86.0001C142.96 85.1601 145.07 84.2301 145.07 84.2301Z" fill="url(#paint53_linear)"/>
<path d="M148.76 82.0899L102.89 55.4399L99.2002 57.5799L145.07 84.2299C145.439 83.6591 145.868 83.1294 146.35 82.6499C147.103 82.2897 147.926 82.0985 148.76 82.0899Z" fill="url(#paint54_linear)"/>
<path d="M150.88 91.6901C150.56 91.4657 150.399 91.0749 150.47 90.6901C150.534 89.6886 151.073 88.7781 151.92 88.2401C152.195 88.0481 152.548 88.0068 152.86 88.1301L155.28 91.7101L150.88 91.6901Z" fill="#333333"/>
<path d="M226.78 132.57L202.49 146.69C200.943 147.583 199.037 147.583 197.49 146.69L173 132.57L199.81 117L226.78 132.57Z" fill="url(#paint55_linear)"/>
<path d="M218.78 113.57L191.98 129.14L165.01 113.57L191.81 98L218.78 113.57Z" fill="url(#paint56_linear)"/>
<path d="M218.78 113.57L218.76 118.59L191.97 134.16L191.98 129.14L218.78 113.57Z" fill="url(#paint57_linear)"/>
<path d="M218.78 118.59L218.76 123.6L191.97 139.17L191.98 134.16L218.78 118.59Z" fill="url(#paint58_linear)"/>
<path d="M218.78 123.6L218.76 128.62L191.97 144.19L191.98 139.17L218.78 123.6Z" fill="url(#paint59_linear)"/>
<path d="M218.78 128.62L218.76 133.64L191.97 149.21L191.98 144.19L218.78 128.62Z" fill="url(#paint60_linear)"/>
<path d="M191.98 129.14L191.97 134.16L165 118.59L165.01 113.57L191.98 129.14Z" fill="url(#paint61_linear)"/>
<path d="M191.98 134.16L191.97 139.17L165 123.6L165.01 118.59L191.98 134.16Z" fill="url(#paint62_linear)"/>
<path d="M191.98 139.17L191.97 144.19L165 128.62L165.01 123.6L191.98 139.17Z" fill="url(#paint63_linear)"/>
<path d="M191.98 144.19L191.97 149.21L165 133.64L165.01 128.62L191.98 144.19Z" fill="url(#paint64_linear)"/>
<path d="M510.93 45.76L479.81 60.49C478.826 60.9568 478.181 61.9285 478.133 63.0158C478.085 64.1032 478.642 65.1281 479.58 65.68L512.21 84.76C516.242 87.1185 521.29 86.8592 525.06 84.1L549.25 66.37C549.794 65.9722 550.101 65.3271 550.066 64.6541C550.032 63.9811 549.661 63.3706 549.08 63.03L520.26 46.17C517.408 44.5003 513.916 44.3469 510.93 45.76Z" fill="url(#paint65_linear)"/>
<path d="M534.38 23.0604L538.51 25.4604C537.672 25.1026 536.709 25.2088 535.97 25.7404L533.9 26.9305L504.4 9.79045L503.32 5.79045C503.295 5.69742 503.262 5.60698 503.22 5.52045C503.08 5.07852 502.785 4.70202 502.39 4.46045L534.38 23.0604Z" fill="url(#paint66_linear)"/>
<path d="M534.38 23.0604L538.51 25.4604C537.672 25.1026 536.709 25.2088 535.97 25.7404L533.9 26.9305L504.4 9.79045L503.32 5.79045C503.295 5.69742 503.262 5.60698 503.22 5.52045C503.08 5.07852 502.785 4.70202 502.39 4.46045L534.38 23.0604Z" fill="url(#paint67_linear)"/>
<path d="M504.59 0.660112C503.35 -0.0598877 501.59 0.0601059 499.78 1.13011L497.71 2.32011L533.88 23.3201L535.95 22.1201C537.8 21.0501 539.52 20.9301 540.77 21.6501L504.59 0.660112Z" fill="url(#paint68_linear)"/>
<path d="M533.9 26.9303L504.4 9.79031L497.73 5.91032L497.72 2.32031L503.22 5.52031L533.89 23.3403L533.9 26.9303Z" fill="#E6E6E6"/>
<path d="M549.07 60.0002C547.921 62.5207 546.062 64.6511 543.72 66.1302L517.07 85.6802C513.301 88.4515 508.243 88.7111 504.21 86.3402L471.59 67.2602C470.677 66.7331 470.118 65.7546 470.13 64.7002V61.1402C470.124 62.188 470.681 63.1581 471.59 63.6802L504.21 82.7602C508.245 85.1204 513.297 84.8612 517.07 82.1002L541 64.5602L543.72 62.5602C544.984 61.765 545.988 60.6181 546.61 59.2602C547.27 58.0377 547.486 56.624 547.22 55.2602L539.5 26.8102C539.46 26.6621 539.407 26.5181 539.34 26.3802C539.292 26.2672 539.231 26.1599 539.16 26.0602C539.139 26.0196 539.112 25.9825 539.08 25.9502C539.041 25.8903 538.994 25.8364 538.94 25.7902C538.909 25.7544 538.876 25.721 538.84 25.6902C538.756 25.6115 538.661 25.5443 538.56 25.4902C537.722 25.1323 536.759 25.2385 536.02 25.7702L533.95 26.9602V23.3702L534.44 23.0902L536.02 22.1802C536.924 21.6218 537.957 21.305 539.02 21.2602C539.16 21.2499 539.3 21.2499 539.44 21.2602C539.526 21.2498 539.613 21.2498 539.7 21.2602C539.87 21.2848 540.037 21.325 540.2 21.3802L540.47 21.4802L540.73 21.6102C541.647 22.1612 542.298 23.0652 542.53 24.1102L550.25 52.5702C550.727 55.1088 550.31 57.7345 549.07 60.0002Z" fill="url(#paint69_linear)"/>
<path d="M547.21 55.2802L539.49 26.8102C539.367 26.2643 539.032 25.7895 538.56 25.4902L502.39 4.49023C502.864 4.78788 503.199 5.26341 503.32 5.81023L511 34.2602C511.263 35.6251 511.043 37.039 510.38 38.2602C509.819 39.594 508.871 40.7293 507.66 41.5202L471.77 58.5202C470.786 58.987 470.141 59.9587 470.093 61.046C470.045 62.1334 470.602 63.1584 471.54 63.7102L504.17 82.7902C508.202 85.1487 513.25 84.8895 517.02 82.1302L543.67 62.6002C544.933 61.8072 545.935 60.6594 546.55 59.3002C547.232 58.0782 547.465 56.6562 547.21 55.2802Z" fill="url(#paint70_linear)"/>
<path d="M571.46 -30.8098L451.57 -99.9998C449.6 -101.16 447.81 -101.27 446.52 -100.52L443.36 -98.6798C444.65 -99.4298 446.43 -99.3298 448.41 -98.1898L568.3 -28.9998C572.48 -26.2819 575.108 -21.7287 575.37 -16.7498L575.08 81.1402C575.08 83.3802 574.28 84.9502 573.01 85.6902L576.17 83.8502C577.45 83.1102 578.24 81.5402 578.24 79.3102L578.53 -18.5898C578.258 -23.5579 575.632 -28.098 571.46 -30.8098Z" fill="url(#paint71_linear)"/>
<path d="M575.13 66.42L441.05 -11V3.76C441.307 8.72513 443.914 13.2707 448.07 16L568 85.23C571.92 87.49 575.11 85.67 575.12 81.23V66.47" fill="url(#paint72_linear)"/>
<path d="M568.3 -28.9997L448.41 -98.1897C444.49 -100.45 441.3 -98.6297 441.29 -94.1297L441.05 -10.9997L575.13 66.4103L575.37 -16.7297C575.109 -21.7144 572.482 -26.2742 568.3 -28.9997Z" fill="url(#paint73_linear)"/>
<path d="M447.67 -15.7799L447.88 -89.8799L568.77 -20.0799L568.56 54.0101L447.67 -15.7799Z" fill="url(#paint74_linear)"/>
<path d="M507.55 35.1C505.49 33.91 503.82 34.85 503.81 37.22C503.95 39.8348 505.333 42.2246 507.53 43.65C508.335 44.2564 509.423 44.3271 510.3 43.83C509.286 42.8028 508.681 41.441 508.6 40C508.6 38.71 509.32 38 510.31 38.13C509.679 36.8979 508.725 35.8608 507.55 35.13" fill="url(#paint75_linear)"/>
<path d="M575.46 134.41L559.66 143.59C555.638 145.912 550.682 145.912 546.66 143.59L545.19 142.74C544.265 142.203 543.695 141.215 543.695 140.145C543.695 139.076 544.265 138.087 545.19 137.55L561 128.39C565.022 126.068 569.978 126.068 574 128.39L575.47 129.24C576.385 129.781 576.945 130.765 576.943 131.828C576.941 132.89 576.377 133.873 575.46 134.41Z" fill="url(#paint76_linear)"/>
<path d="M535 140.23C534.92 141.87 535 143.31 538.5 145.36C546.32 149.88 552.91 146.05 561.03 141.36C570.86 135.65 571.43 134.47 571.43 131.43C571.418 129.744 570.772 128.123 569.62 126.89C564.69 121.89 559.07 122.3 553.14 125.18C550 126.69 541.48 131.48 538.55 133.92C536.42 135.69 535.14 137.51 535 140.23Z" fill="url(#paint77_linear)"/>
<path d="M570.41 127.87C569 125.68 566.12 124.11 563.8 123.41C558.16 121.71 551.92 125.5 543.38 130.63C540.23 132.52 537.8 134.22 536.38 136.16C536.33 136.492 536.33 136.829 536.38 137.16C536.366 137.004 536.366 136.847 536.38 136.69C536.38 137.92 536.03 139.39 539.66 141.49C546.98 145.71 553.14 142.13 560.74 137.72C570.22 132.2 570.69 131 570.41 127.87Z" fill="url(#paint78_linear)"/>
</g>
<defs>
<radialGradient id="paint0_radial" cx="0" cy="0" r="1" gradientUnits="userSpaceOnUse" gradientTransform="rotate(45) scale(800.445 437.613)">
<stop stop-color="#2B75CC"/>
<stop offset="1" stop-color="#3692FF"/>
</radialGradient>
<radialGradient id="paint1_radial" cx="0" cy="0" r="1" gradientUnits="userSpaceOnUse" gradientTransform="rotate(45) scale(800.445 437.613)">
<stop stop-color="#2B75CC"/>
<stop offset="1" stop-color="#3692FF"/>
</radialGradient>
<linearGradient id="paint2_linear" x1="461.45" y1="102.149" x2="507.941" y2="76.2992" gradientUnits="userSpaceOnUse">
<stop stop-color="#292376"/>
<stop offset="1" stop-color="#5D278F" stop-opacity="0"/>
</linearGradient>
<linearGradient id="paint3_linear" x1="398" y1="95.99" x2="525.47" y2="95.99" gradientUnits="userSpaceOnUse">
<stop stop-color="#DBF9EA"/>
<stop offset="1" stop-color="#C0DDE2"/>
</linearGradient>
<linearGradient id="paint4_linear" x1="530.52" y1="109.03" x2="395.18" y2="109.03" gradientUnits="userSpaceOnUse">
<stop stop-color="#DBF9EA"/>
<stop offset="1" stop-color="#C0DDE2"/>
</linearGradient>
<linearGradient id="paint5_linear" x1="518.84" y1="95.0351" x2="453.497" y2="71.6984" gradientUnits="userSpaceOnUse">
<stop stop-color="#DBF9EA"/>
<stop offset="0.97" stop-color="white"/>
</linearGradient>
<linearGradient id="paint6_linear" x1="403.58" y1="93.8399" x2="482.85" y2="93.8399" gradientUnits="userSpaceOnUse">
<stop stop-color="#DBF9EA"/>
<stop offset="0.97" stop-color="white"/>
</linearGradient>
<linearGradient id="paint7_linear" x1="518.26" y1="106.734" x2="452.593" y2="83.2811" gradientUnits="userSpaceOnUse">
<stop stop-color="#DBF9EA"/>
<stop offset="0.97" stop-color="white"/>
</linearGradient>
<linearGradient id="paint8_linear" x1="513.35" y1="118.566" x2="447.816" y2="95.1613" gradientUnits="userSpaceOnUse">
<stop stop-color="#DBF9EA"/>
<stop offset="0.97" stop-color="white"/>
</linearGradient>
<linearGradient id="paint9_linear" x1="475.45" y1="106.74" x2="501.28" y2="106.74" gradientUnits="userSpaceOnUse">
<stop stop-color="#DBF9EA"/>
<stop offset="0.97" stop-color="white"/>
</linearGradient>
<linearGradient id="paint10_linear" x1="463.68" y1="116.51" x2="486.24" y2="116.51" gradientUnits="userSpaceOnUse">
<stop stop-color="#DBF9EA"/>
<stop offset="0.97" stop-color="white"/>
</linearGradient>
<linearGradient id="paint11_linear" x1="514.82" y1="119.766" x2="448.693" y2="96.1496" gradientUnits="userSpaceOnUse">
<stop stop-color="#DBF9EA"/>
<stop offset="0.97" stop-color="white"/>
</linearGradient>
<linearGradient id="paint12_linear" x1="482.11" y1="122.06" x2="519.68" y2="122.06" gradientUnits="userSpaceOnUse">
<stop stop-color="#DBF9EA"/>
<stop offset="0.97" stop-color="white"/>
</linearGradient>
<linearGradient id="paint13_linear" x1="291.95" y1="124.144" x2="408.701" y2="87.0519" gradientUnits="userSpaceOnUse">
<stop stop-color="#292376"/>
<stop offset="1" stop-color="#5D278F" stop-opacity="0"/>
</linearGradient>
<linearGradient id="paint14_linear" x1="282.764" y1="104.16" x2="312.187" y2="95.7909" gradientUnits="userSpaceOnUse">
<stop stop-color="#DBF9EA"/>
<stop offset="1" stop-color="#C0DDE2"/>
</linearGradient>
<linearGradient id="paint15_linear" x1="285.559" y1="99.22" x2="315.933" y2="90.5783" gradientUnits="userSpaceOnUse">
<stop stop-color="#DBF9EA"/>
<stop offset="1" stop-color="#C0DDE2"/>
</linearGradient>
<linearGradient id="paint16_linear" x1="279" y1="116.21" x2="406.39" y2="116.21" gradientUnits="userSpaceOnUse">
<stop stop-color="#FBB78E"/>
<stop offset="1" stop-color="#E76384"/>
</linearGradient>
<linearGradient id="paint17_linear" x1="279" y1="132.84" x2="406.39" y2="132.84" gradientUnits="userSpaceOnUse">
<stop stop-color="#E76384"/>
<stop offset="1" stop-color="#FBB78E"/>
</linearGradient>
<linearGradient id="paint18_linear" x1="280.13" y1="114.61" x2="403.16" y2="114.61" gradientUnits="userSpaceOnUse">
<stop offset="0.03" stop-color="white"/>
<stop offset="1" stop-color="#DBF9EA"/>
</linearGradient>
<linearGradient id="paint19_linear" x1="280.12" y1="129.83" x2="403.16" y2="129.83" gradientUnits="userSpaceOnUse">
<stop stop-color="#DBF9EA"/>
<stop offset="0.97" stop-color="white"/>
</linearGradient>
<linearGradient id="paint20_linear" x1="277.17" y1="96.6382" x2="314.473" y2="86.0373" gradientUnits="userSpaceOnUse">
<stop stop-color="#DBF9EA"/>
<stop offset="1" stop-color="#C0DDE2"/>
</linearGradient>
<linearGradient id="paint21_linear" x1="214.5" y1="54.4227" x2="247.458" y2="51.3416" gradientUnits="userSpaceOnUse">
<stop stop-color="#292376"/>
<stop offset="1" stop-color="#5D278F" stop-opacity="0"/>
</linearGradient>
<linearGradient id="paint22_linear" x1="227.462" y1="50.7998" x2="240.372" y2="53.6234" gradientUnits="userSpaceOnUse">
<stop stop-color="#00A8FF"/>
<stop offset="1" stop-color="#1FEAEC"/>
</linearGradient>
<linearGradient id="paint23_linear" x1="221.89" y1="48.32" x2="234.623" y2="43.3175" gradientUnits="userSpaceOnUse">
<stop stop-color="#1FEAEC"/>
<stop offset="1" stop-color="#00A8FF"/>
</linearGradient>
<linearGradient id="paint24_linear" x1="212.49" y1="57.0358" x2="240.215" y2="62.2592" gradientUnits="userSpaceOnUse">
<stop stop-color="#E76384"/>
<stop offset="1" stop-color="#FBB78E"/>
</linearGradient>
<linearGradient id="paint25_linear" x1="206.78" y1="60.6467" x2="226.463" y2="50.1707" gradientUnits="userSpaceOnUse">
<stop stop-color="#FBB78E"/>
<stop offset="1" stop-color="#E76384"/>
</linearGradient>
<linearGradient id="paint26_linear" x1="66.94" y1="86.4141" x2="75.1208" y2="78.3953" gradientUnits="userSpaceOnUse">
<stop stop-color="#292376"/>
<stop offset="1" stop-color="#5D278F" stop-opacity="0"/>
</linearGradient>
<linearGradient id="paint27_linear" x1="46.34" y1="80.082" x2="59.1571" y2="96.7085" gradientUnits="userSpaceOnUse">
<stop stop-color="#ED1E79"/>
<stop offset="1" stop-color="#93278F"/>
</linearGradient>
<linearGradient id="paint28_linear" x1="43.2" y1="80.5016" x2="88.9421" y2="97.4167" gradientUnits="userSpaceOnUse">
<stop stop-color="#ED1E79"/>
<stop offset="1" stop-color="#93278F"/>
</linearGradient>
<linearGradient id="paint29_linear" x1="52.7998" y1="79.9336" x2="100.17" y2="93.1402" gradientUnits="userSpaceOnUse">
<stop stop-color="#ED1E79"/>
<stop offset="1" stop-color="#93278F"/>
</linearGradient>
<linearGradient id="paint30_linear" x1="74.09" y1="91.0719" x2="81.0333" y2="99.0309" gradientUnits="userSpaceOnUse">
<stop stop-color="#ED1E79"/>
<stop offset="1" stop-color="#93278F"/>
</linearGradient>
<linearGradient id="paint31_linear" x1="65.7801" y1="107.257" x2="79.534" y2="93.7838" gradientUnits="userSpaceOnUse">
<stop stop-color="#292376"/>
<stop offset="1" stop-color="#5D278F" stop-opacity="0"/>
</linearGradient>
<linearGradient id="paint32_linear" x1="29.74" y1="100.35" x2="60.4101" y2="118.561" gradientUnits="userSpaceOnUse">
<stop stop-color="#40CB87"/>
<stop offset="1" stop-color="#008F9D"/>
</linearGradient>
<linearGradient id="paint33_linear" x1="29.91" y1="97.0916" x2="98.1944" y2="130.392" gradientUnits="userSpaceOnUse">
<stop stop-color="#40CB87"/>
<stop offset="1" stop-color="#008F9D"/>
</linearGradient>
<linearGradient id="paint34_linear" x1="39.5798" y1="97.489" x2="115.251" y2="123.525" gradientUnits="userSpaceOnUse">
<stop stop-color="#40CB87"/>
<stop offset="1" stop-color="#008F9D"/>
</linearGradient>
<linearGradient id="paint35_linear" x1="90.9001" y1="119.793" x2="104.579" y2="129.625" gradientUnits="userSpaceOnUse">
<stop stop-color="#5BD687"/>
<stop offset="1" stop-color="#008F9D"/>
</linearGradient>
<linearGradient id="paint36_linear" x1="96.9602" y1="88.4126" x2="108.817" y2="73.9617" gradientUnits="userSpaceOnUse">
<stop stop-color="#292376"/>
<stop offset="1" stop-color="#5D278F" stop-opacity="0"/>
</linearGradient>
<linearGradient id="paint37_linear" x1="77.2202" y1="70.7298" x2="69.0002" y2="70.7298" gradientUnits="userSpaceOnUse">
<stop stop-color="#00A8FF"/>
<stop offset="1" stop-color="#1FEAEC"/>
</linearGradient>
<linearGradient id="paint38_linear" x1="102.72" y1="78.7901" x2="71.3602" y2="78.7901" gradientUnits="userSpaceOnUse">
<stop stop-color="#E3D321"/>
<stop offset="1" stop-color="#FEF100"/>
</linearGradient>
<linearGradient id="paint39_linear" x1="121.529" y1="95.6767" x2="117.049" y2="95.6778" gradientUnits="userSpaceOnUse">
<stop stop-color="#5D278F"/>
<stop offset="1" stop-color="#292376"/>
</linearGradient>
<linearGradient id="paint40_linear" x1="122.21" y1="91.4898" x2="95.4901" y2="91.4898" gradientUnits="userSpaceOnUse">
<stop stop-color="#5D278F"/>
<stop offset="1" stop-color="#292376"/>
</linearGradient>
<linearGradient id="paint41_linear" x1="129.43" y1="97.9098" x2="142.97" y2="97.9098" gradientUnits="userSpaceOnUse">
<stop stop-color="#E3D321"/>
<stop offset="1" stop-color="#FEF100"/>
</linearGradient>
<linearGradient id="paint42_linear" x1="128.569" y1="101.732" x2="127.385" y2="101.8" gradientUnits="userSpaceOnUse">
<stop stop-color="#FEF100"/>
<stop offset="1" stop-color="#E3D321"/>
</linearGradient>
<linearGradient id="paint43_linear" x1="130.2" y1="102.69" x2="126.97" y2="102.69" gradientUnits="userSpaceOnUse">
<stop stop-color="#5D278F"/>
<stop offset="1" stop-color="#292376"/>
</linearGradient>
<linearGradient id="paint44_linear" x1="96.0701" y1="72.3099" x2="79.3101" y2="72.3099" gradientUnits="userSpaceOnUse">
<stop stop-color="#5D278F"/>
<stop offset="1" stop-color="#292376"/>
</linearGradient>
<linearGradient id="paint45_linear" x1="92.1301" y1="74.4197" x2="79.3101" y2="74.4197" gradientUnits="userSpaceOnUse">
<stop stop-color="#5D278F"/>
<stop offset="1" stop-color="#292376"/>
</linearGradient>
<linearGradient id="paint46_linear" x1="96.0799" y1="77.0101" x2="92.1299" y2="77.0101" gradientUnits="userSpaceOnUse">
<stop stop-color="#5D278F"/>
<stop offset="1" stop-color="#292376"/>
</linearGradient>
<linearGradient id="paint47_linear" x1="159.74" y1="72.958" x2="167.929" y2="64.9311" gradientUnits="userSpaceOnUse">
<stop stop-color="#292376"/>
<stop offset="1" stop-color="#5D278F" stop-opacity="0"/>
</linearGradient>
<linearGradient id="paint48_linear" x1="130.13" y1="70.2985" x2="157.151" y2="82.2106" gradientUnits="userSpaceOnUse">
<stop stop-color="#FBB03B"/>
<stop offset="1" stop-color="#F15A24"/>
</linearGradient>
<linearGradient id="paint49_linear" x1="136.34" y1="66.5247" x2="182.558" y2="86.4551" gradientUnits="userSpaceOnUse">
<stop stop-color="#FBB03B"/>
<stop offset="1" stop-color="#F15A24"/>
</linearGradient>
<linearGradient id="paint50_linear" x1="146.54" y1="66.5923" x2="180.722" y2="79.6409" gradientUnits="userSpaceOnUse">
<stop stop-color="#FBB03B"/>
<stop offset="1" stop-color="#F15A24"/>
</linearGradient>
<linearGradient id="paint51_linear" x1="125.14" y1="76.6995" x2="138.882" y2="63.2311" gradientUnits="userSpaceOnUse">
<stop stop-color="#292376"/>
<stop offset="1" stop-color="#5D278F" stop-opacity="0"/>
</linearGradient>
<linearGradient id="paint52_linear" x1="78.1601" y1="69.9692" x2="135.527" y2="94.7662" gradientUnits="userSpaceOnUse">
<stop stop-color="#FBB03B"/>
<stop offset="1" stop-color="#F15A24"/>
</linearGradient>
<linearGradient id="paint53_linear" x1="77.4601" y1="64.8147" x2="180.151" y2="110.676" gradientUnits="userSpaceOnUse">
<stop stop-color="#FBB03B"/>
<stop offset="1" stop-color="#F15A24"/>
</linearGradient>
<linearGradient id="paint54_linear" x1="98.2002" y1="66.6071" x2="202.598" y2="105.349" gradientUnits="userSpaceOnUse">
<stop stop-color="#FBB03B"/>
<stop offset="1" stop-color="#F15A24"/>
</linearGradient>
<linearGradient id="paint55_linear" x1="181.06" y1="134.143" x2="225.673" y2="119.859" gradientUnits="userSpaceOnUse">
<stop stop-color="#292376"/>
<stop offset="1" stop-color="#5D278F" stop-opacity="0"/>
</linearGradient>
<linearGradient id="paint56_linear" x1="164.68" y1="114.016" x2="245.652" y2="110.062" gradientUnits="userSpaceOnUse">
<stop stop-color="#FEF100"/>
<stop offset="1" stop-color="#B0E021"/>
</linearGradient>
<linearGradient id="paint57_linear" x1="180.99" y1="114.537" x2="203.325" y2="129.016" gradientUnits="userSpaceOnUse">
<stop stop-color="#FEF100"/>
<stop offset="1" stop-color="#B0E021"/>
</linearGradient>
<linearGradient id="paint58_linear" x1="188.41" y1="123.258" x2="213.069" y2="137.129" gradientUnits="userSpaceOnUse">
<stop stop-color="#25E581"/>
<stop offset="1" stop-color="#60CB14"/>
</linearGradient>
<linearGradient id="paint59_linear" x1="186.34" y1="129.811" x2="208.198" y2="137.769" gradientUnits="userSpaceOnUse">
<stop stop-color="#FBB78E"/>
<stop offset="1" stop-color="#E76384"/>
</linearGradient>
<linearGradient id="paint60_linear" x1="191.97" y1="138.91" x2="218.78" y2="138.91" gradientUnits="userSpaceOnUse">
<stop stop-color="#FBB03B"/>
<stop offset="1" stop-color="#FA7419"/>
</linearGradient>
<linearGradient id="paint61_linear" x1="164.53" y1="118.416" x2="204.241" y2="145.015" gradientUnits="userSpaceOnUse">
<stop stop-color="#FEF100"/>
<stop offset="1" stop-color="#B0E021"/>
</linearGradient>
<linearGradient id="paint62_linear" x1="165" y1="128.88" x2="191.98" y2="128.88" gradientUnits="userSpaceOnUse">
<stop stop-color="#25E581"/>
<stop offset="1" stop-color="#60CB14"/>
</linearGradient>
<linearGradient id="paint63_linear" x1="162.76" y1="128.656" x2="190.166" y2="144.329" gradientUnits="userSpaceOnUse">
<stop stop-color="#FBB78E"/>
<stop offset="1" stop-color="#E76384"/>
</linearGradient>
<linearGradient id="paint64_linear" x1="165" y1="138.91" x2="191.98" y2="138.91" gradientUnits="userSpaceOnUse">
<stop stop-color="#FBB03B"/>
<stop offset="1" stop-color="#FA7419"/>
</linearGradient>
<linearGradient id="paint65_linear" x1="558.12" y1="63.5282" x2="475.854" y2="75.769" gradientUnits="userSpaceOnUse">
<stop stop-color="#5D278F" stop-opacity="0"/>
<stop offset="1" stop-color="#292376"/>
</linearGradient>
<linearGradient id="paint66_linear" x1="505.32" y1="16.514" x2="524.04" y2="13.425" gradientUnits="userSpaceOnUse">
<stop stop-color="#DBF9EA"/>
<stop offset="1" stop-color="#C0DDE2"/>
</linearGradient>
<linearGradient id="paint67_linear" x1="505.32" y1="16.514" x2="524.04" y2="13.425" gradientUnits="userSpaceOnUse">
<stop stop-color="#DBF9EA"/>
<stop offset="1" stop-color="#C0DDE2"/>
</linearGradient>
<linearGradient id="paint68_linear" x1="497.71" y1="11.7801" x2="540.77" y2="11.7801" gradientUnits="userSpaceOnUse">
<stop stop-color="#DBF9EA"/>
<stop offset="1" stop-color="#C0DDE2"/>
</linearGradient>
<linearGradient id="paint69_linear" x1="550.37" y1="53.3803" x2="452.012" y2="60.1205" gradientUnits="userSpaceOnUse">
<stop stop-color="#DBF9EA"/>
<stop offset="1" stop-color="#C0DDE2"/>
</linearGradient>
<linearGradient id="paint70_linear" x1="472.631" y1="50.4602" x2="515.205" y2="43.4426" gradientUnits="userSpaceOnUse">
<stop stop-color="#DBF9EA"/>
<stop offset="1" stop-color="#C0DDE2"/>
</linearGradient>
<linearGradient id="paint71_linear" x1="574.59" y1="-7.63977" x2="416.79" y2="-7.63977" gradientUnits="userSpaceOnUse">
<stop stop-color="#DBF9EA"/>
<stop offset="1" stop-color="#C0DDE2"/>
</linearGradient>
<linearGradient id="paint72_linear" x1="441" y1="37.61" x2="575.13" y2="37.61" gradientUnits="userSpaceOnUse">
<stop stop-color="#DBF9EA"/>
<stop offset="1" stop-color="#C0DDE2"/>
</linearGradient>
<linearGradient id="paint73_linear" x1="452.927" y1="-66.4397" x2="579.875" y2="6.85749" gradientUnits="userSpaceOnUse">
<stop stop-color="#5D278F"/>
<stop offset="1" stop-color="#292376"/>
</linearGradient>
<linearGradient id="paint74_linear" x1="454.097" y1="-62.0499" x2="573.486" y2="6.87858" gradientUnits="userSpaceOnUse">
<stop stop-color="#25E581"/>
<stop offset="1" stop-color="#C4E138"/>
</linearGradient>
<linearGradient id="paint75_linear" x1="503.81" y1="39.37" x2="510.31" y2="39.37" gradientUnits="userSpaceOnUse">
<stop stop-color="#5D278F"/>
<stop offset="1" stop-color="#292376"/>
</linearGradient>
<linearGradient id="paint76_linear" x1="543.49" y1="137.594" x2="585.207" y2="124.99" gradientUnits="userSpaceOnUse">
<stop stop-color="#292376"/>
<stop offset="1" stop-color="#5D278F" stop-opacity="0"/>
</linearGradient>
<linearGradient id="paint77_linear" x1="576.63" y1="132.816" x2="533.527" y2="142.814" gradientUnits="userSpaceOnUse">
<stop stop-color="#DBF9EA"/>
<stop offset="0.97" stop-color="white"/>
</linearGradient>
<linearGradient id="paint78_linear" x1="540.08" y1="133.929" x2="573.814" y2="128.757" gradientUnits="userSpaceOnUse">
<stop stop-color="#DBF9EA"/>
<stop offset="0.97" stop-color="white"/>
</linearGradient>
</defs>
</svg>
