<svg width="24" height="24" viewBox="0 0 24 24" fill="none" xmlns="http://www.w3.org/2000/svg">
<rect width="24" height="24" fill="white"/>
<path d="M11.9944 10.8487L11.0643 11.4588L10.1653 10.8487L9.23537 11.4588V4.80957L10.1653 5.72468L11.0643 4.80957L11.9944 5.72468L12.9245 4.80957V11.4588L11.9944 10.8487Z" fill="#2B75CC"/>
<path d="M15.8386 6.67029L18.4427 16.1864C18.5046 16.3695 18.3808 16.522 18.2566 16.6135L8.55333 19.1756H8.46048C8.30532 19.1756 8.18132 19.084 8.15037 18.9316L5.54628 9.38498C5.48437 9.20188 5.60818 9.01897 5.76333 8.98852L8.58428 8.25651V11.459C8.58428 11.703 8.70848 11.8859 8.92534 12.0079C9.1424 12.1299 9.39041 12.0995 9.57632 11.9775L10.1965 11.6115L10.7545 11.9775C10.8475 12.0384 10.9715 12.069 11.0955 12.069C11.2195 12.069 11.3435 12.0384 11.4366 11.9775L11.9945 11.6115L12.5524 11.9775C12.6455 12.0384 12.7695 12.069 12.8935 12.069C13.0175 12.069 13.1105 12.069 13.2036 12.0079C13.4206 11.8859 13.5445 11.703 13.5445 11.459V6.94494L15.4357 6.45694C15.5285 6.42629 15.6216 6.45694 15.6837 6.48739C15.7765 6.51784 15.8077 6.57894 15.8386 6.67029Z" fill="#2B75CC"/>
</svg>
