<svg width="24" height="24" viewBox="0 0 24 24" fill="none" xmlns="http://www.w3.org/2000/svg">
<rect width="24" height="24" fill="white"/>
<path fill-rule="evenodd" clip-rule="evenodd" d="M5.53 6.07758C5.53 5.7807 5.77066 5.54004 6.06754 5.54004H17.9216C18.2185 5.54004 18.4592 5.7807 18.4592 6.07758V13.8682C18.4592 14.1651 18.2185 14.4058 17.9216 14.4058H6.06754C5.77066 14.4058 5.53 14.1651 5.53 13.8682V6.07758ZM6.06852 15.1432H17.9203V16.0832C17.9203 16.3801 17.6796 16.6208 17.3827 16.6208H6.60606C6.30918 16.6208 6.06852 16.3801 6.06852 16.0832V15.1432ZM17.3816 17.36H6.60734V17.9306C6.60734 18.2275 6.848 18.4682 7.14488 18.4682H16.8441C17.141 18.4682 17.3816 18.2275 17.3816 17.9306V17.36Z" fill="#A5B2BC"/>
</svg>
