<svg width="24" height="24" viewBox="0 0 24 24" fill="none" xmlns="http://www.w3.org/2000/svg">
<rect width="24" height="24" fill="white"/>
<path fill-rule="evenodd" clip-rule="evenodd" d="M5.05061 5.87895C5.05061 5.68638 5.20672 5.53027 5.39929 5.53027H18.6008C18.7934 5.53027 18.9495 5.68638 18.9495 5.87895V10.7726C18.9495 10.9652 18.7934 11.1213 18.6008 11.1213H5.39929C5.20672 11.1213 5.05061 10.9652 5.05061 10.7726V5.87895ZM13.0419 14.9635C13.0419 14.7709 13.198 14.6148 13.3906 14.6148H18.6003C18.7928 14.6148 18.9489 14.7709 18.9489 14.9635V18.11C18.9489 18.3025 18.7928 18.4586 18.6003 18.4586H13.3906C13.198 18.4586 13.0419 18.3025 13.0419 18.11V14.9635ZM5.39866 12.1686C5.20609 12.1686 5.04999 12.3247 5.04999 12.5172V13.2176C5.04999 13.4102 5.20609 13.5663 5.39866 13.5663H18.6002C18.7927 13.5663 18.9488 13.4102 18.9488 13.2176V12.5172C18.9488 12.3247 18.7927 12.1686 18.6002 12.1686H5.39866ZM5.04999 14.9635C5.04999 14.7709 5.20609 14.6148 5.39866 14.6148H11.6507C11.8433 14.6148 11.9994 14.7709 11.9994 14.9635V15.6639C11.9994 15.8565 11.8433 16.0126 11.6507 16.0126H5.39866C5.20609 16.0126 5.04999 15.8565 5.04999 15.6639V14.9635ZM5.39866 17.0601C5.20609 17.0601 5.04999 17.2163 5.04999 17.4088V18.1092C5.04999 18.3018 5.20609 18.4579 5.39866 18.4579H11.6507C11.8433 18.4579 11.9994 18.3018 11.9994 18.1092V17.4088C11.9994 17.2163 11.8433 17.0601 11.6507 17.0601H5.39866Z" fill="#A5B2BC"/>
</svg>
