<svg width="24" height="24" viewBox="0 0 24 24" fill="none" xmlns="http://www.w3.org/2000/svg">
<rect width="24" height="24" fill="white"/>
<mask id="path-1-inside-1" fill="white">
<path fill-rule="evenodd" clip-rule="evenodd" d="M4.89544 6C4.53919 6 4.25039 6.2888 4.25039 6.64505V10.1358C4.25013 10.1433 4.25 10.1509 4.25 10.1585V16.3838C4.25 16.9383 4.90322 17.2344 5.32019 16.8689L7.45286 14.9999H12.0062V11.8583C12.0062 11.502 12.295 11.2132 12.6512 11.2132H17.724V6.64505C17.724 6.2888 17.4352 6 17.0789 6H4.89544ZM19.7413 12.1818C19.7413 11.9591 19.5608 11.7786 19.3381 11.7786H12.973C12.7503 11.7786 12.5698 11.9591 12.5698 12.1818V16.1658C12.5698 16.3884 12.7503 16.5689 12.973 16.5689H17.6656L19.062 17.8817C19.3193 18.1236 19.7413 17.9411 19.7413 17.5879V16.1658V14.0381V12.1818Z"/>
</mask>
<path fill-rule="evenodd" clip-rule="evenodd" d="M4.89544 6C4.53919 6 4.25039 6.2888 4.25039 6.64505V10.1358C4.25013 10.1433 4.25 10.1509 4.25 10.1585V16.3838C4.25 16.9383 4.90322 17.2344 5.32019 16.8689L7.45286 14.9999H12.0062V11.8583C12.0062 11.502 12.295 11.2132 12.6512 11.2132H17.724V6.64505C17.724 6.2888 17.4352 6 17.0789 6H4.89544ZM19.7413 12.1818C19.7413 11.9591 19.5608 11.7786 19.3381 11.7786H12.973C12.7503 11.7786 12.5698 11.9591 12.5698 12.1818V16.1658C12.5698 16.3884 12.7503 16.5689 12.973 16.5689H17.6656L19.062 17.8817C19.3193 18.1236 19.7413 17.9411 19.7413 17.5879V16.1658V14.0381V12.1818Z" fill="#A5B2BC"/>
<path d="M4.25039 10.1358L5.05621 10.1639L5.0567 10.1499V10.1358H4.25039ZM5.32019 16.8689L5.85162 17.4753L5.85162 17.4753L5.32019 16.8689ZM7.45286 14.9999V14.1936H7.14954L6.92142 14.3935L7.45286 14.9999ZM12.0062 14.9999V15.8062H12.8125V14.9999H12.0062ZM17.724 11.2132V12.0195H18.5303V11.2132H17.724ZM17.6656 16.5689L18.2179 15.9815L17.9851 15.7626H17.6656V16.5689ZM19.062 17.8817L18.5097 18.4691L18.5097 18.4691L19.062 17.8817ZM5.0567 6.64505C5.0567 6.73411 4.9845 6.80631 4.89544 6.80631V5.19369C4.09388 5.19369 3.44409 5.84349 3.44409 6.64505H5.0567ZM5.0567 10.1358V6.64505H3.44409V10.1358H5.0567ZM5.05631 10.1585C5.05631 10.1603 5.05628 10.1621 5.05621 10.1639L3.44457 10.1077C3.44399 10.1246 3.44369 10.1415 3.44369 10.1585H5.05631ZM5.05631 16.3838V10.1585H3.44369V16.3838H5.05631ZM4.78876 16.2625C4.893 16.1712 5.05631 16.2452 5.05631 16.3838H3.44369C3.44369 17.6313 4.91344 18.2975 5.85162 17.4753L4.78876 16.2625ZM6.92142 14.3935L4.78876 16.2625L5.85162 17.4753L7.98429 15.6063L6.92142 14.3935ZM12.0062 14.1936H7.45286V15.8062H12.0062V14.1936ZM11.1999 11.8583V14.9999H12.8125V11.8583H11.1999ZM12.6512 10.4069C11.8497 10.4069 11.1999 11.0567 11.1999 11.8583H12.8125C12.8125 11.9473 12.7403 12.0195 12.6512 12.0195V10.4069ZM17.724 10.4069H12.6512V12.0195H17.724V10.4069ZM16.9177 6.64505V11.2132H18.5303V6.64505H16.9177ZM17.0789 6.80631C16.9899 6.80631 16.9177 6.73411 16.9177 6.64505H18.5303C18.5303 5.84349 17.8805 5.19369 17.0789 5.19369V6.80631ZM4.89544 6.80631H17.0789V5.19369H4.89544V6.80631ZM19.3381 12.5849C19.1155 12.5849 18.935 12.4044 18.935 12.1818H20.5476C20.5476 11.5138 20.0061 10.9723 19.3381 10.9723V12.5849ZM12.973 12.5849H19.3381V10.9723H12.973V12.5849ZM13.3761 12.1818C13.3761 12.4044 13.1956 12.5849 12.973 12.5849V10.9723C12.305 10.9723 11.7635 11.5138 11.7635 12.1818H13.3761ZM13.3761 16.1658V12.1818H11.7635V16.1658H13.3761ZM12.973 15.7626C13.1956 15.7626 13.3761 15.9431 13.3761 16.1658H11.7635C11.7635 16.8338 12.305 17.3752 12.973 17.3752V15.7626ZM17.6656 15.7626H12.973V17.3752H17.6656V15.7626ZM17.1133 17.1564L18.5097 18.4691L19.6143 17.2942L18.2179 15.9815L17.1133 17.1564ZM18.5097 18.4691C19.2817 19.1949 20.5476 18.6475 20.5476 17.5879H18.935C18.935 17.2347 19.3569 17.0523 19.6143 17.2942L18.5097 18.4691ZM20.5476 17.5879V16.1658H18.935V17.5879H20.5476ZM20.5476 16.1658V14.0381H18.935V16.1658H20.5476ZM18.935 12.1818V14.0381H20.5476V12.1818H18.935Z" fill="#A5B2BC" mask="url(#path-1-inside-1)"/>
</svg>
