<svg width="24" height="24" viewBox="0 0 24 24" fill="none" xmlns="http://www.w3.org/2000/svg">
<rect width="24" height="24" fill="white"/>
<path fill-rule="evenodd" clip-rule="evenodd" d="M4.81 15.7154C4.81 15.0817 7.05902 14.6627 7.65788 12.802C7.82162 12.2932 7.92746 11.7445 7.99481 11.2157L7.99474 8.54244C7.99474 6.93388 9.30057 5.62988 10.9086 5.62988H13.104C14.6833 5.62988 15.9711 6.88773 16.0166 8.45657L16.0178 8.54244L16.0177 11.2157C16.0851 11.7445 16.1909 12.2932 16.3547 12.802C16.9535 14.6627 19.2025 15.0817 19.2025 15.7154C19.2025 16.349 4.81 16.2468 4.81 15.7154Z" fill="#A5B2BC"/>
<path fill-rule="evenodd" clip-rule="evenodd" d="M10.81 17.1299H13.81C13.81 17.6822 13.3623 18.1299 12.81 18.1299H11.81C11.2577 18.1299 10.81 17.6822 10.81 17.1299Z" fill="#A5B2BC"/>
</svg>
