<?xml version="1.0" encoding="UTF-8"?>
<svg width="134px" height="53px" viewBox="0 0 134 53" version="1.1" xmlns="http://www.w3.org/2000/svg" xmlns:xlink="http://www.w3.org/1999/xlink">
    <!-- Generator: Sketch 60.1 (88133) - https://sketch.com -->
    <title>logo-with-name@3x</title>
    <desc>Created with Sketch.</desc>
    <g id="Page-1" stroke="none" stroke-width="1" fill="none" fill-rule="evenodd">
        <g id="logo-with-name">
            <rect id="frame" fill="#000000" x="0" y="0" width="52.9792365" height="52.2902402"></rect>
            <path d="M63.906578,22.0468489 L67.0630088,22.0468489 L70.1701204,30.1159296 L73.3101115,22.0468489 L76.4336628,22.0468489 L76.4336628,33.5648108 L74.4608935,33.5648108 L74.4608935,23.9990458 L74.4280141,23.9990458 L70.8934691,33.5648108 L69.4467717,33.5648108 L65.9122268,23.9990458 L65.8793473,23.9990458 L65.8793473,33.5648108 L63.906578,33.5648108 L63.906578,22.0468489 Z M83.8973065,22.0468489 L85.9687142,22.0468489 L85.9687142,33.5648108 L83.8973065,33.5648108 L83.8973065,22.0468489 Z M96.2271143,27.5455369 L92.3473348,22.0468489 L94.961254,22.0468489 L97.7066912,26.3091456 L100.419249,22.0468489 L102.93453,22.0468489 L99.1205092,27.5455369 L103.345523,33.5648108 L100.715164,33.5648108 L97.6409323,28.7005868 L94.5831399,33.5648108 L92.0842989,33.5648108 L96.2271143,27.5455369 Z M109.510427,22.0468489 L117.220667,22.0468489 L117.220667,23.901436 L111.581835,23.901436 L111.581835,26.7321216 L116.924752,26.7321216 L116.924752,28.5867086 L111.581835,28.5867086 L111.581835,31.7102237 L117.516583,31.7102237 L117.516583,33.5648108 L109.510427,33.5648108 L109.510427,22.0468489 Z M124.421275,22.0468489 L128.465452,22.0468489 C129.024406,22.0468489 129.564172,22.0983647 130.084767,22.2013978 C130.605361,22.304431 131.068409,22.4806692 131.473925,22.7301178 C131.879441,22.9795665 132.202752,23.3157748 132.44387,23.7387529 C132.684987,24.161731 132.805544,24.6985798 132.805544,25.3493154 C132.805544,26.184426 132.57265,26.8839563 132.106855,27.4479271 C131.64106,28.0118979 130.975257,28.353529 130.109426,28.4728305 L133.200098,33.5648108 L130.701257,33.5648108 L128.005139,28.6843185 L126.492683,28.6843185 L126.492683,33.5648108 L124.421275,33.5648108 L124.421275,22.0468489 Z M128.103777,26.9273413 C128.399694,26.9273413 128.695607,26.9137845 128.991524,26.8866705 C129.287441,26.8595565 129.558694,26.7944839 129.805291,26.6914508 C130.051888,26.5884177 130.251903,26.4311589 130.405342,26.2196699 C130.55878,26.0081808 130.635498,25.7126428 130.635498,25.3330471 C130.635498,24.9968337 130.56426,24.725698 130.421781,24.5196317 C130.279303,24.3135654 130.092988,24.1590181 129.86283,24.0559849 C129.632673,23.9529518 129.377859,23.8851679 129.098382,23.8526311 C128.818905,23.8200943 128.547652,23.8038262 128.284615,23.8038262 L126.492683,23.8038262 L126.492683,26.9273413 L128.103777,26.9273413 Z" id="name" fill="#000000"></path>
            <path d="M15.6122477,21.3790521 L15.6122477,34.0737425 C15.6122477,34.7319282 15.070631,35.2654931 14.4021847,35.2654931 C13.7338854,35.2654931 13.1921218,34.7322617 13.1921218,34.0737425 L13.1921218,21.3796992 C13.5479615,21.5820509 13.9610404,21.697855 14.4016162,21.697855 C14.8426613,21.697855 15.2561509,21.581804 15.6122477,21.3790521 Z M27.3486686,21.3789032 L27.3486686,34.0735936 C27.3486686,34.7317793 26.8070519,35.2653442 26.1386057,35.2653442 C25.4703064,35.2653442 24.9285427,34.7321128 24.9285427,34.0735936 L24.9285427,21.3795503 C25.2843825,21.581902 25.6974614,21.6977061 26.1380371,21.6977061 C26.5790822,21.6977061 26.9925719,21.5816551 27.3486686,21.3789032 Z M39.57109,21.3790521 L39.57109,34.0737425 C39.57109,34.7319282 39.0294943,35.2654931 38.3610739,35.2654931 C37.6928005,35.2654931 37.1510579,34.7322617 37.1510579,34.0737425 L37.1510579,21.3796992 C37.5068839,21.5820509 37.9199468,21.697855 38.3605054,21.697855 C38.8015334,21.697855 39.2150071,21.581804 39.57109,21.3790521 Z M32.0914448,17.1747531 C34.08312,17.1747531 36.0747951,18.0404175 36.0747951,18.0404175 C36.1547425,18.0404175 36.2335912,18.0434107 36.3110794,18.0492307 C36.075725,18.4163614 35.9395472,18.8511751 35.9395472,19.317275 C35.9395472,19.7772599 36.0721752,20.2067741 36.3018674,20.5708347 C36.2273389,20.5762172 36.1515704,20.5789824 36.0747951,20.5789824 C36.0747951,20.5789824 34.08312,19.7273955 32.0914448,19.7273955 C30.3771336,19.7273955 28.6628224,20.3583111 28.2185937,20.5340358 C28.4342703,20.1779689 28.558163,19.7618539 28.558163,19.317275 C28.558163,18.8372198 28.4137087,18.3903524 28.1652252,18.0164374 C28.5042211,17.8768054 30.297833,17.1747531 32.0914448,17.1747531 Z M20.3781034,17.1747531 C21.9846872,17.1747531 23.5912709,17.7380266 24.1524773,17.955845 C23.8785717,18.3416501 23.7179112,18.811007 23.7179112,19.317275 C23.7179112,19.7233625 23.8212795,20.1057016 24.0035459,20.4402218 C23.3420994,20.1989015 21.8601014,19.7273955 20.3781034,19.7273955 C18.6192115,19.7273955 16.8603196,20.3915517 16.4731948,20.5468024 C16.6936743,20.1879314 16.8205522,19.7671781 16.8205522,19.317275 C16.8205522,18.8405907 16.6781195,18.3966297 16.4328335,18.024325 C16.7171336,17.9059677 18.5476185,17.1747531 20.3781034,17.1747531 Z M14.4004263,18.1329571 C15.0687256,18.1329571 15.6104893,18.665868 15.6104893,19.323247 C15.6104893,19.980626 15.0687256,20.513537 14.4004263,20.513537 C13.732127,20.513537 13.1903633,19.980626 13.1903633,19.323247 C13.1903633,18.665868 13.732127,18.1329571 14.4004263,18.1329571 Z M38.3586875,18.1329571 C39.0269869,18.1329571 39.5687505,18.665868 39.5687505,19.323247 C39.5687505,19.980626 39.0269869,20.513537 38.3586875,20.513537 C37.6903882,20.513537 37.1486246,19.980626 37.1486246,19.323247 C37.1486246,18.665868 37.6903882,18.1329571 38.3586875,18.1329571 Z M26.154522,18.1329571 C26.8228214,18.1329571 27.364585,18.665868 27.364585,19.323247 C27.364585,19.980626 26.8228214,20.513537 26.154522,20.513537 C25.4862227,20.513537 24.9444591,19.980626 24.9444591,19.323247 C24.9444591,18.665868 25.4862227,18.1329571 26.154522,18.1329571 Z" id="logo" fill="#FFFFFF"></path>
        </g>
    </g>
</svg>