<svg width="128" height="52" viewBox="0 0 128 52" fill="none" xmlns="http://www.w3.org/2000/svg">
<path fill-rule="evenodd" clip-rule="evenodd" d="M25.7502 0.233398C11.5903 0.233398 0 11.7123 0 25.8722C0 40.0321 11.5903 51.511 25.7502 51.511C39.9102 51.511 51.5005 40.0321 51.5005 25.8722C51.5005 11.7123 39.9102 0.233398 25.7502 0.233398ZM14.4109 34.5232C15.049 34.5232 15.566 34.0094 15.566 33.3756V21.1512C15.2261 21.3464 14.8314 21.4582 14.4104 21.4582C13.9899 21.4582 13.5955 21.3467 13.2559 21.1518V33.3756C13.2559 34.0097 13.773 34.5232 14.4109 34.5232ZM26.7685 33.3754C26.7685 34.0092 26.2515 34.523 25.6134 34.523C24.9755 34.523 24.4583 34.0095 24.4583 33.3754V21.1516C24.798 21.3465 25.1923 21.458 25.6129 21.458C26.0339 21.458 26.4286 21.3462 26.7685 21.151V33.3754ZM38.4359 33.3756V21.1512C38.096 21.3464 37.7013 21.4582 37.2804 21.4582C36.8598 21.4582 36.4655 21.3467 36.1259 21.1518V33.3756C36.1259 34.0097 36.643 34.5232 37.2809 34.5232C37.9189 34.5232 38.4359 34.0094 38.4359 33.3756ZM16.3491 17.9207C16.6205 17.8067 18.3678 17.1026 20.1151 17.1026C21.6487 17.1026 23.1823 17.645 23.718 17.8548C23.4565 18.2263 23.3032 18.6783 23.3032 19.1658C23.3032 19.5568 23.4018 19.925 23.5758 20.2471C22.9444 20.0147 21.5298 19.5607 20.1151 19.5607C18.4361 19.5607 16.7572 20.2002 16.3876 20.3497C16.5981 20.0042 16.7192 19.599 16.7192 19.1658C16.7192 18.7067 16.5833 18.2792 16.3491 17.9207ZM31.2962 17.1026C29.5841 17.1026 27.872 17.7787 27.5484 17.9131C27.7856 18.2732 27.9235 18.7035 27.9235 19.1658C27.9235 19.5939 27.8053 19.9946 27.5994 20.3374C28.0234 20.1682 29.6598 19.5607 31.2962 19.5607C33.1974 19.5607 35.0986 20.3807 35.0986 20.3807C35.1719 20.3807 35.2442 20.3781 35.3154 20.3729C35.0961 20.0223 34.9695 19.6087 34.9695 19.1658C34.9695 18.7169 35.0995 18.2982 35.3241 17.9447C35.2502 17.9391 35.1749 17.9362 35.0986 17.9362C35.0986 17.9362 33.1974 17.1026 31.2962 17.1026ZM15.5639 19.1715C15.5639 18.5385 15.0468 18.0253 14.4088 18.0253C13.7709 18.0253 13.2538 18.5385 13.2538 19.1715C13.2538 19.8045 13.7709 20.3177 14.4088 20.3177C15.0468 20.3177 15.5639 19.8045 15.5639 19.1715ZM38.4334 19.1715C38.4334 19.8045 37.9163 20.3177 37.2783 20.3177C36.6404 20.3177 36.1232 19.8045 36.1232 19.1715C36.1232 18.5385 36.6404 18.0253 37.2783 18.0253C37.9163 18.0253 38.4334 18.5385 38.4334 19.1715ZM26.7842 19.1715C26.7842 18.5385 26.2671 18.0253 25.6292 18.0253C24.9912 18.0253 24.4741 18.5385 24.4741 19.1715C24.4741 19.8045 24.9912 20.3177 25.6292 20.3177C26.2671 20.3177 26.7842 19.8045 26.7842 19.1715ZM63.9803 20.4103H60.9673V31.5015H62.8504V22.2901H62.8818L66.2557 31.5015H67.6367L71.0106 22.2901H71.042V31.5015H72.9251V20.4103H69.9435L66.9462 28.1804L63.9803 20.4103ZM82.027 20.4103H80.0497V31.5015H82.027V20.4103ZM88.1155 20.4103L91.819 25.7053L87.8644 31.5015H90.2497L93.1686 26.8175L96.1031 31.5015H98.614L94.5809 25.7053L98.2216 20.4103H95.8206L93.2314 24.5147L90.6107 20.4103H88.1155ZM111.859 20.4103H104.499V31.5015H112.141V29.7157H106.476V26.7079H111.577V24.922H106.476V22.1962H111.859V20.4103ZM122.593 20.4103H118.732V31.5015H120.71V26.8019H122.153L124.727 31.5015H127.112L124.162 26.5982C124.989 26.4833 125.624 26.1543 126.069 25.6113C126.513 25.0682 126.736 24.3946 126.736 23.5904C126.736 22.9638 126.621 22.4468 126.39 22.0395C126.16 21.6322 125.852 21.3085 125.465 21.0682C125.077 20.828 124.635 20.6583 124.139 20.5591C123.642 20.4599 123.126 20.4103 122.593 20.4103ZM123.095 25.0707C122.812 25.0969 122.53 25.1099 122.248 25.1099H120.71V22.1021H122.42C122.671 22.1021 122.93 22.1178 123.197 22.1491C123.464 22.1804 123.707 22.2457 123.927 22.3449C124.146 22.4441 124.324 22.593 124.46 22.7914C124.596 22.9898 124.664 23.2509 124.664 23.5747C124.664 23.9402 124.591 24.2248 124.445 24.4285C124.298 24.6321 124.107 24.7835 123.872 24.8828C123.636 24.982 123.377 25.0446 123.095 25.0707Z" fill="#0E142C"/>
</svg>
