<svg width="23" height="23" viewBox="0 0 23 23" fill="none" xmlns="http://www.w3.org/2000/svg">
<path d="M13.5373 21.2028C10.785 21.8146 7.79297 21.1372 5.47848 19.1501C5.47848 18.3422 5.76259 17.0753 7.57556 16.595C7.88098 16.5515 10.2834 16.136 10.4372 14.4109C10.4807 14.1925 10.4593 13.69 9.82544 12.6858C8.90829 11.3318 8.34008 9.10433 9.08319 7.70586C9.52001 6.89792 10.3501 6.48242 11.5292 6.48242C12.7082 6.48242 13.5383 6.89705 13.9751 7.70586C14.7174 9.10333 14.15 11.3096 13.2107 12.6858C12.599 13.6686 12.5777 14.1712 12.599 14.3896C12.686 15.3067 13.4069 15.8527 14.1278 16.1804C14.3462 15.9619 14.6082 15.787 14.8701 15.6121C14.2584 15.4159 13.4504 15.0226 13.4069 14.3017V14.2582C13.4069 14.2147 13.4291 13.8871 13.8872 13.1226C14.9571 11.5281 15.5688 9.03859 14.6739 7.33478C14.2805 6.59254 13.4069 5.69671 11.5292 5.69671C9.64968 5.69586 8.75388 6.613 8.3614 7.35526C7.46557 9.05903 8.07729 11.5485 9.14802 13.1208C9.62835 13.8853 9.65054 14.2351 9.65054 14.2786V14.3221C9.56351 15.4798 7.46644 15.8074 7.44417 15.8074H7.40065C5.52199 16.31 4.93241 17.5325 4.75747 18.4718C2.85663 16.6597 1.78667 14.1702 1.78667 11.505C1.78667 6.15397 6.15485 1.78579 11.5059 1.78579C16.8569 1.78579 21.2251 6.15397 21.2251 11.505C21.2251 13.2745 20.7448 14.9561 19.8924 16.4192C20.0887 16.6376 20.2422 16.8782 20.395 17.1179C21.4435 15.4577 22.033 13.5142 22.033 11.4828C22.0117 5.7172 17.2938 1 11.5059 1C5.71807 1 1 5.7172 1 11.505C1 14.5405 2.28826 17.3798 4.56029 19.39C4.56029 19.39 4.56029 19.4122 4.58247 19.4122C6.54815 21.2909 9.05986 22.2081 11.5493 22.2081C12.4007 22.2081 13.253 22.0989 14.0833 21.8805C13.8649 21.6834 13.6901 21.4426 13.5373 21.2028Z" fill="#333333" stroke="#333333" stroke-width="0.657282" stroke-linejoin="round"/>
</svg>
