<svg width="53" height="59" viewBox="0 0 53 59" fill="none" xmlns="http://www.w3.org/2000/svg">
<path d="M23.5331 43.0847H41.4324V39.7721H23.5331V43.0847ZM51.5454 10.4307L42.6021 1.48737C42.2929 1.17565 41.8699 1.00248 41.4319 1H20.5319C16.3336 1 12.9319 4.4017 12.9319 8.6V50.4C12.8429 52.7156 10.9404 54.5488 8.62229 54.5488C6.30417 54.5488 4.4017 52.7157 4.31265 50.4V17.568H1V50.4C1 54.5983 4.4017 58 8.6 58H44.4156C48.6115 58 52.0156 54.5983 52.0156 50.4V11.6007C52.0206 11.1653 51.8524 10.7423 51.5456 10.4305L51.5454 10.4307ZM48.7202 50.3997C48.7177 52.7772 46.7905 54.7019 44.4155 54.7069H14.9085C15.7793 53.4402 16.2445 51.9385 16.2445 50.3997V8.5997C16.2469 6.22223 18.1742 4.29747 20.5492 4.29253H40.7417L48.723 12.2738L48.7202 50.3997ZM23.5325 31.1597H41.4318V27.8396H23.5325V31.1597ZM23.5325 19.2277H41.4318V15.915H23.5325V19.2277Z" fill="#B8C8D9" stroke="#B8C8D9" stroke-width="1.01333"/>
</svg>
