<svg width="28" height="28" viewBox="0 0 28 28" fill="none" xmlns="http://www.w3.org/2000/svg">
<path d="M23.4133 12.6328L21.5847 9.82114C21.5304 9.73904 21.4483 9.71239 21.3662 9.71239H18.0354L19.7008 5.48167C19.7285 5.42729 19.7285 5.34519 19.7008 5.29081C19.6731 5.23644 19.6187 5.18206 19.5643 5.15434L14.0232 2.97074C13.9688 2.94302 13.8867 2.94302 13.8323 2.97074C13.7779 2.99846 13.7236 3.05284 13.6958 3.10722L11.1305 9.68585L6.57147 9.68478C6.48937 9.68478 6.40727 9.73916 6.35289 9.79354L4.52435 12.6328C4.49663 12.6871 4.46997 12.7149 4.46997 12.7692V15.3623C4.46997 15.4987 4.57873 15.6352 4.74292 15.6352H5.15235V24.779C5.15235 24.9155 5.2611 25.052 5.42529 25.052H22.5668C22.7033 25.052 22.8398 24.9432 22.8398 24.779V15.6352H23.2492C23.3857 15.6352 23.5221 15.5265 23.5221 15.3623V12.7692C23.4678 12.7149 23.4399 12.6872 23.4133 12.6328ZM11.54 10.0675L14.0786 3.54455L19.1003 5.53624L17.4083 9.87559L16.9168 11.1039H11.1305L11.54 10.0675ZM6.70794 10.2306H10.8843L10.5293 11.1039H9.65607C9.5196 11.1039 9.38312 11.2126 9.38312 11.3768C9.38312 11.5133 9.49187 11.6498 9.65607 11.6498H18.1997C18.3361 11.6498 18.4726 11.541 18.4726 11.3768C18.4726 11.2403 18.3639 11.1039 18.1997 11.1039H17.4352L17.7902 10.2306H21.2021L22.6756 12.4963H5.23467L6.70794 10.2306ZM22.2661 24.5062H5.67155V15.6632H22.2672L22.2661 24.5062ZM22.9218 15.1173H5.01573V13.0424H22.9483V15.1173H22.9218Z" fill="#0E142C" stroke="#0E142C" stroke-width="0.736734" stroke-linejoin="round"/>
</svg>
