<svg width="19" height="17" viewBox="0 0 19 17" fill="none" xmlns="http://www.w3.org/2000/svg">
<path d="M18.2626 12.9612L17.1288 1.62121C17.1014 1.43242 17.0212 1.26999 16.8862 1.16242C16.7512 1.05484 16.5625 1 16.4 1L7.81376 1.86378L3.95249 1.135C3.7637 1.10758 3.60127 1.135 3.43992 1.24258C3.30492 1.35016 3.19734 1.48516 3.16992 1.67501L1.00992 12.8525C0.982497 13.0413 1.00992 13.2037 1.1175 13.365C1.22508 13.5 1.36008 13.6076 1.54993 13.635L5.65366 14.4176C5.70745 14.4988 5.76124 14.6064 5.84245 14.6602C5.95003 14.7678 6.11245 14.8226 6.27488 14.8226H6.32867L7.19245 14.7414L13.16 15.9026H13.2676C13.3752 15.9026 13.4838 15.8752 13.565 15.795C13.6726 15.7138 13.7538 15.5788 13.7812 15.4438L14.0238 14.04L17.6413 13.6888C17.83 13.6614 17.9925 13.5812 18.1 13.4462C18.2087 13.3123 18.2625 13.1499 18.2625 12.9611L18.2626 12.9612ZM2.14388 12.6638L4.14144 2.29631L4.68144 2.3501C4.51902 2.4851 4.43886 2.70132 4.46523 2.91753L5.49145 13.285L2.14388 12.6638ZM12.8089 14.7162L10.9189 14.3386L12.9164 14.1498L12.8089 14.7162ZM6.62533 13.7174L5.57277 3.18742L16.1028 2.13485L17.1553 12.6649L6.62533 13.7174Z" fill="#333333" stroke="#333333" stroke-width="0.3"/>
</svg>
