<svg width="17" height="19" viewBox="0 0 17 19" fill="none" xmlns="http://www.w3.org/2000/svg">
<path d="M15.9388 3.70145L13.2388 1.00154C13.0684 0.832797 12.8389 0.739153 12.5993 0.739996H6.30008C4.80839 0.739996 3.60017 1.94906 3.60017 3.43991V16.0401C3.60017 16.537 3.19687 16.9395 2.69991 16.9395C2.20296 16.9395 1.79965 16.537 1.79965 16.0401V7.03965C1.79965 6.54269 1.39679 6.13982 0.899827 6.13982C0.402866 6.13982 0 6.54269 0 7.03965V16.0401C0 17.5309 1.20906 18.74 2.69991 18.74H13.4996C14.9904 18.74 16.1995 17.5309 16.1995 16.0401V4.34017C16.2012 4.10055 16.1066 3.87103 15.9388 3.70145ZM12.5993 13.3397C12.5993 13.8367 12.1964 14.2395 11.6995 14.2395H8.09929C7.60232 14.2395 7.19946 13.8367 7.19946 13.3397C7.19946 12.8428 7.60232 12.4399 8.09929 12.4399H11.6995C12.1964 12.4399 12.5993 12.8428 12.5993 13.3397ZM12.5993 9.73961C12.5993 10.2366 12.1965 10.6394 11.6995 10.6395L8.09978 10.6401C7.60257 10.6401 7.19946 10.2371 7.19946 9.73989C7.19946 9.24274 7.60248 8.83972 8.09964 8.83972H11.6994C12.1964 8.83972 12.5993 9.24261 12.5993 9.73961ZM12.5993 6.13986C12.5993 6.63657 12.1967 7.03926 11.7 7.03934L8.09936 7.0399C7.60238 7.03998 7.19946 6.63712 7.19946 6.14014C7.19946 5.64322 7.60229 5.24039 8.09921 5.24039H11.6998C12.1966 5.24039 12.5993 5.64309 12.5993 6.13986Z" fill="white"/>
</svg>
