<svg width="28" height="28" viewBox="0 0 28 28" fill="none" xmlns="http://www.w3.org/2000/svg">
<path d="M22.9997 13.242C23.9296 12.3367 23.5025 11.0298 22.2201 10.8541L17.4185 10.15V10.1756V10.15L15.2573 5.77676C14.679 4.62008 13.2965 4.59554 12.7437 5.77676L10.5815 10.1257V10.1512V10.1257L5.7799 10.8297C4.49753 11.0054 4.07041 12.3123 5.00026 13.2432L8.47038 16.6356L7.64067 21.4116C7.41483 22.694 8.52045 23.4982 9.67714 22.8943L13.976 20.632L18.2749 22.8943C19.4316 23.4971 20.5372 22.693 20.3113 21.4116L19.5072 16.6356H19.4816H19.5072V16.6101V16.6356L22.9997 13.242ZM18.1981 15.3031C17.771 15.7302 17.5697 16.3341 17.6699 16.9369L18.3238 20.7831L14.8547 18.9479C14.3019 18.671 13.6735 18.671 13.1452 18.9479L9.67711 20.7831L10.3311 16.9126C10.4067 16.3097 10.2309 15.7058 9.8028 15.2787L7.01212 12.5637L10.8827 12.0109C11.4855 11.9107 11.9883 11.5337 12.2652 11.0054L13.9992 7.48626L15.7332 11.0054C16.0101 11.5337 16.5374 11.9107 17.1158 12.0109L20.9863 12.5892L18.1981 15.3031Z" fill="#0E142C"/>
</svg>
