<svg width="14" height="17" viewBox="0 0 14 17" fill="none" xmlns="http://www.w3.org/2000/svg">
<path d="M12.6318 2.19858H9.12536L8.88138 1.08228C8.77643 0.593639 8.32323 0.22768 7.81686 0.22768L5.86232 0.209961C5.35665 0.209961 4.92049 0.558892 4.7978 1.04754L4.53611 2.19929H1.04679C0.470918 2.19929 0 2.67021 0 3.24608L0.000681506 3.96099C0.000681506 4.53687 0.471599 5.00778 1.04748 5.00778H1.20422L1.95456 15.2487C2.02408 16.1033 2.73966 16.7842 3.59426 16.7842H10.0673C10.9219 16.7842 11.6552 16.104 11.707 15.2487L12.4573 4.98999H12.6141C13.1899 4.98999 13.6609 4.51907 13.6609 3.94319V3.22761C13.6786 2.67014 13.2077 2.19854 12.6318 2.19854L12.6318 2.19858ZM5.63604 1.23902C5.65376 1.13407 5.75803 1.06456 5.86299 1.06456L7.83462 1.08228C7.93958 1.08228 8.02681 1.15179 8.06157 1.25674L8.27079 2.19858H5.42613L5.63604 1.23902ZM10.87 15.1963C10.8353 15.6147 10.4863 15.9289 10.0849 15.9289L3.61189 15.9296C3.19345 15.9296 2.86155 15.6154 2.8268 15.197L2.07646 5.00851H11.6026L10.87 15.1963ZM12.8062 3.96104C12.8062 4.06599 12.719 4.1355 12.6318 4.1355H1.0476C0.942645 4.1355 0.873131 4.04827 0.873131 3.96104V3.24545C0.873131 3.1405 0.960364 3.07098 1.0476 3.07098H12.6318C12.7367 3.07098 12.8062 3.15821 12.8062 3.24545V3.96104Z" fill="#686D86"/>
</svg>
