<svg width="28" height="28" viewBox="0 0 28 28" fill="none" xmlns="http://www.w3.org/2000/svg">
<path d="M11.4976 21.2791H11.5184C11.8041 21.2583 12.0084 21.034 11.9885 20.7475L11.4777 11.8184C11.4569 11.5327 11.2326 11.3283 10.9461 11.3483C10.6603 11.369 10.456 11.5933 10.476 11.8799L10.9868 20.809C11.0075 21.054 11.2318 21.2791 11.4976 21.2791H11.4976Z" fill="#B3B6C2" stroke="#B3B6C2" stroke-width="0.204332"/>
<path d="M14.0099 21.2802C14.2956 21.2802 14.5207 21.0551 14.5207 20.7694V11.8394C14.5207 11.5537 14.2956 11.3286 14.0099 11.3286C13.7241 11.3286 13.499 11.5537 13.499 11.8394V20.7685C13.499 21.0551 13.7241 21.2802 14.0099 21.2802V21.2802Z" fill="#B3B6C2" stroke="#B3B6C2" stroke-width="0.204332"/>
<path d="M16.4822 21.2791H16.503C16.7688 21.2791 16.993 21.0747 17.0138 20.8089L17.5246 11.8798C17.5454 11.5941 17.3203 11.369 17.0545 11.3483C16.7688 11.3275 16.5437 11.5526 16.5229 11.8184L16.0121 20.7475C15.9913 21.0133 16.2164 21.2583 16.4822 21.2791H16.4822Z" fill="#B3B6C2" stroke="#B3B6C2" stroke-width="0.204332"/>
<path d="M20.7942 6.6291H16.6875L16.4018 5.3217C16.2788 4.74941 15.7481 4.3208 15.155 4.3208L12.8659 4.30005C12.2736 4.30005 11.7628 4.70871 11.6191 5.28101L11.3126 6.62992H7.22599C6.55153 6.62992 6 7.18146 6 7.85592L6.0008 8.69321C6.0008 9.36767 6.55233 9.9192 7.22679 9.9192H7.41037L8.28916 21.9133C8.37057 22.9142 9.20865 23.7116 10.2096 23.7116H17.7907C18.7916 23.7116 19.6504 22.915 19.7111 21.9133L20.5899 9.89836H20.7734C21.4479 9.89836 21.9994 9.34682 21.9994 8.67236V7.83428C22.0202 7.18137 21.4686 6.62904 20.7942 6.62904L20.7942 6.6291ZM12.6009 5.50527C12.6216 5.38235 12.7437 5.30094 12.8667 5.30094L15.1758 5.32169C15.2987 5.32169 15.4009 5.40311 15.4416 5.52602L15.6866 6.62909H12.355L12.6009 5.50527ZM18.7308 21.8518C18.6901 22.3419 18.2815 22.7099 17.8113 22.7099L10.2302 22.7107C9.74013 22.7107 9.35141 22.3427 9.31071 21.8526L8.43192 9.92005H19.5888L18.7308 21.8518ZM20.9985 8.69326C20.9985 8.81618 20.8963 8.89759 20.7942 8.89759H7.22693C7.10401 8.89759 7.0226 8.79543 7.0226 8.69326V7.85517C7.0226 7.73225 7.12477 7.65084 7.22693 7.65084H20.7942C20.9171 7.65084 20.9985 7.75301 20.9985 7.85517V8.69326Z" fill="#B3B6C2" stroke="#B3B6C2" stroke-width="0.204332"/>
</svg>
