<svg width="104" height="104" viewBox="0 0 104 104" fill="none" xmlns="http://www.w3.org/2000/svg">
<g clip-path="url(#clip0)">
<g filter="url(#filter0_di)">
<path fill-rule="evenodd" clip-rule="evenodd" d="M52 92C74.0914 92 92 74.0914 92 52C92 29.9086 74.0914 12 52 12C29.9086 12 12 29.9086 12 52C12 74.0914 29.9086 92 52 92Z" fill="url(#paint0_linear)"/>
<path fill-rule="evenodd" clip-rule="evenodd" d="M52 92C74.0914 92 92 74.0914 92 52C92 29.9086 74.0914 12 52 12C29.9086 12 12 29.9086 12 52C12 74.0914 29.9086 92 52 92Z" stroke="white" stroke-width="6"/>
</g>
<path d="M52 28C38.7036 28 28 38.7831 28 52C28 65.2137 38.783 76 52 76C65.2137 76 76 65.217 76 52C76 38.7863 65.2972 28 52 28ZM47.3797 63.837L47.1374 63.9995L37.3264 54.1091L41.9467 49.5685L47.217 54.9185L62.053 40.0825L66.6733 44.7029L47.3797 63.837Z" fill="#F5FCF9"/>
</g>
<defs>
<filter id="filter0_di" x="-4.33333" y="-4.33333" width="112.667" height="112.667" filterUnits="userSpaceOnUse" color-interpolation-filters="sRGB">
<feFlood flood-opacity="0" result="BackgroundImageFix"/>
<feColorMatrix in="SourceAlpha" type="matrix" values="0 0 0 0 0 0 0 0 0 0 0 0 0 0 0 0 0 0 127 0"/>
<feOffset/>
<feGaussianBlur stdDeviation="6.66666"/>
<feColorMatrix type="matrix" values="0 0 0 0 0 0 0 0 0 0 0 0 0 0 0 0 0 0 0.12 0"/>
<feBlend mode="normal" in2="BackgroundImageFix" result="effect1_dropShadow"/>
<feBlend mode="normal" in="SourceGraphic" in2="effect1_dropShadow" result="shape"/>
<feColorMatrix in="SourceAlpha" type="matrix" values="0 0 0 0 0 0 0 0 0 0 0 0 0 0 0 0 0 0 127 0" result="hardAlpha"/>
<feOffset/>
<feGaussianBlur stdDeviation="10"/>
<feComposite in2="hardAlpha" operator="arithmetic" k2="-1" k3="1"/>
<feColorMatrix type="matrix" values="0 0 0 0 0 0 0 0 0 0 0 0 0 0 0 0 0 0 0.12 0"/>
<feBlend mode="normal" in2="shape" result="effect2_innerShadow"/>
</filter>
<linearGradient id="paint0_linear" x1="52" y1="12" x2="52" y2="92" gradientUnits="userSpaceOnUse">
<stop stop-color="#28BF89"/>
<stop offset="1" stop-color="#23A677"/>
</linearGradient>
<clipPath id="clip0">
<rect width="104" height="104" fill="white"/>
</clipPath>
</defs>
</svg>
