<svg width="6" height="8" viewBox="0 0 6 8" fill="none" xmlns="http://www.w3.org/2000/svg">
<path d="M3.13393 7.20213C3.15675 7.22464 3.18717 7.23711 3.21942 7.23711C3.25167 7.23711 3.28209 7.22464 3.30461 7.20213C3.91761 6.60099 5.61943 3.92323 5.61943 2.90386C5.61943 2.26379 5.36936 1.66145 4.91577 1.20757C4.46218 0.753978 3.8598 0.503906 3.21947 0.503906C1.89614 0.503906 0.819214 1.58052 0.819214 2.90385C0.819214 3.9233 2.52128 6.60135 3.13403 7.20211L3.13393 7.20213ZM3.21942 0.747218C3.79439 0.747218 4.33591 0.97173 4.74384 1.37969C5.15149 1.78734 5.37631 2.32889 5.37631 2.90411C5.37631 3.7523 3.90812 6.183 3.21974 6.93984C2.53099 6.18294 1.06286 3.75222 1.06286 2.90411C1.06256 1.71488 2.03028 0.747226 3.21943 0.747226L3.21942 0.747218Z" fill="#28BF89" stroke="#28BF89" stroke-width="0.421177" stroke-linecap="round" stroke-linejoin="round"/>
</svg>
