<svg width="16" height="16" viewBox="0 0 16 16" fill="none" xmlns="http://www.w3.org/2000/svg">
<path d="M15.8012 1.84173L14.1588 0.199317C14.031 0.0715358 13.8574 -0.000688406 13.6768 4.94654e-06H0.68057C0.500014 4.94654e-06 0.327085 0.071534 0.199312 0.199317C0.0715398 0.3271 0 0.500019 0 0.680575V15.3199C0 15.5005 0.0715291 15.6734 0.199312 15.8012C0.327095 15.9289 0.500014 16.0005 0.68057 16.0005H15.3199C15.5005 16.0005 15.6734 15.929 15.8012 15.8012C15.9289 15.6734 16.0005 15.5005 16.0005 15.3199V2.32364C16.0005 2.14309 15.929 1.96946 15.8012 1.84169L15.8012 1.84173ZM4.3648 1.15559C4.3641 1.13198 4.37383 1.10906 4.39049 1.0924C4.40716 1.07573 4.43008 1.0667 4.45369 1.0667H11.5469C11.5705 1.0667 11.5934 1.07573 11.6101 1.0924C11.6267 1.10906 11.6365 1.13198 11.6358 1.15559V4.84672C11.6358 4.89533 11.5962 4.93491 11.5469 4.93561H4.45369C4.40438 4.93492 4.3648 4.89533 4.3648 4.84672V1.15559ZM13.3803 13.4809C13.3803 13.5997 13.3338 13.7136 13.2498 13.7976C13.1657 13.8816 13.0525 13.9288 12.9338 13.9295H3.06686C2.94811 13.9288 2.83491 13.8816 2.75089 13.7976C2.66687 13.7136 2.62033 13.5997 2.62033 13.4809V8.22583C2.62102 7.9793 2.82033 7.77999 3.06687 7.77999H12.9338C13.1803 7.77999 13.3797 7.9793 13.3803 8.22583L13.3803 13.4809Z" fill="white"/>
</svg>
