<svg width="28" height="28" viewBox="0 0 28 28" fill="none" xmlns="http://www.w3.org/2000/svg">
<path d="M23.0349 24.0676H4.96549C4.39729 24.0676 4 23.6703 4 23.1021V14.0109C4 13.5004 4.45501 13.0454 4.96549 13.0454C5.47599 13.0454 5.93098 13.4427 5.93098 14.0109L5.9332 22.1919H22.069V14.0109C22.069 13.5004 22.524 13.0454 23.0345 13.0454C23.6027 13.0454 24 13.4427 24 14.0109V23.1601C24 23.6706 23.5472 24.0679 23.0345 24.0679L23.0349 24.0676Z" fill="#686D86" stroke="#686D86" stroke-width="0.5"/>
<path d="M18.5471 8.04442L14.7406 4.23792C14.3433 3.84062 13.7174 3.84062 13.3778 4.23792L9.51359 8.04442C9.34269 8.21532 9.22949 8.49942 9.22949 8.72581C9.22949 9.00991 9.34269 9.2363 9.51359 9.4072C9.6845 9.5781 9.9686 9.6913 10.195 9.6913C10.4791 9.6913 10.7055 9.5781 10.8764 9.4072L12.9783 7.3053V17.1909C12.9783 17.7591 13.4333 18.2141 14.0015 18.2141C14.5697 18.2141 15.0247 17.7591 15.0247 17.1909V7.3053L17.1266 9.4072C17.5239 9.80449 18.1498 9.80449 18.4894 9.4072C18.6603 9.23629 18.7735 8.95219 18.7735 8.72581C18.8312 8.4972 18.7735 8.2708 18.5471 8.04442H18.5471Z" fill="#686D86" stroke="#686D86" stroke-width="0.5"/>
</svg>
