<svg width="28" height="28" viewBox="0 0 28 28" fill="none" xmlns="http://www.w3.org/2000/svg">
<path d="M24.1438 6.10986H3.85616C2.83064 6.10986 2 6.9405 2 7.96602V20.0311C2 20.5229 2.19606 20.9951 2.54408 21.3431C2.8921 21.6912 3.36426 21.8872 3.85616 21.8872H24.1438C24.6357 21.8872 25.1079 21.6912 25.4559 21.3431C25.804 20.9951 26 20.523 26 20.0311V7.96602C26 6.9405 25.1694 6.10986 24.1438 6.10986V6.10986ZM3.85616 7.03794H24.1438C24.3898 7.03794 24.6264 7.13539 24.8004 7.30941C24.9745 7.48342 25.0719 7.72008 25.0719 7.96601V8.34651H2.86303V7.99384C2.85491 7.73166 2.95816 7.47759 3.14725 7.29545C3.33635 7.11331 3.59389 7.01934 3.85607 7.0379L3.85616 7.03794ZM25.137 9.2746V11.1308H2.86304V9.2746H25.137ZM24.2089 21.0519H3.85616C3.34338 21.0519 2.92808 20.6366 2.92808 20.1238V12.0588H25.137V20.0959C25.1451 20.358 25.0418 20.6121 24.8527 20.7943C24.6636 20.9764 24.4061 21.0704 24.1439 21.0518L24.2089 21.0519Z" fill="#333333" stroke="#333333" stroke-width="0.512044"/>
<path d="M11.0713 18.2941C11.0713 18.5703 10.8475 18.7941 10.5713 18.7941H5.70801C5.43187 18.7941 5.20801 18.5703 5.20801 18.2941V15.2583C5.20801 14.9822 5.43187 14.7583 5.70801 14.7583H10.5713C10.8475 14.7583 11.0713 14.9822 11.0713 15.2583V18.2941ZM6.18523 17.3169C6.18523 17.5931 6.40908 17.8169 6.68523 17.8169H9.5941C9.87024 17.8169 10.0941 17.5931 10.0941 17.3169V16.2355C10.0941 15.9593 9.87024 15.7355 9.5941 15.7355H6.68523C6.40908 15.7355 6.18523 15.9593 6.18523 16.2355V17.3169Z" fill="#333333" stroke="#333333" stroke-width="0.539155"/>
</svg>
