<svg width="26" height="18" viewBox="0 0 26 18" fill="none" xmlns="http://www.w3.org/2000/svg">
<path d="M23.1438 1H2.85616C1.83064 1 1 1.83064 1 2.85616V14.9212C1 15.4131 1.19606 15.8852 1.54408 16.2333C1.8921 16.5813 2.36426 16.7774 2.85616 16.7774H23.1438C23.6357 16.7774 24.1079 16.5813 24.4559 16.2333C24.804 15.8853 25 15.4131 25 14.9212V2.85616C25 1.83064 24.1694 1 23.1438 1ZM2.85616 1.92808H23.1438C23.3898 1.92808 23.6264 2.02553 23.8004 2.19954C23.9745 2.37356 24.0719 2.61021 24.0719 2.85615V3.23665H1.86303V2.88398C1.85491 2.62179 1.95816 2.36773 2.14725 2.18558C2.33635 2.00345 2.59389 1.90948 2.85607 1.92804L2.85616 1.92808ZM24.137 4.16474V6.0209H1.86304V4.16474H24.137ZM23.2089 15.942H2.85616C2.34338 15.942 1.92808 15.5267 1.92808 15.0139V6.94898H24.137V14.986C24.1451 15.2482 24.0418 15.5023 23.8527 15.6844C23.6636 15.8665 23.4061 15.9605 23.1439 15.9419L23.2089 15.942Z" fill="#333333" stroke="#333333" stroke-width="0.512044"/>
</svg>
