<svg width="13" height="13" viewBox="0 0 13 13" fill="none" xmlns="http://www.w3.org/2000/svg">
<path d="M0.88191 12.3498C0.655921 12.3498 0.431021 12.2638 0.257969 12.0918C-0.0859898 11.7477 -0.0859898 11.1886 0.257969 10.8445L10.8409 0.258056C11.1849 -0.0860186 11.7437 -0.0860186 12.0877 0.258056C12.4317 0.60213 12.4317 1.16121 12.0877 1.50528L1.50478 12.0918C1.3328 12.2638 1.1079 12.3498 0.88191 12.3498Z" fill="#8F9299"/>
<path d="M11.4648 12.3498C11.2388 12.3498 11.0139 12.2638 10.8409 12.0918L0.257969 1.50528C-0.0859898 1.16121 -0.0859898 0.60213 0.257969 0.258056C0.601928 -0.0860186 1.16082 -0.0860186 1.50478 0.258056L12.0877 10.8445C12.4317 11.1886 12.4317 11.7477 12.0877 12.0918C11.9157 12.2638 11.6908 12.3498 11.4648 12.3498Z" fill="#8F9299"/>
</svg>
