<svg width="25" height="18" viewBox="0 0 25 18" fill="none" xmlns="http://www.w3.org/2000/svg">
<path d="M21.734 0.133301H2.68591C1.2044 0.136282 0.00305246 1.33661 0 2.81921V15.1463C0.00298098 16.6288 1.2043 17.8292 2.68591 17.8322H21.734C23.2155 17.8292 24.4169 16.6289 24.4199 15.1463V2.81921C24.4169 1.33671 23.2156 0.136353 21.734 0.133301ZM22.6899 2.81921V7.14353H17.2517V1.86023H21.734C21.9873 1.86023 22.2318 1.96158 22.4106 2.14144C22.5905 2.32128 22.6909 2.56474 22.6899 2.81911L22.6899 2.81921ZM2.68586 1.86036H15.5166V7.15357H1.72993V2.82926C1.72596 2.57389 1.82532 2.32746 2.00516 2.14464C2.18501 1.96281 2.43044 1.86046 2.68581 1.86046L2.68586 1.86036ZM1.72998 15.1462V8.8833H10.5971V16.1052H2.68565C2.43228 16.1052 2.18785 16.0038 2.00898 15.824C1.82913 15.6441 1.72876 15.4007 1.72975 15.1463L1.72998 15.1462ZM21.734 16.105H12.3223V8.88317H22.6899V15.1461C22.6909 15.4004 22.5906 15.6439 22.4107 15.8237C22.2319 16.0036 21.9874 16.1049 21.734 16.1049L21.734 16.105Z" fill="#333333"/>
</svg>
