<svg width="28" height="28" viewBox="0 0 28 28" fill="none" xmlns="http://www.w3.org/2000/svg">
<path d="M23.5241 5.1499H4.47595C2.99444 5.15288 1.79309 6.35321 1.79004 7.83581V20.1629C1.79302 21.6454 2.99434 22.8458 4.47595 22.8488H23.5241C25.0056 22.8458 26.2069 21.6455 26.21 20.1629V7.83581C26.207 6.35331 25.0057 5.15295 23.5241 5.1499V5.1499ZM24.4799 7.83581V12.1601H19.0417V6.87683H23.524C23.7774 6.87683 24.0218 6.97818 24.2007 7.15804C24.3805 7.33789 24.4809 7.58134 24.4799 7.83571L24.4799 7.83581ZM4.4759 6.87696H17.3067V12.1702H3.51997V7.84586C3.51599 7.5905 3.61536 7.34406 3.7952 7.16124C3.97505 6.97941 4.22048 6.87706 4.47585 6.87706L4.4759 6.87696ZM3.52002 20.1628V13.8999H12.3872V21.1218H4.47569C4.22232 21.1218 3.97789 21.0204 3.79901 20.8406C3.61917 20.6607 3.5188 20.4173 3.51979 20.1629L3.52002 20.1628ZM23.5241 21.1216H14.1123V13.8998H24.48V20.1627C24.481 20.417 24.3806 20.6605 24.2008 20.8403C24.0219 21.0202 23.7775 21.1215 23.5241 21.1215L23.5241 21.1216Z" fill="#333333"/>
</svg>
