<svg width="28" height="28" viewBox="0 0 28 28" fill="none" xmlns="http://www.w3.org/2000/svg">
<path d="M19.4229 9.54022L18.4618 8.57695C17.6917 7.80768 16.4447 7.80768 15.6745 8.57695L8.43411 15.815C8.35524 15.8944 8.30534 15.9973 8.29117 16.1082L8.00776 18.6284C7.96833 18.9782 8.08046 19.3281 8.31581 19.5898C8.55177 19.8516 8.88755 20.0006 9.23997 19.9982C9.28741 20.0006 9.33546 20.0006 9.3829 19.9982L11.9039 19.7124C12.0105 19.6976 12.1091 19.6483 12.1849 19.5719L12.4313 19.3256L19.4229 12.3264C20.1924 11.5565 20.1924 10.31 19.4229 9.54005L19.4229 9.54022ZM17.7643 9.27415L18.7255 10.2374C19.1093 10.6224 19.1093 11.2444 18.7255 11.6294L18.5653 11.792L16.2092 9.43666L16.362 9.27407C16.5475 9.08684 16.7994 8.98151 17.0631 8.98151C17.3268 8.98151 17.5788 9.08683 17.7643 9.27407L17.7643 9.27415ZM12.0961 18.2663L9.73276 15.911L15.5119 10.1338L17.868 12.4891L12.0961 18.2663ZM9.26685 19.0054C9.1923 19.0134 9.11775 18.9875 9.06478 18.9339C9.01118 18.881 8.9853 18.8064 8.99331 18.7319L9.2151 16.7733L11.2261 18.7836L9.26685 19.0054Z" fill="#333333" stroke="#333333" stroke-width="0.4" stroke-linejoin="round"/>
<path d="M25.25 14C25.25 20.2132 20.2132 25.25 14 25.25C7.7868 25.25 2.75 20.2132 2.75 14C2.75 7.7868 7.7868 2.75 14 2.75C20.2132 2.75 25.25 7.7868 25.25 14Z" stroke="#333333" stroke-width="1.5"/>
</svg>
