<svg width="22" height="24" viewBox="0 0 22 24" fill="none" xmlns="http://www.w3.org/2000/svg">
<path d="M9.89465 17.7457H16.9602V16.4381H9.89465V17.7457ZM20.9521 4.85593L17.4219 1.32568C17.2998 1.20264 17.1329 1.13428 16.96 1.1333H8.70998C7.05275 1.1333 5.70998 2.47608 5.70998 4.1333V20.6333C5.67482 21.5473 4.92385 22.271 4.0088 22.271C3.09375 22.271 2.34278 21.5474 2.30763 20.6333V7.6733H1V20.6333C1 22.2905 2.34277 23.6333 4 23.6333H18.1377C19.794 23.6333 21.1377 22.2905 21.1377 20.6333V5.3178C21.1397 5.14593 21.0733 4.97893 20.9522 4.85588L20.9521 4.85593ZM19.8369 20.6332C19.8359 21.5717 19.0752 22.3314 18.1377 22.3334H6.4902C6.83395 21.8334 7.01755 21.2406 7.01755 20.6332V4.13318C7.01853 3.19471 7.77927 2.43493 8.71677 2.43298H16.6875L19.838 5.58348L19.8369 20.6332ZM9.89443 13.0384H16.9599V11.7279H9.89443V13.0384ZM9.89443 8.32843H16.9599V7.02081H9.89443V8.32843Z" fill="#333333" stroke="#333333" stroke-width="0.4"/>
</svg>
