<svg width="28" height="28" viewBox="0 0 28 28" fill="none" xmlns="http://www.w3.org/2000/svg">
<path d="M12.8248 19.3624H19.8903V18.0548H12.8248V19.3624ZM23.8823 6.47263L20.3521 2.94238C20.23 2.81933 20.063 2.75098 19.8902 2.75H11.6402C9.98293 2.75 8.64015 4.09277 8.64015 5.75V22.25C8.605 23.164 7.85403 23.8877 6.93898 23.8877C6.02393 23.8877 5.27295 23.1641 5.2378 22.25V9.29H3.93018V22.25C3.93018 23.9072 5.27295 25.25 6.93018 25.25H21.0679C22.7242 25.25 24.0679 23.9072 24.0679 22.25V6.9345C24.0699 6.76263 24.0035 6.59563 23.8824 6.47258L23.8823 6.47263ZM22.7671 22.2499C22.7661 23.1884 22.0054 23.9481 21.0679 23.9501H9.42038C9.76413 23.4501 9.94773 22.8573 9.94773 22.2499V5.74988C9.9487 4.81141 10.7095 4.05163 11.647 4.04968H19.6177L22.7682 7.20018L22.7671 22.2499ZM12.8246 14.6551H19.8901V13.3446H12.8246V14.6551ZM12.8246 9.94513H19.8901V8.63751H12.8246V9.94513Z" fill="#333333" stroke="#333333" stroke-width="0.4"/>
</svg>
