<svg width="28" height="28" viewBox="0 0 28 28" fill="none" xmlns="http://www.w3.org/2000/svg">
<path d="M16.3059 24.9526C13.1652 25.6506 9.7512 24.8777 7.11023 22.6104C7.11023 21.6885 7.43442 20.2428 9.50313 19.6948C9.85164 19.6451 12.5929 19.171 12.7684 17.2026C12.818 16.9534 12.7937 16.38 12.0704 15.2341C11.0239 13.6892 10.3755 11.1475 11.2234 9.55171C11.7219 8.6298 12.6691 8.15569 14.0144 8.15569C15.3598 8.15569 16.307 8.6288 16.8054 9.55171C17.6524 11.1463 17.005 13.6638 15.9332 15.2341C15.2352 16.3556 15.2108 16.929 15.2352 17.1782C15.3345 18.2248 16.1571 18.8478 16.9797 19.2216C17.2289 18.9724 17.5278 18.7728 17.8266 18.5733C17.1286 18.3494 16.2067 17.9006 16.1571 17.078V17.0283C16.1571 16.9787 16.1824 16.6048 16.7051 15.7326C17.9259 13.9131 18.6239 11.0724 17.6027 9.12828C17.1539 8.28134 16.1571 7.25914 14.0145 7.25914C11.8698 7.25817 10.8477 8.30469 10.3998 9.15166C9.37762 11.0958 10.0756 13.9364 11.2974 15.7305C11.8455 16.6028 11.8708 17.0019 11.8708 17.0516V17.1012C11.7715 18.4223 9.37862 18.7961 9.3532 18.7961H9.30355C7.15987 19.3695 6.48713 20.7646 6.28751 21.8363C4.11853 19.7686 2.89764 16.928 2.89764 13.8868C2.89764 7.78091 7.88201 2.79654 13.9879 2.79654C20.0937 2.79654 25.0781 7.78091 25.0781 13.8868C25.0781 15.9058 24.53 17.8247 23.5575 19.4942C23.7814 19.7434 23.9566 20.0179 24.1309 20.2915C25.3273 18.397 26 16.1794 26 13.8614C25.9757 7.28253 20.5922 1.8999 13.9879 1.8999C7.38362 1.8999 2 7.28253 2 13.8868C2 17.3505 3.46999 20.5903 6.06251 22.8841C6.06251 22.8841 6.06251 22.9094 6.08782 22.9094C8.33079 25.0531 11.1968 26.0997 14.0374 26.0997C15.009 26.0997 15.9815 25.9751 16.9288 25.7258C16.6796 25.501 16.48 25.2264 16.3058 24.9529L16.3059 24.9526Z" fill="#333333" stroke="#333333" stroke-width="0.75"/>
<path d="M23.3832 25.8491C23.4825 25.7498 23.5332 25.6252 23.5332 25.5006C23.5332 25.376 23.4835 25.2513 23.3832 25.1521L22.1372 23.906L22.2365 23.7317C22.5353 23.2586 22.7096 22.7095 22.7096 22.1614C22.7096 20.5911 21.4138 19.2954 19.8436 19.2954C18.2733 19.2954 16.9775 20.5911 16.9775 22.1614C16.9775 23.7317 18.2733 25.0274 19.8436 25.0274C20.3167 25.0274 20.8151 24.9028 21.2396 24.6536L21.4138 24.5543L22.6852 25.8257C22.8605 26.0487 23.209 26.0487 23.3833 25.8491L23.3832 25.8491ZM19.8698 24.1795C18.7736 24.1795 17.8507 23.2819 17.8507 22.1604C17.8507 21.0643 18.7483 20.1414 19.8698 20.1414C20.9659 20.1414 21.8888 21.0389 21.8888 22.1604C21.8635 23.2829 20.9659 24.1795 19.8698 24.1795Z" fill="#333333" stroke="#333333" stroke-width="0.75"/>
</svg>
