<svg width="26" height="26" viewBox="0 0 26 26" fill="none" xmlns="http://www.w3.org/2000/svg">
<path d="M15.3059 24.186C12.1652 24.884 8.7512 24.1111 6.11023 21.8438C6.11023 20.9219 6.43442 19.4762 8.50313 18.9282C8.85164 18.8785 11.5929 18.4044 11.7684 16.436C11.818 16.1868 11.7937 15.6133 11.0704 14.4675C10.0239 12.9226 9.37549 10.3809 10.2234 8.78511C10.7219 7.8632 11.6691 7.38909 13.0144 7.38909C14.3598 7.38909 15.307 7.8622 15.8054 8.78511C16.6524 10.3797 16.005 12.8972 14.9332 14.4675C14.2352 15.589 14.2108 16.1624 14.2352 16.4116C14.3345 17.4582 15.1571 18.0812 15.9797 18.455C16.2289 18.2058 16.5278 18.0062 16.8266 17.8067C16.1286 17.5828 15.2067 17.134 15.1571 16.3114V16.2617C15.1571 16.2121 15.1824 15.8382 15.7051 14.966C16.9259 13.1465 17.6239 10.3058 16.6027 8.36168C16.1539 7.51474 15.1571 6.49254 13.0145 6.49254C10.8698 6.49157 9.84766 7.53809 9.39982 8.38506C8.37762 10.3292 9.07563 13.1698 10.2974 14.9639C10.8455 15.8362 10.8708 16.2353 10.8708 16.285V16.3346C10.7715 17.6557 8.37862 18.0295 8.3532 18.0295H8.30355C6.15987 18.6029 5.48713 19.9979 5.28751 21.0697C3.11853 19.002 1.89764 16.1614 1.89764 13.1202C1.89764 7.01431 6.88201 2.02994 12.9879 2.02994C19.0937 2.02994 24.0781 7.01431 24.0781 13.1202C24.0781 15.1392 23.53 17.0581 22.5575 18.7276C22.7814 18.9768 22.9566 19.2513 23.1309 19.5249C24.3273 17.6304 25 15.4128 25 13.0948C24.9757 6.51592 19.5922 1.1333 12.9879 1.1333C6.38362 1.1333 1 6.51592 1 13.1202C1 16.5839 2.46999 19.8237 5.06251 22.1175C5.06251 22.1175 5.06251 22.1428 5.08782 22.1428C7.33079 24.2865 10.1968 25.3331 13.0374 25.3331C14.009 25.3331 14.9815 25.2085 15.9288 24.9592C15.6796 24.7344 15.48 24.4598 15.3058 24.1863L15.3059 24.186Z" fill="#333333" stroke="#333333" stroke-width="0.75"/>
</svg>
