<svg width="28" height="28" viewBox="0 0 28 28" fill="none" xmlns="http://www.w3.org/2000/svg">
<path d="M5.91043 22.7241C5.89824 22.7241 5.85965 22.7221 5.84746 22.7211C5.70426 22.7089 5.56307 22.6256 5.493 22.4997C5.42293 22.3737 5.40566 22.2214 5.47066 22.0924C5.93481 21.1712 6.17043 20.1891 6.17043 19.1705V19.1695C3.70752 17.6623 2.2998 15.5134 2.2998 13.2454C2.2998 8.85375 7.54869 5.27979 13.9998 5.27979C20.4509 5.27979 25.6998 8.85271 25.6998 13.2454C25.6998 17.6371 20.4509 21.21 13.9998 21.21C12.8989 21.21 11.8071 21.1054 10.7508 20.9002C9.40514 22.0783 7.69481 22.7243 5.91043 22.7243L5.91043 22.7241ZM13.9998 6.146C8.02579 6.146 3.16613 9.32996 3.16613 13.2443C3.16613 15.2572 4.49356 17.189 6.80925 18.5418C6.93621 18.6159 7.01644 18.75 7.02355 18.8962L7.02863 18.9805C7.03371 19.0435 7.03675 19.1064 7.03675 19.1694C7.03675 20.0855 6.86917 20.9762 6.53706 21.8264C7.94675 21.6903 9.27304 21.0941 10.3273 20.114C10.4309 20.0186 10.5731 19.9789 10.7113 20.0074C11.7767 20.2298 12.8827 20.3436 13.9997 20.3436C19.9738 20.3436 24.8334 17.1596 24.8334 13.2453C24.8334 9.331 19.9738 6.146 13.9997 6.146L13.9998 6.146Z" fill="#333333" stroke="#333333" stroke-linejoin="round"/>
</svg>
