<svg width="28" height="28" viewBox="0 0 28 28" fill="none" xmlns="http://www.w3.org/2000/svg">
<circle cx="14" cy="14" r="11.25" stroke="#333333" stroke-width="1.5"/>
<path d="M13 13.1H13.1V13V10.4C13.1 10.2343 13.2343 10.1 13.4 10.1H14.6C14.7657 10.1 14.9 10.2343 14.9 10.4V13V13.1H15H17.6C17.7657 13.1 17.9 13.2343 17.9 13.4V14.6C17.9 14.7657 17.7657 14.9 17.6 14.9H15H14.9V15V17.6C14.9 17.7657 14.7657 17.9 14.6 17.9H13.4C13.2343 17.9 13.1 17.7657 13.1 17.6V15V14.9H13H10.4C10.2343 14.9 10.1 14.7657 10.1 14.6V13.4C10.1 13.2343 10.2343 13.1 10.4 13.1H13Z" fill="#333333" stroke="#333333" stroke-width="0.2"/>
</svg>
