<svg width="28" height="28" viewBox="0 0 28 28" fill="none" xmlns="http://www.w3.org/2000/svg">
<path d="M21.011 8.59993L18.5953 6.18422C18.4428 6.03323 18.2374 5.94945 18.0231 5.9502H12.3869C11.0522 5.9502 9.97121 7.03199 9.97121 8.36591V19.6397C9.97121 20.0844 9.61036 20.4445 9.16571 20.4445C8.72107 20.4445 8.36022 20.0844 8.36022 19.6397V11.5867C8.36022 11.1421 7.99976 10.7816 7.55511 10.7816V10.7816C7.11046 10.7816 6.75 11.1421 6.75 11.5867V19.6397C6.75 20.9737 7.83179 22.0555 9.16571 22.0555H18.8286C20.1625 22.0555 21.2443 20.9737 21.2443 19.6397V9.17141C21.2458 8.95701 21.1612 8.75165 21.011 8.59993ZM18.023 17.2236C18.023 17.6683 17.6626 18.0287 17.2179 18.0287H13.9967C13.5521 18.0287 13.1916 17.6683 13.1916 17.2236V17.2236C13.1916 16.779 13.5521 16.4185 13.9967 16.4185H17.2179C17.6626 16.4185 18.023 16.779 18.023 17.2236V17.2236ZM18.023 14.0025C18.023 14.4471 17.6626 14.8076 17.218 14.8077L13.9972 14.8082C13.5523 14.8082 13.1916 14.4476 13.1916 14.0027V14.0027C13.1916 13.5579 13.5522 13.1973 13.997 13.1973H17.2179C17.6626 13.1973 18.023 13.5578 18.023 14.0025V14.0025ZM18.023 10.7817C18.023 11.2261 17.6628 11.5864 17.2184 11.5865L13.9968 11.587C13.5521 11.587 13.1916 11.2266 13.1916 10.7819V10.7819C13.1916 10.3373 13.5521 9.97686 13.9967 9.97686H17.2182C17.6627 9.97686 18.023 10.3372 18.023 10.7817V10.7817Z" fill="#333333"/>
</svg>
