<svg width="15" height="17" viewBox="0 0 15 17" fill="none" xmlns="http://www.w3.org/2000/svg">
<path d="M14.261 3.08967L11.8453 0.673961C11.6928 0.522979 11.4874 0.439193 11.2731 0.439946H5.63692C4.30225 0.439946 3.22121 1.52174 3.22121 2.85566V14.1295C3.22121 14.5741 2.86036 14.9342 2.41571 14.9342C1.97107 14.9342 1.61022 14.5741 1.61022 14.1295V6.07648C1.61022 5.63183 1.24976 5.27137 0.805108 5.27137C0.360459 5.27137 0 5.63183 0 6.07648V14.1295C0 15.4634 1.08179 16.5452 2.41571 16.5452H12.0786C13.4125 16.5452 14.4943 15.4634 14.4943 14.1295V3.66115C14.4958 3.44675 14.4112 3.2414 14.261 3.08967ZM11.273 11.7134C11.273 12.158 10.9126 12.5185 10.4679 12.5185H7.24673C6.80208 12.5185 6.44162 12.158 6.44162 11.7134C6.44162 11.2687 6.80208 10.9083 7.24673 10.9083H10.4679C10.9126 10.9083 11.273 11.2687 11.273 11.7134ZM11.273 8.49224C11.273 8.93687 10.9126 9.29734 10.468 9.29741L7.24717 9.29791C6.8023 9.29798 6.44162 8.93736 6.44162 8.49249C6.44162 8.04766 6.80222 7.68706 7.24704 7.68706H10.4679C10.9126 7.68706 11.273 8.04755 11.273 8.49224ZM11.273 5.2714C11.273 5.71583 10.9128 6.07613 10.4684 6.0762L7.24679 6.0767C6.80213 6.07677 6.44162 5.71632 6.44162 5.27166C6.44162 4.82704 6.80205 4.46661 7.24667 4.46661H10.4682C10.9127 4.46661 11.273 4.82693 11.273 5.2714Z" fill="#2B75CC"/>
</svg>
