<svg width="25" height="25" viewBox="0 0 25 25" fill="none" xmlns="http://www.w3.org/2000/svg">
<path d="M12.4187 24.1333H11.5836C10.2153 24.1333 9.09224 23.1062 8.96733 21.746L8.95113 21.576C8.92222 21.244 8.71171 20.9595 8.4052 20.8311C8.07441 20.6923 7.73205 20.756 7.48222 20.9641L7.34805 21.0763C6.3441 21.9149 4.74217 21.8432 3.80877 20.9144L3.21889 20.3245C2.25195 19.353 2.18255 17.8332 3.05696 16.7853L3.17031 16.6488C3.38545 16.392 3.43634 16.0439 3.31142 15.7385C3.18419 15.4239 2.89735 15.2134 2.56424 15.1833L2.39075 15.1671C1.02593 15.0434 0 13.918 0 12.5508V11.7158C0 10.3475 1.02708 9.22438 2.38728 9.09947L2.56771 9.08328C2.89735 9.05436 3.18072 8.84385 3.31026 8.53619C3.43749 8.2239 3.38545 7.87345 3.17147 7.61667L3.06275 7.48251C2.18718 6.43229 2.25542 4.91132 3.2212 3.94323L3.8134 3.35104C4.74333 2.42111 6.3441 2.35055 7.35267 3.18911L7.48684 3.30246C7.73899 3.51528 8.09754 3.56848 8.40058 3.44357C8.71287 3.31402 8.92337 3.02949 8.95229 2.69986L8.96848 2.52289C9.09224 1.15807 10.2176 0.133301 11.5848 0.133301H12.4199C13.7881 0.133301 14.9112 1.16039 15.0361 2.52058L15.0523 2.70101C15.0813 3.03065 15.2906 3.31402 15.5983 3.44125C15.9186 3.57658 16.2691 3.51296 16.5166 3.30593L16.6554 3.18795C17.6582 2.35171 19.2625 2.42226 20.1947 3.34988L20.7846 3.94207C21.7515 4.91132 21.8209 6.43229 20.9465 7.48135L20.8308 7.61783C20.6134 7.87229 20.5602 8.22159 20.6886 8.52925C20.8181 8.84154 21.105 9.04974 21.4358 9.08212L21.6116 9.09831C22.9764 9.22207 24.0023 10.3475 24.0023 11.7146V12.5508C24.0023 13.9191 22.9752 15.0422 21.615 15.1671L21.4358 15.1833C21.1073 15.2111 20.8227 15.4204 20.6955 15.7269C20.5648 16.0415 20.618 16.3908 20.8308 16.6465L20.9465 16.7853C21.8209 17.832 21.7515 19.353 20.7846 20.3245L20.1947 20.9144C19.2613 21.8443 17.6617 21.9137 16.6554 21.0763L16.5224 20.9653C16.2714 20.7536 15.9094 20.6993 15.6087 20.8242C15.2929 20.956 15.0824 21.2406 15.0535 21.5714L15.0373 21.7449C14.9135 23.1016 13.7881 24.1275 12.421 24.1275L12.4187 24.1333ZM8.05475 19.021C8.40173 19.021 8.74063 19.0904 9.06101 19.2234C9.97475 19.6028 10.5924 20.4425 10.6803 21.4164L10.6965 21.5864C10.7393 22.0491 11.121 22.396 11.5871 22.396H12.4222C12.8848 22.396 13.2665 22.0491 13.3105 21.5864L13.3267 21.4152C13.4146 20.4413 14.0322 19.6028 14.9367 19.2269C15.8539 18.8452 16.8983 19.0164 17.6351 19.6317L17.7658 19.7404C17.9717 19.9116 18.1891 19.9486 18.336 19.9486C18.5743 19.9486 18.7987 19.8561 18.9675 19.6861L19.5574 19.0962C19.8859 18.7677 19.9102 18.2519 19.6129 17.8956L19.4973 17.7568C18.8704 17.005 18.7142 15.9756 19.0901 15.07C19.4672 14.1562 20.3069 13.5432 21.2808 13.4542L21.46 13.438C21.9192 13.3952 22.2697 13.0135 22.2697 12.5474V11.7123C22.2697 11.2496 21.9192 10.868 21.4577 10.824L21.2819 10.8078C20.3034 10.7176 19.466 10.1023 19.0901 9.19663C18.7131 8.2852 18.8704 7.25581 19.4984 6.50516L19.6141 6.36867C19.9113 6.01012 19.887 5.49426 19.5586 5.16578L18.9687 4.5759C18.7998 4.40588 18.5754 4.31335 18.3372 4.31335C18.1903 4.31335 17.9728 4.35036 17.7681 4.52154L17.6293 4.6372C16.896 5.2479 15.8365 5.41214 14.9436 5.04665C14.0322 4.66843 13.4169 3.82988 13.3278 2.85369L13.3116 2.67441C13.2711 2.21523 12.8894 1.86477 12.4245 1.86477H11.5882C11.1256 1.86477 10.7439 2.21523 10.7 2.67672L10.6838 2.85253C10.5959 3.82757 9.98053 4.66612 9.07605 5.04202C8.16578 5.41908 7.11788 5.25369 6.38111 4.6372L6.24463 4.52617C6.03643 4.35267 5.81899 4.31798 5.6721 4.31798C5.43383 4.31798 5.20945 4.41051 5.04058 4.57937L4.44839 5.16925C4.12222 5.49773 4.09793 6.01359 4.39518 6.36983L4.51084 6.50631C5.13542 7.26159 5.29388 8.29214 4.91798 9.19547C4.53976 10.1069 3.7012 10.7222 2.72617 10.8113L2.54573 10.8275C2.08655 10.8703 1.7361 11.252 1.7361 11.7181V12.5532C1.7361 13.0158 2.08655 13.3975 2.54805 13.4414L2.72154 13.4576C3.70236 13.5479 4.54092 14.1655 4.91566 15.0723C5.29157 15.9814 5.13542 17.0096 4.50737 17.7614L4.39634 17.8945C4.09561 18.253 4.12106 18.7689 4.44954 19.0973L5.03942 19.6872C5.20829 19.8573 5.43267 19.9498 5.67094 19.9498C5.81783 19.9498 6.03528 19.9151 6.24 19.7416L6.37417 19.6306C6.84376 19.2419 7.44173 19.0245 8.05475 19.0245V19.021Z" fill="#333333"/>
</svg>
