<svg width="28" height="28" viewBox="0 0 28 28" fill="none" xmlns="http://www.w3.org/2000/svg">
<path d="M14.0023 9.61621C11.5849 9.61621 9.61865 11.5825 9.61865 13.9998C9.61865 16.4172 11.5849 18.3834 14.0023 18.3834C16.4196 18.3834 18.3859 16.4172 18.3859 13.9998C18.3859 11.5825 16.4196 9.61621 14.0023 9.61621ZM14.0023 16.6485C12.5426 16.6485 11.3536 15.4618 11.3536 13.9998C11.3536 12.5378 12.5449 11.3512 14.0023 11.3512C15.4596 11.3512 16.6509 12.5378 16.6509 13.9998C16.6509 15.4618 15.4619 16.6485 14.0023 16.6485V16.6485Z" fill="#333333"/>
<path d="M14.4187 26H13.5836C12.2153 26 11.0922 24.9729 10.9673 23.6127L10.9511 23.4427C10.9222 23.1107 10.7117 22.8262 10.4052 22.6978C10.0744 22.559 9.73205 22.6227 9.48222 22.8308L9.34805 22.943C8.3441 23.7816 6.74217 23.7099 5.80877 22.7811L5.21889 22.1912C4.25195 21.2197 4.18255 19.6999 5.05696 18.652L5.17031 18.5155C5.38545 18.2587 5.43634 17.9106 5.31142 17.6052C5.18419 17.2906 4.89735 17.0801 4.56424 17.05L4.39075 17.0338C3.02593 16.9101 2 15.7847 2 14.4175V13.5825C2 12.2142 3.02708 11.0911 4.38728 10.9662L4.56771 10.95C4.89735 10.9211 5.18072 10.7106 5.31026 10.4029C5.43749 10.0906 5.38545 9.74014 5.17147 9.48337L5.06275 9.3492C4.18718 8.29899 4.25542 6.77802 5.2212 5.80993L5.8134 5.21773C6.74333 4.28781 8.3441 4.21725 9.35267 5.05581L9.48684 5.16916C9.73899 5.38198 10.0975 5.43518 10.4006 5.31026C10.7129 5.18072 10.9234 4.89619 10.9523 4.56655L10.9685 4.38959C11.0922 3.02477 12.2176 2 13.5848 2H14.4199C15.7881 2 16.9112 3.02708 17.0361 4.38728L17.0523 4.56771C17.0813 4.89735 17.2906 5.18072 17.5983 5.30795C17.9187 5.44328 18.2691 5.37966 18.5166 5.17263L18.6554 5.05465C19.6582 4.21841 21.2625 4.28896 22.1947 5.21658L22.7846 5.80877C23.7515 6.77802 23.8209 8.29899 22.9465 9.34805L22.8308 9.48453C22.6134 9.73899 22.5602 10.0883 22.6886 10.396C22.8181 10.7082 23.105 10.9164 23.4358 10.9488L23.6116 10.965C24.9764 11.0888 26.0023 12.2142 26.0023 13.5813V14.4175C26.0023 15.7858 24.9752 16.9089 23.615 17.0338L23.4358 17.05C23.1073 17.0778 22.8227 17.2871 22.6955 17.5936C22.5648 17.9082 22.618 18.2575 22.8308 18.5132L22.9465 18.652C23.8209 19.6987 23.7515 21.2197 22.7846 22.1912L22.1947 22.7811C21.2613 23.711 19.6617 23.7804 18.6554 22.943L18.5224 22.832C18.2714 22.6203 17.9094 22.566 17.6087 22.6909C17.2929 22.8227 17.0824 23.1073 17.0535 23.4381L17.0373 23.6116C16.9135 24.9683 15.7881 25.9942 14.421 25.9942L14.4187 26ZM10.0547 20.8877C10.4017 20.8877 10.7406 20.9571 11.061 21.0901C11.9747 21.4695 12.5924 22.3092 12.6803 23.2831L12.6965 23.4531C12.7393 23.9158 13.121 24.2627 13.5871 24.2627H14.4222C14.8848 24.2627 15.2665 23.9158 15.3105 23.4531L15.3267 23.2819C15.4146 22.308 16.0322 21.4695 16.9367 21.0936C17.8539 20.7119 18.8983 20.8831 19.6351 21.4984L19.7658 21.6071C19.9717 21.7783 20.1891 21.8153 20.336 21.8153C20.5743 21.8153 20.7987 21.7228 20.9675 21.5528L21.5574 20.9629C21.8859 20.6344 21.9102 20.1186 21.6129 19.7623L21.4973 19.6235C20.8704 18.8717 20.7142 17.8423 21.0901 16.9367C21.4672 16.0229 22.3069 15.4099 23.2808 15.3209L23.46 15.3047C23.9192 15.2619 24.2697 14.8802 24.2697 14.4141V13.579C24.2697 13.1163 23.9192 12.7347 23.4577 12.6907L23.2819 12.6745C22.3034 12.5843 21.466 11.969 21.0901 11.0633C20.7131 10.1519 20.8704 9.12251 21.4984 8.37185L21.6141 8.23537C21.9113 7.87682 21.887 7.36096 21.5586 7.03248L20.9687 6.4426C20.7998 6.27258 20.5754 6.18005 20.3372 6.18005C20.1903 6.18005 19.9728 6.21706 19.7681 6.38824L19.6293 6.5039C18.896 7.1146 17.8365 7.27884 16.9436 6.91335C16.0322 6.53513 15.4169 5.69658 15.3278 4.72039L15.3116 4.54111C15.2711 4.08193 14.8894 3.73147 14.4245 3.73147H13.5882C13.1256 3.73147 12.7439 4.08193 12.7 4.54342L12.6838 4.71923C12.5959 5.69426 11.9805 6.53282 11.076 6.90872C10.1658 7.28578 9.11788 7.12039 8.38111 6.5039L8.24463 6.39287C8.03643 6.21937 7.81899 6.18467 7.6721 6.18467C7.43383 6.18467 7.20945 6.2772 7.04058 6.44607L6.44839 7.03595C6.12222 7.36443 6.09793 7.88029 6.39518 8.23653L6.51084 8.37301C7.13542 9.12829 7.29388 10.1588 6.91798 11.0622C6.53976 11.9736 5.7012 12.5889 4.72617 12.678L4.54573 12.6942C4.08655 12.737 3.7361 13.1186 3.7361 13.5848V14.4199C3.7361 14.8825 4.08655 15.2642 4.54805 15.3081L4.72154 15.3243C5.70236 15.4146 6.54092 16.0322 6.91566 16.939C7.29157 17.8481 7.13542 18.8763 6.50737 19.6281L6.39634 19.7612C6.09561 20.1197 6.12106 20.6356 6.44954 20.964L7.03942 21.5539C7.20829 21.724 7.43267 21.8165 7.67094 21.8165C7.81783 21.8165 8.03528 21.7818 8.24 21.6083L8.37417 21.4973C8.84376 21.1086 9.44173 20.8912 10.0547 20.8912V20.8877Z" fill="#333333"/>
</svg>
