<svg width="26" height="21" viewBox="0 0 26 21" fill="none" xmlns="http://www.w3.org/2000/svg">
<path d="M9.37209 1.1333C8.7638 1.1333 8.25581 1.64129 8.25581 2.24958V3.924H4.06977C2.379 3.924 1 5.30299 1 6.99377V17.5984C1 19.2892 2.379 20.6682 4.06977 20.6682H21.9302C23.621 20.6682 25 19.2892 25 17.5984V6.99377C25 5.30299 23.621 3.90865 21.9302 3.924H17.7442V2.24958C17.7442 1.64129 17.2362 1.1333 16.6279 1.1333H9.37209ZM9.37209 2.24958H16.6279V3.924H9.37209V2.24958ZM4.06977 5.04028H21.9302C23.0225 5.04028 23.8837 5.90146 23.8837 6.99377V9.18273C21.5967 10.48 18.5454 11.3739 15.1279 11.642C14.8467 10.7307 13.9996 10.0636 13 10.0636C12.0004 10.0636 11.1533 10.7307 10.8721 11.642C7.45014 11.3739 4.40549 10.4822 2.11628 9.18273V6.99377C2.11628 5.90146 2.97746 5.04028 4.06977 5.04028ZM2.11628 10.4559C4.50473 11.6921 7.50679 12.513 10.8199 12.7669C11.039 13.7677 11.9362 14.5286 13.0001 14.5286C14.0641 14.5286 14.9612 13.7677 15.1804 12.7669C18.4954 12.514 21.4943 11.6932 23.884 10.4559V17.5984C23.884 18.6907 23.0228 19.5519 21.9305 19.5519H4.07005C2.97774 19.5519 2.11656 18.6907 2.11656 17.5984L2.11628 10.4559ZM13 11.1798C13.6236 11.1798 14.1163 11.6725 14.1163 12.296C14.1163 12.9196 13.6236 13.4123 13 13.4123C12.3764 13.4123 11.8837 12.9196 11.8837 12.296C11.8837 11.6725 12.3764 11.1798 13 11.1798Z" fill="#2B75CC" stroke="#2B75CC" stroke-width="0.5"/>
</svg>
