<svg width="28" height="28" viewBox="0 0 28 28" fill="none" xmlns="http://www.w3.org/2000/svg">
<path d="M10.3721 4.22998C9.76381 4.22998 9.25581 4.73797 9.25581 5.34626V7.02068H5.06977C3.379 7.02068 2 8.39967 2 10.0904V20.6951C2 22.3859 3.379 23.7649 5.06977 23.7649H22.9302C24.621 23.7649 26 22.3859 26 20.6951V10.0904C26 8.39967 24.621 7.00533 22.9302 7.02068H18.7442V5.34626C18.7442 4.73797 18.2362 4.22998 17.6279 4.22998H10.3721ZM10.3721 5.34626H17.6279V7.02068H10.3721V5.34626ZM5.06977 8.13696H22.9302C24.0225 8.13696 24.8837 8.99814 24.8837 10.0904V12.2794C22.5967 13.5766 19.5454 14.4706 16.1279 14.7387C15.8467 13.8274 14.9996 13.1602 14 13.1602C13.0004 13.1602 12.1533 13.8274 11.8721 14.7387C8.45014 14.4705 5.40549 13.5788 3.11628 12.2794V10.0904C3.11628 8.99814 3.97746 8.13696 5.06977 8.13696ZM3.11628 13.5526C5.50473 14.7888 8.50679 15.6096 11.8199 15.8636C12.039 16.8643 12.9362 17.6252 14.0001 17.6252C15.0641 17.6252 15.9612 16.8643 16.1804 15.8636C19.4954 15.6107 22.4943 14.7898 24.884 13.5526V20.6951C24.884 21.7874 24.0228 22.6486 22.9305 22.6486H5.07005C3.97774 22.6486 3.11656 21.7874 3.11656 20.6951L3.11628 13.5526ZM14 14.2764C14.6236 14.2764 15.1163 14.7692 15.1163 15.3927C15.1163 16.0163 14.6236 16.509 14 16.509C13.3764 16.509 12.8837 16.0163 12.8837 15.3927C12.8837 14.7692 13.3764 14.2764 14 14.2764Z" fill="#333333" stroke="#333333" stroke-width="0.5"/>
</svg>
